<svg xmlns="http://www.w3.org/2000/svg" xmlns:xlink="http://www.w3.org/1999/xlink" width="500" zoomAndPan="magnify" viewBox="0 0 375 374.999991" height="500" preserveAspectRatio="xMidYMid meet" version="1.2"><defs><clipPath id="688f580d23"><path d="M 13.859375 102 L 84 102 L 84 146 L 13.859375 146 Z M 13.859375 102 "/></clipPath><clipPath id="a38f2eacbc"><path d="M 213 291 L 248 291 L 248 344.769531 L 213 344.769531 Z M 213 291 "/></clipPath><clipPath id="d0176bf41d"><path d="M 177 30.519531 L 218 30.519531 L 218 113 L 177 113 Z M 177 30.519531 "/></clipPath><clipPath id="ddbfb9342b"><path d="M 267 273 L 351.359375 273 L 351.359375 309 L 267 309 Z M 267 273 "/></clipPath></defs><g id="4c4e49b9b3"><path style=" stroke:none;fill-rule:nonzero;fill:#a49180;fill-opacity:1;" d="M 131.039062 316.753906 C 130.699219 316.753906 130.363281 316.554688 130.230469 316.214844 C 130.027344 315.742188 130.296875 315.203125 130.699219 315.070312 C 130.972656 314.933594 156.605469 304.679688 186.152344 297.121094 C 226.089844 287 253.816406 286.527344 268.722656 295.636719 C 269.128906 295.90625 269.261719 296.445312 268.992188 296.851562 C 268.722656 297.257812 268.183594 297.390625 267.777344 297.121094 C 233.238281 275.867188 132.386719 316.214844 131.375 316.621094 C 131.242188 316.753906 131.105469 316.753906 131.039062 316.753906 Z M 131.039062 316.753906 "/><path style=" stroke:none;fill-rule:nonzero;fill:#deb867;fill-opacity:1;" d="M 185.34375 110.421875 C 185.34375 110.421875 131.578125 82.285156 154.648438 38.292969 C 198.835938 61.910156 185.34375 110.421875 185.34375 110.421875 Z M 185.34375 110.421875 "/><path style=" stroke:none;fill-rule:nonzero;fill:#a49180;fill-opacity:1;" d="M 185.34375 111.300781 C 185.207031 111.300781 185.074219 111.230469 184.9375 111.164062 C 184.667969 111.03125 157.414062 96.523438 149.925781 72.503906 C 146.417969 61.167969 147.699219 49.496094 153.839844 37.820312 C 153.972656 37.617188 154.175781 37.417969 154.378906 37.347656 C 154.648438 37.28125 154.851562 37.28125 155.054688 37.417969 C 199.375 61.097656 186.355469 110.085938 186.21875 110.625 C 186.152344 110.894531 185.949219 111.097656 185.679688 111.230469 C 185.613281 111.300781 185.476562 111.300781 185.34375 111.300781 Z M 154.988281 39.507812 C 149.453125 50.507812 148.308594 61.4375 151.613281 72.03125 C 158.089844 92.746094 179.742188 106.171875 184.734375 109.074219 C 186.355469 101.71875 193.4375 60.695312 154.988281 39.507812 Z M 154.988281 39.507812 "/><path style=" stroke:none;fill-rule:nonzero;fill:#deb867;fill-opacity:1;" d="M 184.0625 108.667969 C 184.0625 108.667969 205.445312 55.902344 250.441406 76.820312 C 228.988281 122.164062 184.0625 108.667969 184.0625 108.667969 Z M 184.0625 108.667969 "/><path style=" stroke:none;fill-rule:nonzero;fill:#a49180;fill-opacity:1;" d="M 199.238281 111.433594 C 190.335938 111.433594 184.195312 109.613281 183.859375 109.476562 C 183.589844 109.410156 183.386719 109.207031 183.320312 109.003906 C 183.183594 108.804688 183.183594 108.535156 183.320312 108.261719 C 183.453125 107.992188 194.046875 82.21875 215.699219 73.71875 C 226.628906 69.398438 238.5 70.140625 250.980469 75.945312 C 251.183594 76.078125 251.386719 76.214844 251.453125 76.484375 C 251.519531 76.6875 251.519531 76.957031 251.453125 77.160156 C 240.1875 100.910156 222.445312 108.464844 209.492188 110.558594 C 205.714844 111.230469 202.34375 111.433594 199.238281 111.433594 Z M 185.34375 108.0625 C 188.378906 108.804688 197.890625 110.691406 209.15625 108.871094 C 227.035156 105.902344 240.523438 95.308594 249.292969 77.292969 C 237.558594 72.03125 226.492188 71.421875 216.308594 75.472656 C 197.6875 82.757812 187.433594 103.40625 185.34375 108.0625 Z M 185.34375 108.0625 "/><path style=" stroke:none;fill-rule:nonzero;fill:#a49180;fill-opacity:1;" d="M 185.679688 287.203125 C 185.546875 287.203125 185.410156 287.203125 185.34375 287.136719 C 184.871094 286.933594 184.667969 286.394531 184.871094 285.921875 C 185.140625 285.3125 211.046875 223.035156 186.421875 193.953125 C 161.058594 164.0625 183.453125 110.21875 183.65625 109.679688 C 183.859375 109.207031 184.398438 109.003906 184.871094 109.207031 C 185.34375 109.410156 185.546875 109.949219 185.34375 110.421875 C 185.140625 110.960938 163.148438 163.792969 187.839844 192.808594 C 198.363281 205.222656 201.464844 225.398438 196.8125 251.171875 C 193.304688 270.535156 186.625 286.460938 186.558594 286.664062 C 186.355469 287 186.019531 287.203125 185.679688 287.203125 Z M 185.679688 287.203125 "/><path style=" stroke:none;fill-rule:nonzero;fill:#efb5b4;fill-opacity:1;" d="M 174.617188 148.613281 C 174.617188 148.613281 163.488281 110.019531 125.777344 112.785156 C 124.425781 147.871094 174.617188 148.613281 174.617188 148.613281 Z M 174.617188 148.613281 "/><path style=" stroke:none;fill-rule:nonzero;fill:#a49180;fill-opacity:1;" d="M 174.617188 149.488281 C 173.46875 149.488281 146.554688 148.882812 132.726562 134.308594 C 127.191406 128.503906 124.5625 121.21875 124.898438 112.714844 C 124.898438 112.246094 125.304688 111.90625 125.710938 111.839844 C 163.6875 108.9375 175.359375 147.9375 175.425781 148.273438 C 175.496094 148.542969 175.425781 148.816406 175.292969 149.085938 C 175.15625 149.355469 174.886719 149.488281 174.617188 149.488281 Z M 126.652344 113.59375 C 126.519531 121.285156 129.015625 127.832031 134.007812 133.09375 C 145.609375 145.375 167.804688 147.332031 173.335938 147.601562 C 171.042969 141.257812 158.695312 111.703125 126.652344 113.59375 Z M 126.652344 113.59375 "/><path style=" stroke:none;fill-rule:nonzero;fill:#efb5b4;fill-opacity:1;" d="M 176.910156 168.988281 C 176.910156 168.988281 195.125 133.566406 231.417969 142.605469 C 226.019531 176.679688 176.910156 168.988281 176.910156 168.988281 Z M 176.910156 168.988281 "/><path style=" stroke:none;fill-rule:nonzero;fill:#a49180;fill-opacity:1;" d="M 188.109375 170.609375 C 181.566406 170.609375 176.976562 169.933594 176.84375 169.867188 C 176.574219 169.800781 176.304688 169.664062 176.167969 169.394531 C 176.035156 169.125 176.035156 168.855469 176.167969 168.585938 C 176.371094 168.246094 195.125 132.621094 231.6875 141.796875 C 232.160156 141.933594 232.429688 142.335938 232.363281 142.808594 C 228.515625 166.898438 203.21875 170.609375 188.109375 170.609375 Z M 178.394531 168.246094 C 186.085938 169.125 225.144531 172.09375 230.40625 143.28125 C 199.511719 136.128906 181.902344 162.375 178.394531 168.246094 Z M 178.394531 168.246094 "/><path style=" stroke:none;fill-rule:nonzero;fill:#deb867;fill-opacity:1;" d="M 82.398438 144.023438 C 82.398438 144.023438 22.429688 153.402344 14.804688 104.28125 C 64.457031 96.996094 82.398438 144.023438 82.398438 144.023438 Z M 82.398438 144.023438 "/><g clip-rule="nonzero" clip-path="url(#688f580d23)"><path style=" stroke:none;fill-rule:nonzero;fill:#a49180;fill-opacity:1;" d="M 71.203125 145.574219 C 60.410156 145.574219 43.949219 143.820312 31.402344 134.644531 C 21.820312 127.628906 15.953125 117.441406 13.929688 104.417969 C 13.859375 104.148438 13.929688 103.945312 14.132812 103.742188 C 14.265625 103.539062 14.46875 103.40625 14.738281 103.40625 C 64.589844 96.050781 83.074219 143.214844 83.277344 143.6875 C 83.34375 143.957031 83.34375 144.226562 83.210938 144.429688 C 83.074219 144.699219 82.804688 144.832031 82.535156 144.902344 C 82.398438 144.902344 77.878906 145.574219 71.203125 145.574219 Z M 15.886719 105.023438 C 17.976562 117.167969 23.507812 126.617188 32.480469 133.160156 C 50.019531 145.980469 75.453125 143.890625 81.117188 143.214844 C 78.082031 136.398438 59.464844 99.222656 15.886719 105.023438 Z M 15.886719 105.023438 "/></g><path style=" stroke:none;fill-rule:nonzero;fill:#deb867;fill-opacity:1;" d="M 80.375 143.347656 C 80.375 143.347656 66.140625 88.222656 114.847656 78.304688 C 124.496094 127.492188 80.375 143.347656 80.375 143.347656 Z M 80.375 143.347656 "/><path style=" stroke:none;fill-rule:nonzero;fill:#a49180;fill-opacity:1;" d="M 80.375 144.292969 C 80.242188 144.292969 80.105469 144.226562 79.972656 144.160156 C 79.769531 144.023438 79.566406 143.820312 79.5 143.621094 C 79.433594 143.347656 72.6875 116.292969 84.964844 96.589844 C 91.167969 86.605469 101.152344 80.195312 114.644531 77.429688 C 114.914062 77.359375 115.117188 77.429688 115.320312 77.5625 C 115.523438 77.699219 115.65625 77.902344 115.726562 78.171875 C 120.785156 103.945312 111.003906 120.542969 101.894531 129.988281 C 92.046875 140.109375 81.1875 144.160156 80.714844 144.292969 C 80.578125 144.226562 80.445312 144.292969 80.375 144.292969 Z M 114.105469 79.386719 C 101.558594 82.152344 92.316406 88.222656 86.449219 97.535156 C 75.855469 114.472656 79.902344 137.140625 80.984375 142.136719 C 83.882812 140.921875 92.652344 136.804688 100.613281 128.574219 C 113.230469 115.617188 117.75 99.019531 114.105469 79.386719 Z M 114.105469 79.386719 "/><path style=" stroke:none;fill-rule:nonzero;fill:#a49180;fill-opacity:1;" d="M 176.371094 294.421875 C 176.304688 294.421875 176.304688 294.421875 176.234375 294.421875 C 175.765625 294.355469 175.425781 293.882812 175.496094 293.410156 C 175.5625 292.800781 183.992188 233.695312 134.277344 215.949219 C 97.445312 202.792969 80.78125 145.171875 80.644531 144.5625 C 80.511719 144.089844 80.78125 143.550781 81.253906 143.417969 C 81.792969 143.28125 82.265625 143.550781 82.398438 144.023438 C 82.535156 144.5625 98.996094 201.375 134.949219 214.195312 C 186.085938 232.414062 177.449219 293.003906 177.316406 293.613281 C 177.25 294.085938 176.84375 294.421875 176.371094 294.421875 Z M 176.371094 294.421875 "/><path style=" stroke:none;fill-rule:nonzero;fill:#efb5b4;fill-opacity:1;" d="M 104.324219 190.648438 C 104.324219 190.648438 67.289062 176.074219 45.972656 206.773438 C 72.484375 228.839844 104.324219 190.648438 104.324219 190.648438 Z M 104.324219 190.648438 "/><path style=" stroke:none;fill-rule:nonzero;fill:#a49180;fill-opacity:1;" d="M 64.050781 214.464844 C 57.84375 214.464844 51.503906 212.507812 45.433594 207.449219 C 45.09375 207.179688 45.027344 206.640625 45.296875 206.234375 C 66.75 175.265625 104.324219 189.636719 104.730469 189.769531 C 105 189.90625 105.203125 190.109375 105.269531 190.378906 C 105.335938 190.648438 105.269531 190.984375 105.066406 191.1875 C 104.730469 191.523438 85.300781 214.464844 64.050781 214.464844 Z M 47.1875 206.640625 C 70.191406 224.789062 97.511719 196.789062 102.707031 191.054688 C 96.230469 188.894531 65.671875 180.796875 47.1875 206.640625 Z M 47.1875 206.640625 "/><path style=" stroke:none;fill-rule:nonzero;fill:#efb5b4;fill-opacity:1;" d="M 116.0625 204.210938 C 116.0625 204.210938 109.585938 164.941406 144.125 150.570312 C 160.113281 181.066406 116.0625 204.210938 116.0625 204.210938 Z M 116.0625 204.210938 "/><path style=" stroke:none;fill-rule:nonzero;fill:#a49180;fill-opacity:1;" d="M 116.0625 205.085938 C 115.925781 205.085938 115.792969 205.085938 115.65625 205.019531 C 115.386719 204.886719 115.183594 204.613281 115.183594 204.34375 C 115.117188 203.941406 108.980469 164.132812 143.789062 149.691406 C 144.191406 149.488281 144.734375 149.691406 144.933594 150.097656 C 161.125 181.132812 116.9375 204.75 116.535156 204.953125 C 116.398438 205.019531 116.195312 205.085938 116.0625 205.085938 Z M 143.722656 151.714844 C 114.578125 164.402344 116.128906 195.980469 116.804688 202.792969 C 123.484375 198.878906 156.605469 177.964844 143.722656 151.714844 Z M 143.722656 151.714844 "/><path style=" stroke:none;fill-rule:nonzero;fill:#a49180;fill-opacity:1;" d="M 152.828125 309.0625 C 152.492188 309.0625 152.152344 308.863281 152.019531 308.589844 C 151.816406 308.117188 151.949219 307.578125 152.421875 307.375 C 153.03125 307.105469 210.910156 277.351562 218.871094 239.972656 C 229.125 191.929688 273.109375 183.496094 273.511719 183.429688 C 274.050781 183.292969 274.457031 183.699219 274.59375 184.171875 C 274.726562 184.644531 274.324219 185.117188 273.851562 185.25 C 273.445312 185.316406 230.609375 193.550781 220.625 240.375 C 212.460938 278.566406 155.660156 307.847656 153.234375 309.0625 C 153.097656 308.996094 152.960938 309.0625 152.828125 309.0625 Z M 152.828125 309.0625 "/><path style=" stroke:none;fill-rule:nonzero;fill:#deb867;fill-opacity:1;" d="M 274.121094 185.117188 C 274.121094 185.117188 256.984375 126.820312 304.679688 112.917969 C 318.375 161.164062 274.121094 185.117188 274.121094 185.117188 Z M 274.121094 185.117188 "/><path style=" stroke:none;fill-rule:nonzero;fill:#a49180;fill-opacity:1;" d="M 274.121094 185.992188 C 273.984375 185.992188 273.917969 185.992188 273.78125 185.925781 C 273.511719 185.789062 273.308594 185.585938 273.242188 185.316406 C 273.175781 185.046875 264.675781 155.359375 276.75 133.296875 C 282.417969 122.90625 291.726562 115.753906 304.410156 112.042969 C 304.679688 111.972656 304.882812 111.972656 305.082031 112.109375 C 305.285156 112.246094 305.421875 112.445312 305.488281 112.648438 C 319.183594 161.027344 274.929688 185.65625 274.457031 185.859375 C 274.457031 185.992188 274.324219 185.992188 274.121094 185.992188 Z M 304.070312 114.066406 C 292.335938 117.710938 283.632812 124.457031 278.371094 134.171875 C 267.980469 153.199219 273.308594 178.164062 274.726562 183.699219 C 281.136719 179.785156 315.539062 156.371094 304.070312 114.066406 Z M 304.070312 114.066406 "/><path style=" stroke:none;fill-rule:nonzero;fill:#deb867;fill-opacity:1;" d="M 274.523438 183.023438 C 274.523438 183.023438 327.34375 161.769531 343.535156 208.730469 C 295.976562 224.65625 274.523438 183.023438 274.523438 183.023438 Z M 274.523438 183.023438 "/><path style=" stroke:none;fill-rule:nonzero;fill:#a49180;fill-opacity:1;" d="M 322.691406 213.183594 C 308.59375 213.183594 297.933594 207.921875 290.648438 202.523438 C 279.3125 194.089844 273.917969 183.832031 273.714844 183.359375 C 273.582031 183.160156 273.582031 182.890625 273.648438 182.617188 C 273.714844 182.347656 273.917969 182.214844 274.1875 182.078125 C 274.457031 181.945312 300.363281 171.753906 321.476562 181.335938 C 332.136719 186.195312 339.894531 195.304688 344.34375 208.257812 C 344.414062 208.460938 344.414062 208.730469 344.277344 208.933594 C 344.144531 209.136719 344.007812 209.339844 343.738281 209.40625 C 336.046875 212.171875 329.03125 213.183594 322.691406 213.183594 Z M 275.804688 183.496094 C 277.359375 186.195312 282.621094 194.359375 291.792969 201.175781 C 306.296875 211.96875 323.296875 214.265625 342.320312 208.125 C 337.9375 196.046875 330.71875 187.679688 320.734375 183.089844 C 302.589844 174.792969 280.664062 181.742188 275.804688 183.496094 Z M 275.804688 183.496094 "/><path style=" stroke:none;fill-rule:nonzero;fill:#efb5b4;fill-opacity:1;" d="M 237.558594 203.402344 C 237.558594 203.402344 267.980469 177.152344 249.699219 144.089844 C 217.320312 157.519531 237.558594 203.402344 237.558594 203.402344 Z M 237.558594 203.402344 "/><path style=" stroke:none;fill-rule:nonzero;fill:#a49180;fill-opacity:1;" d="M 237.558594 204.277344 C 237.488281 204.277344 237.421875 204.277344 237.355469 204.277344 C 237.085938 204.210938 236.816406 204.007812 236.746094 203.738281 C 236.273438 202.726562 225.550781 177.964844 233.039062 159.339844 C 236.003906 151.917969 241.535156 146.453125 249.363281 143.214844 C 249.765625 143.011719 250.308594 143.214844 250.507812 143.621094 C 268.925781 176.949219 238.433594 203.804688 238.164062 204.074219 C 237.960938 204.210938 237.757812 204.277344 237.558594 204.277344 Z M 249.292969 145.238281 C 242.277344 148.34375 237.355469 153.335938 234.65625 160.015625 C 228.382812 175.738281 235.804688 196.652344 237.828125 201.847656 C 242.75 197.125 264.472656 173.644531 249.292969 145.238281 Z M 249.292969 145.238281 "/><path style=" stroke:none;fill-rule:nonzero;fill:#efb5b4;fill-opacity:1;" d="M 229.328125 216.691406 C 229.328125 216.691406 267.304688 204.613281 286.464844 236.734375 C 258.535156 256.90625 229.328125 216.691406 229.328125 216.691406 Z M 229.328125 216.691406 "/><path style=" stroke:none;fill-rule:nonzero;fill:#a49180;fill-opacity:1;" d="M 269.871094 243.277344 C 247.8125 243.277344 228.855469 217.570312 228.652344 217.234375 C 228.449219 217.03125 228.449219 216.691406 228.515625 216.421875 C 228.585938 216.152344 228.855469 215.949219 229.125 215.816406 C 229.527344 215.679688 267.980469 203.941406 287.273438 236.261719 C 287.542969 236.664062 287.410156 237.203125 287.003906 237.476562 C 281.269531 241.589844 275.46875 243.277344 269.871094 243.277344 Z M 230.878906 217.164062 C 235.667969 223.238281 261.101562 253.0625 285.25 236.460938 C 268.519531 209.472656 237.488281 215.546875 230.878906 217.164062 Z M 230.878906 217.164062 "/><path style=" stroke:none;fill-rule:nonzero;fill:#efb5b4;fill-opacity:1;" d="M 214.417969 292.601562 C 214.417969 292.601562 251.589844 306.835938 246.664062 343.878906 C 212.191406 342.261719 214.417969 292.601562 214.417969 292.601562 Z M 214.417969 292.601562 "/><g clip-rule="nonzero" clip-path="url(#a38f2eacbc)"><path style=" stroke:none;fill-rule:nonzero;fill:#a49180;fill-opacity:1;" d="M 246.597656 344.757812 C 211.585938 343.136719 213.472656 293.074219 213.472656 292.53125 C 213.472656 292.261719 213.609375 291.992188 213.878906 291.789062 C 214.148438 291.65625 214.417969 291.589844 214.6875 291.722656 C 215.09375 291.859375 252.464844 306.632812 247.472656 343.949219 C 247.472656 344.417969 247.070312 344.757812 246.597656 344.757812 Z M 215.296875 293.949219 C 215.296875 301.710938 216.578125 340.84375 245.855469 342.867188 C 249.566406 311.289062 221.5 296.785156 215.296875 293.949219 Z M 215.296875 293.949219 "/></g><path style=" stroke:none;fill-rule:nonzero;fill:#efb5b4;fill-opacity:1;" d="M 221.097656 291.25 C 221.097656 291.25 260.761719 284.773438 262.449219 246.988281 C 227.773438 241.523438 221.097656 291.25 221.097656 291.25 Z M 221.097656 291.25 "/><path style=" stroke:none;fill-rule:nonzero;fill:#a49180;fill-opacity:1;" d="M 221.097656 292.195312 C 220.894531 292.195312 220.625 292.128906 220.488281 291.925781 C 220.289062 291.722656 220.152344 291.453125 220.21875 291.183594 C 220.355469 290.035156 224.132812 263.382812 240.1875 251.375 C 246.597656 246.582031 254.152344 244.828125 262.515625 246.179688 C 262.988281 246.246094 263.328125 246.652344 263.257812 247.125 C 261.574219 285.179688 221.570312 292.128906 221.164062 292.195312 C 221.230469 292.195312 221.164062 292.195312 221.097656 292.195312 Z M 257.253906 247.527344 C 251.320312 247.527344 245.988281 249.28125 241.265625 252.792969 C 227.707031 262.910156 223.121094 284.636719 222.175781 290.105469 C 228.789062 288.621094 259.546875 279.914062 261.4375 247.796875 C 260.089844 247.59375 258.671875 247.527344 257.253906 247.527344 Z M 257.253906 247.527344 "/><path style=" stroke:none;fill-rule:nonzero;fill:#deb867;fill-opacity:1;" d="M 269.261719 294.558594 C 269.261719 294.558594 326.132812 292.734375 325.1875 342.394531 C 275.132812 341.113281 269.261719 294.558594 269.261719 294.558594 Z M 269.261719 294.558594 "/><path style=" stroke:none;fill-rule:nonzero;fill:#a49180;fill-opacity:1;" d="M 325.253906 343.339844 C 298.945312 342.664062 284.914062 329.441406 277.761719 318.511719 C 270.003906 306.703125 268.519531 295.164062 268.453125 294.691406 C 268.453125 294.421875 268.519531 294.152344 268.65625 294.015625 C 268.789062 293.816406 269.058594 293.679688 269.332031 293.679688 C 269.601562 293.679688 297.527344 293.003906 313.988281 309.265625 C 322.355469 317.496094 326.46875 328.699219 326.199219 342.464844 C 326.199219 342.734375 326.0625 342.933594 325.929688 343.070312 C 325.726562 343.273438 325.457031 343.339844 325.253906 343.339844 Z M 270.34375 295.433594 C 270.882812 298.46875 273.039062 307.984375 279.246094 317.496094 C 289.164062 332.613281 304.34375 340.640625 324.308594 341.449219 C 324.378906 328.632812 320.464844 318.238281 312.640625 310.546875 C 298.472656 296.582031 275.46875 295.5 270.34375 295.433594 Z M 270.34375 295.433594 "/><path style=" stroke:none;fill-rule:nonzero;fill:#deb867;fill-opacity:1;" d="M 268.25 296.445312 C 268.25 296.445312 272.230469 235.855469 321.8125 239.160156 C 318.035156 289.160156 268.25 296.445312 268.25 296.445312 Z M 268.25 296.445312 "/><path style=" stroke:none;fill-rule:nonzero;fill:#a49180;fill-opacity:1;" d="M 268.25 297.324219 C 268.046875 297.324219 267.777344 297.257812 267.644531 297.054688 C 267.441406 296.851562 267.304688 296.582031 267.375 296.3125 C 267.375 295.972656 269.601562 265.207031 288.554688 248.675781 C 297.460938 240.847656 308.660156 237.339844 321.882812 238.21875 C 322.152344 238.21875 322.355469 238.351562 322.488281 238.554688 C 322.625 238.757812 322.691406 238.960938 322.691406 239.230469 C 318.914062 289.363281 268.859375 297.257812 268.386719 297.324219 C 268.320312 297.324219 268.25 297.324219 268.25 297.324219 Z M 317.902344 239.902344 C 306.835938 239.902344 297.394531 243.277344 289.703125 250.023438 C 273.378906 264.328125 269.871094 289.5625 269.261719 295.300781 C 276.617188 293.816406 317.023438 283.695312 320.800781 239.972656 C 319.789062 239.972656 318.84375 239.902344 317.902344 239.902344 Z M 317.902344 239.902344 "/><path style=" stroke:none;fill-rule:nonzero;fill:#eeddcf;fill-opacity:1;" d="M 79.09375 141.191406 C 79.09375 141.191406 86.246094 90.046875 107.628906 88.964844 C 116.871094 107.050781 79.09375 141.191406 79.09375 141.191406 Z M 79.09375 141.191406 "/><path style=" stroke:none;fill-rule:nonzero;fill:#eeddcf;fill-opacity:1;" d="M 75.453125 142.335938 C 75.453125 142.335938 43.070312 102.191406 24.113281 112.175781 C 25.53125 132.484375 75.453125 142.335938 75.453125 142.335938 Z M 75.453125 142.335938 "/><path style=" stroke:none;fill-rule:nonzero;fill:#deb867;fill-opacity:1;" d="M 81.929688 145.914062 C 81.929688 145.914062 31.601562 115.414062 55.484375 65.890625 C 101.761719 86.335938 81.929688 145.914062 81.929688 145.914062 Z M 81.929688 145.914062 "/><path style=" stroke:none;fill-rule:nonzero;fill:#a49180;fill-opacity:1;" d="M 81.929688 146.789062 C 81.792969 146.789062 81.589844 146.722656 81.457031 146.65625 C 80.914062 146.316406 30.660156 115.144531 54.675781 65.484375 C 54.875 65.082031 55.417969 64.878906 55.886719 65.082031 C 102.367188 85.59375 83.007812 145.644531 82.804688 146.183594 C 82.738281 146.453125 82.535156 146.65625 82.265625 146.722656 C 82.128906 146.789062 81.996094 146.789062 81.929688 146.789062 Z M 55.886719 67.105469 C 35.3125 111.03125 74.574219 139.910156 81.386719 144.496094 C 83.75 136.265625 96.429688 85.726562 55.886719 67.105469 Z M 55.886719 67.105469 "/><path style=" stroke:none;fill-rule:nonzero;fill:#eeddcf;fill-opacity:1;" d="M 78.082031 136.601562 C 78.082031 136.601562 45.90625 96.457031 59.195312 79.65625 C 80.578125 83.703125 78.082031 136.601562 78.082031 136.601562 Z M 78.082031 136.601562 "/><path style=" stroke:none;fill-rule:nonzero;fill:#eeddcf;fill-opacity:1;" d="M 188.042969 105.765625 C 188.042969 105.765625 223.726562 69.398438 242.210938 80.195312 C 239.984375 100.4375 188.042969 105.765625 188.042969 105.765625 Z M 188.042969 105.765625 "/><path style=" stroke:none;fill-rule:nonzero;fill:#eeddcf;fill-opacity:1;" d="M 184.332031 104.6875 C 184.332031 104.6875 179.273438 53.339844 157.953125 51.316406 C 148.039062 69.0625 184.332031 104.6875 184.332031 104.6875 Z M 184.332031 104.6875 "/><path style=" stroke:none;fill-rule:nonzero;fill:#eeddcf;fill-opacity:1;" d="M 276.480469 182.214844 C 276.480469 182.214844 328.019531 184.304688 331.257812 205.425781 C 314.125 216.421875 276.480469 182.214844 276.480469 182.214844 Z M 276.480469 182.214844 "/><path style=" stroke:none;fill-rule:nonzero;fill:#eeddcf;fill-opacity:1;" d="M 274.996094 178.636719 C 274.996094 178.636719 311.761719 142.40625 299.890625 124.59375 C 279.855469 128.03125 274.996094 178.636719 274.996094 178.636719 Z M 274.996094 178.636719 "/><path style=" stroke:none;fill-rule:nonzero;fill:#eeddcf;fill-opacity:1;" d="M 272.90625 295.097656 C 272.90625 295.097656 321.140625 313.382812 317.496094 334.5 C 297.730469 339.496094 272.90625 295.097656 272.90625 295.097656 Z M 272.90625 295.097656 "/><path style=" stroke:none;fill-rule:nonzero;fill:#eeddcf;fill-opacity:1;" d="M 272.570312 291.25 C 272.570312 291.25 318.914062 268.578125 313.3125 247.867188 C 293.210938 244.761719 272.570312 291.25 272.570312 291.25 Z M 272.570312 291.25 "/><path style=" stroke:none;fill-rule:nonzero;fill:#deb867;fill-opacity:1;" d="M 183.792969 111.636719 C 183.792969 111.636719 161.460938 57.1875 210.101562 31.613281 C 235.195312 75.539062 183.792969 111.636719 183.792969 111.636719 Z M 183.792969 111.636719 "/><g clip-rule="nonzero" clip-path="url(#d0176bf41d)"><path style=" stroke:none;fill-rule:nonzero;fill:#a49180;fill-opacity:1;" d="M 183.792969 112.515625 C 183.722656 112.515625 183.589844 112.515625 183.523438 112.445312 C 183.253906 112.378906 183.050781 112.175781 182.914062 111.90625 C 182.710938 111.367188 160.789062 56.375 209.628906 30.738281 C 210.035156 30.535156 210.574219 30.667969 210.84375 31.074219 C 236.003906 75.269531 184.734375 111.972656 184.265625 112.3125 C 184.195312 112.445312 183.992188 112.515625 183.792969 112.515625 Z M 209.761719 32.761719 C 167.128906 55.835938 181.429688 102.394531 184.195312 110.152344 C 191.011719 104.957031 231.28125 71.894531 209.761719 32.761719 Z M 209.761719 32.761719 "/></g><path style=" stroke:none;fill-rule:nonzero;fill:#eeddcf;fill-opacity:1;" d="M 189.660156 101.382812 C 189.660156 101.382812 184.734375 50.167969 205.109375 43.421875 C 220.828125 58.46875 189.660156 101.382812 189.660156 101.382812 Z M 189.660156 101.382812 "/><path style=" stroke:none;fill-rule:nonzero;fill:#eeddcf;fill-opacity:1;" d="M 119.164062 196.113281 C 119.164062 196.113281 126.113281 160.148438 139.605469 160.148438 C 148.375 172.902344 119.164062 196.113281 119.164062 196.113281 Z M 119.164062 196.113281 "/><path style=" stroke:none;fill-rule:nonzero;fill:#eeddcf;fill-opacity:1;" d="M 167.195312 144.632812 C 167.195312 144.632812 131.984375 134.578125 133.128906 121.152344 C 146.621094 113.527344 167.195312 144.632812 167.195312 144.632812 Z M 167.195312 144.632812 "/><path style=" stroke:none;fill-rule:nonzero;fill:#eeddcf;fill-opacity:1;" d="M 185.949219 165.546875 C 185.949219 165.546875 211.71875 139.570312 222.984375 147.128906 C 223.121094 162.578125 185.949219 165.546875 185.949219 165.546875 Z M 185.949219 165.546875 "/><path style=" stroke:none;fill-rule:nonzero;fill:#eeddcf;fill-opacity:1;" d="M 239.851562 194.292969 C 239.851562 194.292969 234.792969 158.53125 247.269531 153.199219 C 260.289062 161.5 239.851562 194.292969 239.851562 194.292969 Z M 239.851562 194.292969 "/><path style=" stroke:none;fill-rule:nonzero;fill:#eeddcf;fill-opacity:1;" d="M 239.917969 220.539062 C 239.917969 220.539062 276.480469 220.945312 278.976562 234.234375 C 267.914062 245.167969 239.917969 220.539062 239.917969 220.539062 Z M 239.917969 220.539062 "/><path style=" stroke:none;fill-rule:nonzero;fill:#eeddcf;fill-opacity:1;" d="M 226.898438 283.625 C 226.898438 283.625 242.007812 250.292969 255.097656 253.398438 C 260.695312 267.835938 226.898438 283.625 226.898438 283.625 Z M 226.898438 283.625 "/><path style=" stroke:none;fill-rule:nonzero;fill:#eeddcf;fill-opacity:1;" d="M 220.152344 303.328125 C 220.152344 303.328125 248.214844 326.808594 241.671875 338.683594 C 226.222656 340.167969 220.152344 303.328125 220.152344 303.328125 Z M 220.152344 303.328125 "/><path style=" stroke:none;fill-rule:nonzero;fill:#eeddcf;fill-opacity:1;" d="M 93.195312 193.550781 C 93.195312 193.550781 67.425781 215.546875 56.765625 207.3125 C 57.710938 191.863281 93.195312 193.550781 93.195312 193.550781 Z M 93.195312 193.550781 "/><path style=" stroke:none;fill-rule:nonzero;fill:#deb867;fill-opacity:1;" d="M 71.875 118.789062 C 71.132812 118.789062 70.390625 118.316406 70.191406 117.574219 C 69.851562 116.628906 70.390625 115.550781 71.335938 115.214844 C 72.28125 114.875 73.292969 115.347656 73.628906 116.292969 L 73.699219 116.496094 C 74.035156 117.441406 73.496094 118.453125 72.550781 118.789062 C 72.28125 118.789062 72.078125 118.789062 71.875 118.789062 Z M 69.378906 111.839844 C 68.636719 111.839844 67.964844 111.367188 67.695312 110.691406 C 67.355469 109.746094 67.761719 108.601562 68.707031 108.261719 C 69.648438 107.925781 70.660156 108.332031 71 109.207031 L 71.066406 109.410156 C 71.402344 110.355469 70.933594 111.367188 69.988281 111.773438 C 69.785156 111.773438 69.582031 111.839844 69.378906 111.839844 Z M 66.882812 104.820312 C 66.140625 104.820312 65.46875 104.351562 65.199219 103.609375 C 64.859375 102.664062 65.332031 101.515625 66.210938 101.179688 C 67.152344 100.839844 68.167969 101.246094 68.503906 102.191406 L 68.570312 102.394531 C 68.90625 103.335938 68.4375 104.351562 67.492188 104.6875 C 67.289062 104.820312 67.085938 104.820312 66.882812 104.820312 Z M 64.320312 97.871094 C 63.578125 97.871094 62.902344 97.398438 62.632812 96.726562 C 62.296875 95.78125 62.703125 94.632812 63.644531 94.296875 C 64.589844 93.890625 65.601562 94.363281 65.941406 95.242188 L 66.007812 95.445312 C 66.34375 96.386719 65.871094 97.398438 64.929688 97.804688 C 64.792969 97.804688 64.523438 97.871094 64.320312 97.871094 Z M 61.824219 90.855469 C 61.082031 90.855469 60.410156 90.382812 60.136719 89.707031 C 59.800781 88.761719 60.207031 87.617188 61.148438 87.277344 C 62.09375 86.941406 63.105469 87.347656 63.445312 88.222656 L 63.511719 88.425781 C 63.847656 89.371094 63.375 90.382812 62.433594 90.789062 C 62.230469 90.855469 62.027344 90.855469 61.824219 90.855469 Z M 61.824219 90.855469 "/><path style=" stroke:none;fill-rule:nonzero;fill:#deb867;fill-opacity:1;" d="M 92.183594 117.167969 C 91.910156 117.167969 91.574219 117.101562 91.304688 116.96875 C 90.425781 116.496094 90.089844 115.414062 90.5625 114.539062 C 91.035156 113.660156 92.183594 113.257812 93.058594 113.730469 C 93.9375 114.199219 94.339844 115.214844 93.867188 116.089844 L 93.800781 116.226562 C 93.464844 116.832031 92.855469 117.167969 92.183594 117.167969 Z M 95.757812 110.625 C 95.488281 110.625 95.148438 110.558594 94.878906 110.421875 C 94.003906 109.949219 93.664062 108.871094 94.136719 107.992188 C 94.609375 107.117188 95.757812 106.710938 96.632812 107.183594 C 97.511719 107.65625 97.914062 108.667969 97.445312 109.546875 L 97.375 109.679688 C 97.039062 110.289062 96.363281 110.625 95.757812 110.625 Z M 99.265625 104.078125 C 98.925781 104.078125 98.65625 104.011719 98.386719 103.808594 C 97.511719 103.335938 97.242188 102.191406 97.714844 101.3125 C 98.1875 100.4375 99.332031 100.097656 100.210938 100.570312 C 101.085938 101.042969 101.421875 102.125 100.882812 102.933594 L 100.816406 103.066406 C 100.480469 103.808594 99.871094 104.078125 99.265625 104.078125 Z M 102.839844 97.601562 C 102.570312 97.601562 102.234375 97.535156 101.964844 97.398438 C 101.085938 96.929688 100.75 95.847656 101.222656 94.972656 C 101.695312 94.09375 102.839844 93.6875 103.71875 94.160156 C 104.59375 94.632812 105 95.644531 104.527344 96.523438 L 104.460938 96.65625 C 104.054688 97.265625 103.449219 97.601562 102.839844 97.601562 Z M 102.839844 97.601562 "/><path style=" stroke:none;fill-rule:nonzero;fill:#deb867;fill-opacity:1;" d="M 51.707031 130.058594 C 51.367188 130.058594 51.03125 129.988281 50.761719 129.789062 C 49.882812 129.246094 49.546875 128.101562 50.085938 127.222656 C 50.625 126.347656 51.636719 126.078125 52.515625 126.546875 L 52.648438 126.617188 C 53.527344 127.15625 53.796875 128.234375 53.257812 129.113281 C 52.851562 129.71875 52.3125 130.058594 51.707031 130.058594 Z M 45.296875 126.210938 C 44.960938 126.210938 44.621094 126.144531 44.351562 125.941406 C 43.476562 125.402344 43.136719 124.253906 43.679688 123.378906 C 44.21875 122.5 45.230469 122.230469 46.105469 122.703125 L 46.242188 122.769531 C 47.117188 123.308594 47.386719 124.390625 46.847656 125.265625 C 46.511719 125.941406 45.90625 126.210938 45.296875 126.210938 Z M 38.957031 122.433594 C 38.617188 122.433594 38.347656 122.367188 38.011719 122.164062 C 37.132812 121.625 36.796875 120.476562 37.269531 119.667969 C 37.742188 118.789062 38.820312 118.453125 39.699219 118.992188 L 39.832031 119.058594 C 40.710938 119.597656 40.980469 120.679688 40.441406 121.554688 C 40.171875 122.09375 39.5625 122.433594 38.957031 122.433594 Z M 32.613281 118.585938 C 32.277344 118.585938 32.007812 118.519531 31.671875 118.316406 C 30.792969 117.777344 30.457031 116.628906 30.929688 115.820312 C 31.402344 114.941406 32.480469 114.605469 33.355469 115.144531 L 33.492188 115.214844 C 34.367188 115.753906 34.640625 116.832031 34.097656 117.710938 C 33.828125 118.25 33.222656 118.585938 32.613281 118.585938 Z M 32.613281 118.585938 "/><path style=" stroke:none;fill-rule:nonzero;fill:#deb867;fill-opacity:1;" d="M 193.777344 90.046875 C 193.640625 90.046875 193.4375 90.046875 193.304688 89.976562 C 192.359375 89.707031 191.75 88.695312 192.089844 87.75 C 192.359375 86.808594 193.371094 86.199219 194.382812 86.402344 C 195.328125 86.671875 195.933594 87.617188 195.664062 88.5625 L 195.597656 88.761719 C 195.328125 89.503906 194.585938 90.046875 193.777344 90.046875 Z M 195.800781 82.894531 C 195.664062 82.894531 195.460938 82.894531 195.328125 82.824219 C 194.382812 82.554688 193.777344 81.542969 194.113281 80.597656 C 194.382812 79.65625 195.394531 79.046875 196.40625 79.25 C 197.351562 79.519531 197.957031 80.464844 197.6875 81.410156 L 197.621094 81.613281 C 197.285156 82.355469 196.542969 82.894531 195.800781 82.894531 Z M 197.753906 75.742188 C 197.621094 75.742188 197.417969 75.742188 197.285156 75.671875 C 196.339844 75.402344 195.730469 74.390625 196.070312 73.445312 C 196.339844 72.503906 197.417969 71.828125 198.363281 72.097656 C 199.308594 72.367188 199.914062 73.3125 199.644531 74.257812 L 199.578125 74.460938 C 199.238281 75.203125 198.566406 75.742188 197.753906 75.742188 Z M 199.710938 68.589844 C 199.578125 68.589844 199.441406 68.589844 199.308594 68.523438 C 198.363281 68.25 197.753906 67.308594 197.957031 66.363281 C 198.160156 65.417969 199.171875 64.675781 200.183594 64.945312 C 201.128906 65.214844 201.734375 66.09375 201.535156 67.039062 L 201.464844 67.238281 C 201.265625 67.980469 200.523438 68.589844 199.710938 68.589844 Z M 201.734375 61.4375 C 201.601562 61.4375 201.398438 61.4375 201.265625 61.371094 C 200.320312 61.097656 199.710938 60.085938 200.050781 59.144531 C 200.320312 58.199219 201.398438 57.589844 202.34375 57.792969 C 203.289062 58.0625 203.894531 59.007812 203.625 59.953125 L 203.558594 60.15625 C 203.21875 60.898438 202.476562 61.4375 201.734375 61.4375 Z M 203.691406 54.285156 C 203.558594 54.285156 203.355469 54.285156 203.21875 54.21875 C 202.277344 53.949219 201.667969 52.933594 202.003906 51.992188 C 202.277344 51.046875 203.289062 50.371094 204.300781 50.640625 C 205.242188 50.910156 205.851562 51.855469 205.582031 52.800781 L 205.511719 53.003906 C 205.175781 53.746094 204.5 54.285156 203.691406 54.285156 Z M 203.691406 54.285156 "/><path style=" stroke:none;fill-rule:nonzero;fill:#deb867;fill-opacity:1;" d="M 175.628906 88.222656 C 174.953125 88.222656 174.347656 87.886719 174.011719 87.277344 C 173.539062 86.402344 173.875 85.1875 174.753906 84.78125 C 175.628906 84.308594 176.707031 84.582031 177.179688 85.457031 L 177.25 85.59375 C 177.71875 86.46875 177.382812 87.550781 176.507812 88.019531 C 176.234375 88.15625 175.898438 88.222656 175.628906 88.222656 Z M 172.257812 81.613281 C 171.582031 81.613281 170.972656 81.273438 170.636719 80.667969 C 170.164062 79.789062 170.503906 78.574219 171.378906 78.171875 C 172.257812 77.699219 173.335938 77.96875 173.808594 78.84375 L 173.875 78.980469 C 174.347656 79.855469 174.011719 80.9375 173.132812 81.410156 C 172.796875 81.542969 172.527344 81.613281 172.257812 81.613281 Z M 168.816406 75 C 168.140625 75 167.535156 74.660156 167.195312 74.054688 C 166.722656 73.175781 166.996094 72.03125 167.871094 71.558594 C 168.75 71.085938 169.828125 71.355469 170.300781 72.234375 L 170.367188 72.367188 C 170.839844 73.246094 170.503906 74.324219 169.625 74.796875 C 169.421875 74.929688 169.152344 75 168.816406 75 Z M 165.441406 68.386719 C 164.769531 68.386719 164.160156 68.050781 163.824219 67.441406 C 163.351562 66.566406 163.621094 65.417969 164.5 64.945312 C 165.375 64.472656 166.453125 64.742188 166.925781 65.621094 L 167.0625 65.753906 C 167.535156 66.632812 167.195312 67.710938 166.320312 68.183594 C 166.050781 68.320312 165.710938 68.386719 165.441406 68.386719 Z M 162.070312 61.84375 C 161.394531 61.84375 160.789062 61.503906 160.449219 60.898438 C 159.976562 60.019531 160.316406 58.804688 161.191406 58.402344 C 162.070312 57.929688 163.148438 58.199219 163.621094 59.074219 L 163.6875 59.210938 C 164.160156 60.085938 163.824219 61.167969 162.945312 61.640625 C 162.609375 61.773438 162.339844 61.84375 162.070312 61.84375 Z M 162.070312 61.84375 "/><path style=" stroke:none;fill-rule:nonzero;fill:#deb867;fill-opacity:1;" d="M 207.941406 98.882812 C 207.269531 98.882812 206.660156 98.546875 206.324219 97.871094 C 205.851562 96.996094 206.253906 95.914062 207.132812 95.445312 C 208.007812 94.972656 209.15625 95.308594 209.628906 96.1875 C 210.101562 97.0625 209.832031 98.140625 208.886719 98.546875 L 208.75 98.613281 C 208.480469 98.816406 208.210938 98.882812 207.941406 98.882812 Z M 214.554688 95.578125 C 213.878906 95.578125 213.203125 95.171875 212.933594 94.566406 C 212.53125 93.6875 212.867188 92.609375 213.8125 92.136719 C 214.6875 91.734375 215.902344 92.070312 216.308594 92.945312 C 216.710938 93.824219 216.441406 94.902344 215.566406 95.308594 L 215.429688 95.375 C 215.09375 95.511719 214.824219 95.578125 214.554688 95.578125 Z M 221.230469 92.339844 C 220.558594 92.339844 219.882812 91.933594 219.613281 91.328125 C 219.207031 90.449219 219.546875 89.371094 220.488281 88.898438 C 221.367188 88.492188 222.511719 88.832031 222.984375 89.707031 C 223.390625 90.585938 223.121094 91.664062 222.242188 92.070312 L 222.109375 92.136719 C 221.769531 92.273438 221.5 92.339844 221.230469 92.339844 Z M 227.910156 89.101562 C 227.234375 89.101562 226.5625 88.695312 226.292969 88.089844 C 225.886719 87.210938 226.222656 86.132812 227.167969 85.660156 C 228.046875 85.253906 229.191406 85.59375 229.664062 86.46875 C 230.070312 87.347656 229.800781 88.425781 228.921875 88.832031 L 228.789062 88.898438 C 228.449219 89.035156 228.179688 89.101562 227.910156 89.101562 Z M 234.589844 85.792969 C 233.914062 85.792969 233.238281 85.390625 232.96875 84.78125 C 232.566406 83.90625 232.902344 82.824219 233.847656 82.355469 C 234.722656 81.949219 235.9375 82.285156 236.34375 83.164062 C 236.746094 84.039062 236.476562 85.121094 235.601562 85.523438 L 235.464844 85.59375 C 235.128906 85.792969 234.859375 85.792969 234.589844 85.792969 Z M 234.589844 85.792969 "/><path style=" stroke:none;fill-rule:nonzero;fill:#deb867;fill-opacity:1;" d="M 281.878906 168.042969 C 281.609375 168.042969 281.339844 167.976562 281.136719 167.84375 C 280.257812 167.4375 279.855469 166.359375 280.257812 165.414062 C 280.664062 164.535156 281.808594 163.996094 282.6875 164.46875 C 283.5625 164.875 284.035156 165.886719 283.632812 166.761719 L 283.5625 166.898438 C 283.160156 167.640625 282.550781 168.042969 281.878906 168.042969 Z M 284.847656 161.230469 C 284.578125 161.230469 284.375 161.164062 284.171875 161.09375 C 283.226562 160.691406 282.824219 159.609375 283.226562 158.734375 C 283.632812 157.789062 284.710938 157.316406 285.65625 157.722656 C 286.601562 158.125 287.070312 159.070312 286.667969 160.015625 L 286.601562 160.148438 C 286.195312 160.824219 285.519531 161.230469 284.847656 161.230469 Z M 287.8125 154.484375 C 287.542969 154.484375 287.34375 154.414062 287.140625 154.347656 C 286.195312 153.941406 285.789062 152.863281 286.195312 151.984375 C 286.601562 151.042969 287.679688 150.570312 288.625 150.972656 C 289.566406 151.378906 290.039062 152.324219 289.636719 153.269531 L 289.566406 153.402344 C 289.164062 154.011719 288.488281 154.484375 287.8125 154.484375 Z M 290.78125 147.667969 C 290.511719 147.667969 290.308594 147.601562 290.109375 147.53125 C 289.164062 147.128906 288.757812 146.046875 289.164062 145.171875 C 289.566406 144.226562 290.648438 143.753906 291.59375 144.160156 C 292.535156 144.5625 293.007812 145.507812 292.605469 146.453125 L 292.535156 146.589844 C 292.199219 147.261719 291.523438 147.667969 290.78125 147.667969 Z M 293.75 140.851562 C 293.480469 140.851562 293.277344 140.785156 293.074219 140.71875 C 292.132812 140.3125 291.726562 139.234375 292.132812 138.355469 C 292.535156 137.410156 293.617188 136.941406 294.558594 137.34375 C 295.503906 137.75 295.976562 138.695312 295.570312 139.636719 L 295.503906 139.773438 C 295.167969 140.449219 294.492188 140.851562 293.75 140.851562 Z M 296.785156 134.039062 C 296.515625 134.039062 296.3125 133.96875 296.113281 133.902344 C 295.167969 133.5 294.761719 132.417969 295.167969 131.542969 C 295.570312 130.597656 296.652344 130.125 297.597656 130.53125 C 298.539062 130.933594 299.011719 131.878906 298.609375 132.824219 L 298.539062 132.957031 C 298.136719 133.632812 297.460938 134.039062 296.785156 134.039062 Z M 296.785156 134.039062 "/><path style=" stroke:none;fill-rule:nonzero;fill:#deb867;fill-opacity:1;" d="M 316.621094 201.039062 C 316.417969 201.039062 316.148438 200.972656 315.945312 200.902344 C 315 200.566406 314.460938 199.417969 314.867188 198.542969 C 315.203125 197.597656 316.214844 197.125 317.160156 197.464844 L 317.363281 197.53125 C 318.304688 197.867188 318.777344 198.949219 318.375 199.890625 C 318.035156 200.632812 317.363281 201.039062 316.621094 201.039062 Z M 309.738281 198.273438 C 309.535156 198.273438 309.265625 198.207031 309.0625 198.136719 C 308.121094 197.734375 307.648438 196.652344 307.984375 195.707031 C 308.390625 194.765625 309.332031 194.292969 310.277344 194.695312 L 310.414062 194.765625 C 311.359375 195.167969 311.761719 196.179688 311.425781 197.125 C 311.15625 197.867188 310.480469 198.273438 309.738281 198.273438 Z M 302.859375 195.507812 C 302.65625 195.507812 302.386719 195.4375 302.183594 195.371094 C 301.238281 195.035156 300.699219 193.886719 301.105469 193.011719 C 301.441406 192.066406 302.386719 191.59375 303.398438 191.929688 L 303.601562 191.996094 C 304.542969 192.335938 305.015625 193.414062 304.613281 194.359375 C 304.273438 195.101562 303.601562 195.507812 302.859375 195.507812 Z M 295.976562 192.738281 C 295.773438 192.738281 295.503906 192.671875 295.300781 192.605469 C 294.359375 192.265625 293.816406 191.121094 294.222656 190.242188 C 294.558594 189.296875 295.570312 188.828125 296.515625 189.164062 L 296.71875 189.230469 C 297.664062 189.570312 298.136719 190.648438 297.730469 191.59375 C 297.394531 192.265625 296.71875 192.738281 295.976562 192.738281 Z M 295.976562 192.738281 "/><path style=" stroke:none;fill-rule:nonzero;fill:#deb867;fill-opacity:1;" d="M 285.859375 278.835938 C 285.453125 278.835938 284.980469 278.699219 284.644531 278.363281 C 283.902344 277.6875 283.835938 276.542969 284.507812 275.800781 C 285.183594 275.058594 286.398438 274.921875 287.140625 275.597656 C 287.882812 276.273438 288.015625 277.351562 287.34375 278.09375 L 287.207031 278.226562 C 286.871094 278.632812 286.398438 278.835938 285.859375 278.835938 Z M 290.851562 273.304688 C 290.445312 273.304688 289.972656 273.167969 289.636719 272.832031 C 288.894531 272.15625 288.824219 271.007812 289.5 270.265625 C 290.175781 269.523438 291.390625 269.390625 292.132812 270.0625 C 292.875 270.738281 293.007812 271.820312 292.335938 272.5625 L 292.199219 272.695312 C 291.863281 273.101562 291.320312 273.304688 290.851562 273.304688 Z M 295.84375 267.835938 C 295.371094 267.835938 294.964844 267.703125 294.628906 267.367188 C 293.886719 266.691406 293.886719 265.542969 294.558594 264.800781 C 295.234375 264.058594 296.449219 263.992188 297.191406 264.667969 C 297.933594 265.339844 298 266.421875 297.324219 267.164062 L 297.191406 267.296875 C 296.785156 267.636719 296.3125 267.835938 295.84375 267.835938 Z M 300.832031 262.304688 C 300.429688 262.304688 299.957031 262.167969 299.621094 261.832031 C 298.878906 261.15625 298.808594 260.011719 299.484375 259.269531 C 300.160156 258.527344 301.375 258.390625 302.117188 259.066406 C 302.859375 259.742188 302.992188 260.820312 302.316406 261.5625 L 302.183594 261.699219 C 301.777344 262.101562 301.304688 262.304688 300.832031 262.304688 Z M 305.824219 256.839844 C 305.421875 256.839844 304.949219 256.703125 304.613281 256.367188 C 303.871094 255.691406 303.800781 254.546875 304.476562 253.804688 C 305.152344 253.0625 306.367188 252.925781 307.109375 253.601562 C 307.851562 254.277344 307.984375 255.355469 307.308594 256.097656 L 307.175781 256.230469 C 306.769531 256.636719 306.296875 256.839844 305.824219 256.839844 Z M 305.824219 256.839844 "/><path style=" stroke:none;fill-rule:nonzero;fill:#deb867;fill-opacity:1;" d="M 306.097656 326.539062 C 305.625 326.539062 305.082031 326.335938 304.746094 325.933594 C 304.070312 325.191406 304.070312 323.976562 304.8125 323.300781 C 305.554688 322.625 306.636719 322.625 307.308594 323.367188 L 307.445312 323.503906 C 308.121094 324.246094 308.050781 325.390625 307.308594 326.066406 C 306.972656 326.335938 306.566406 326.539062 306.097656 326.539062 Z M 301.171875 321.007812 C 300.699219 321.007812 300.160156 320.804688 299.820312 320.398438 C 299.148438 319.65625 299.148438 318.441406 299.890625 317.769531 C 300.632812 317.09375 301.710938 317.09375 302.386719 317.835938 L 302.519531 317.96875 C 303.195312 318.710938 303.128906 319.859375 302.386719 320.535156 C 302.046875 320.804688 301.644531 321.007812 301.171875 321.007812 Z M 296.246094 315.472656 C 295.773438 315.472656 295.234375 315.269531 294.898438 314.867188 C 294.222656 314.125 294.222656 312.910156 294.964844 312.234375 C 295.707031 311.558594 296.785156 311.558594 297.460938 312.300781 L 297.597656 312.4375 C 298.269531 313.179688 298.203125 314.328125 297.460938 315 C 297.125 315.269531 296.652344 315.472656 296.246094 315.472656 Z M 291.320312 309.941406 C 290.851562 309.941406 290.308594 309.738281 289.972656 309.332031 C 289.296875 308.589844 289.296875 307.375 290.039062 306.703125 C 290.78125 306.027344 291.863281 306.027344 292.535156 306.769531 L 292.671875 306.90625 C 293.347656 307.648438 293.277344 308.792969 292.535156 309.46875 C 292.132812 309.738281 291.726562 309.941406 291.320312 309.941406 Z M 291.320312 309.941406 "/><path style=" stroke:none;fill-rule:nonzero;fill:#deb867;fill-opacity:1;" d="M 268.25 296.445312 C 268.25 296.445312 307.242188 253.0625 350.347656 287.269531 C 320.261719 327.890625 268.25 296.445312 268.25 296.445312 Z M 268.25 296.445312 "/><g clip-rule="nonzero" clip-path="url(#ddbfb9342b)"><path style=" stroke:none;fill-rule:nonzero;fill:#a49180;fill-opacity:1;" d="M 309.332031 308.859375 C 287.410156 308.859375 268.117188 297.390625 267.777344 297.1875 C 267.578125 297.054688 267.375 296.785156 267.375 296.582031 C 267.304688 296.3125 267.441406 296.042969 267.578125 295.839844 C 267.980469 295.433594 307.648438 252.25 350.890625 286.527344 C 351.292969 286.863281 351.359375 287.40625 351.023438 287.742188 C 339.082031 303.9375 323.636719 308.859375 309.332031 308.859375 Z M 269.667969 296.175781 C 276.886719 300.15625 322.015625 322.828125 349.066406 287.335938 C 310.75 257.648438 275.335938 290.507812 269.667969 296.175781 Z M 269.667969 296.175781 "/></g><path style=" stroke:none;fill-rule:nonzero;fill:#eeddcf;fill-opacity:1;" d="M 277.558594 295.097656 C 277.558594 295.097656 323.835938 272.628906 337.261719 289.292969 C 328.628906 309.265625 277.558594 295.097656 277.558594 295.097656 Z M 277.558594 295.097656 "/><path style=" stroke:none;fill-rule:nonzero;fill:#deb867;fill-opacity:1;" d="M 297.933594 295.703125 C 297.054688 295.703125 296.246094 295.03125 296.113281 294.085938 C 295.976562 293.074219 296.71875 292.195312 297.664062 292.058594 C 298.609375 291.925781 299.621094 292.601562 299.753906 293.613281 C 299.890625 294.625 299.28125 295.5 298.269531 295.636719 L 298.066406 295.636719 C 298.066406 295.703125 298 295.703125 297.933594 295.703125 Z M 305.285156 294.828125 C 304.34375 294.828125 303.601562 294.152344 303.464844 293.207031 C 303.328125 292.195312 304.070312 291.316406 305.082031 291.183594 C 306.097656 291.117188 307.039062 291.789062 307.175781 292.734375 C 307.308594 293.746094 306.703125 294.625 305.691406 294.757812 L 305.488281 294.757812 C 305.421875 294.828125 305.355469 294.828125 305.285156 294.828125 Z M 312.707031 294.015625 C 311.761719 294.015625 311.019531 293.34375 310.886719 292.398438 C 310.816406 291.386719 311.492188 290.507812 312.503906 290.441406 C 313.382812 290.375 314.460938 291.046875 314.59375 292.058594 C 314.664062 293.074219 314.054688 293.949219 313.042969 294.015625 L 312.839844 294.015625 C 312.773438 294.015625 312.707031 294.015625 312.707031 294.015625 Z M 320.058594 293.140625 C 319.183594 293.140625 318.375 292.464844 318.238281 291.519531 C 318.105469 290.507812 318.84375 289.632812 319.789062 289.496094 C 320.800781 289.363281 321.746094 290.035156 321.882812 291.046875 C 322.015625 292.058594 321.410156 292.9375 320.398438 293.074219 L 320.195312 293.074219 C 320.195312 293.140625 320.128906 293.140625 320.058594 293.140625 Z M 327.414062 292.332031 C 326.535156 292.332031 325.726562 291.65625 325.589844 290.710938 C 325.457031 289.699219 326.199219 288.820312 327.144531 288.6875 C 328.019531 288.550781 329.097656 289.226562 329.234375 290.238281 C 329.371094 291.25 328.761719 292.128906 327.75 292.261719 L 327.546875 292.261719 C 327.546875 292.261719 327.480469 292.332031 327.414062 292.332031 Z M 327.414062 292.332031 "/><path style=" stroke:none;fill-rule:nonzero;fill:#efb5b4;fill-opacity:1;" d="M 63.445312 206.503906 C 62.703125 206.503906 61.960938 206.097656 61.691406 205.355469 C 61.351562 204.414062 61.691406 203.402344 62.632812 203.0625 L 62.835938 202.996094 C 63.78125 202.589844 64.792969 203.0625 65.199219 204.007812 C 65.535156 204.953125 65.128906 205.964844 64.1875 206.371094 C 63.917969 206.503906 63.714844 206.503906 63.445312 206.503906 Z M 70.390625 203.804688 C 69.648438 203.804688 68.90625 203.402344 68.636719 202.660156 C 68.300781 201.714844 68.636719 200.703125 69.582031 200.363281 L 69.785156 200.296875 C 70.730469 199.890625 71.742188 200.363281 72.144531 201.308594 C 72.484375 202.253906 72.078125 203.265625 71.132812 203.671875 C 70.863281 203.738281 70.59375 203.804688 70.390625 203.804688 Z M 77.273438 201.105469 C 76.53125 201.105469 75.789062 200.703125 75.519531 199.960938 C 75.183594 199.015625 75.519531 198.003906 76.464844 197.664062 L 76.597656 197.597656 C 77.542969 197.261719 78.554688 197.664062 78.960938 198.609375 C 79.296875 199.554688 78.890625 200.566406 77.949219 200.972656 C 77.746094 201.039062 77.476562 201.105469 77.273438 201.105469 Z M 84.152344 198.339844 C 83.410156 198.339844 82.667969 197.933594 82.398438 197.191406 C 82.0625 196.25 82.398438 195.238281 83.34375 194.898438 L 83.546875 194.832031 C 84.492188 194.425781 85.503906 194.898438 85.90625 195.84375 C 86.246094 196.789062 85.839844 197.800781 84.894531 198.207031 C 84.625 198.339844 84.421875 198.339844 84.152344 198.339844 Z M 84.152344 198.339844 "/><path style=" stroke:none;fill-rule:nonzero;fill:#efb5b4;fill-opacity:1;" d="M 126.316406 186.800781 C 126.046875 186.800781 125.710938 186.734375 125.4375 186.601562 C 124.5625 186.128906 124.226562 185.046875 124.695312 184.171875 C 125.167969 183.292969 126.316406 182.890625 127.191406 183.359375 C 128.070312 183.832031 128.40625 184.84375 127.933594 185.722656 L 127.867188 185.859375 C 127.53125 186.464844 126.921875 186.800781 126.316406 186.800781 Z M 129.824219 180.324219 C 129.554688 180.324219 129.21875 180.257812 128.945312 180.121094 C 128.070312 179.648438 127.734375 178.570312 128.203125 177.691406 C 128.675781 176.816406 129.824219 176.410156 130.699219 176.882812 C 131.578125 177.355469 131.984375 178.367188 131.511719 179.246094 L 131.441406 179.378906 C 131.105469 179.988281 130.5 180.324219 129.824219 180.324219 Z M 133.398438 173.78125 C 133.128906 173.78125 132.792969 173.710938 132.523438 173.578125 C 131.644531 173.105469 131.308594 172.027344 131.78125 171.148438 C 132.253906 170.269531 133.398438 169.867188 134.277344 170.339844 C 135.152344 170.8125 135.558594 171.824219 135.085938 172.699219 L 135.019531 172.835938 C 134.679688 173.441406 134.074219 173.78125 133.398438 173.78125 Z M 136.976562 167.300781 C 136.703125 167.300781 136.367188 167.234375 136.097656 167.101562 C 135.222656 166.628906 134.882812 165.546875 135.355469 164.671875 C 135.828125 163.792969 136.976562 163.390625 137.851562 163.863281 C 138.730469 164.332031 139.132812 165.347656 138.660156 166.222656 L 138.59375 166.359375 C 138.257812 166.964844 137.582031 167.300781 136.976562 167.300781 Z M 136.976562 167.300781 "/><path style=" stroke:none;fill-rule:nonzero;fill:#efb5b4;fill-opacity:1;" d="M 155.929688 139.503906 C 155.527344 139.503906 155.121094 139.367188 154.785156 139.097656 C 153.972656 138.492188 153.839844 137.277344 154.445312 136.46875 C 155.054688 135.65625 156.132812 135.523438 156.941406 136.128906 L 157.078125 136.265625 C 157.886719 136.871094 157.953125 138.019531 157.347656 138.828125 C 156.941406 139.300781 156.46875 139.503906 155.929688 139.503906 Z M 150.0625 134.914062 C 149.65625 134.914062 149.253906 134.78125 148.914062 134.511719 C 148.105469 133.902344 147.96875 132.6875 148.578125 131.878906 C 149.183594 131.070312 150.265625 130.933594 151.074219 131.542969 L 151.207031 131.675781 C 152.019531 132.285156 152.085938 133.429688 151.480469 134.242188 C 151.140625 134.714844 150.601562 134.914062 150.0625 134.914062 Z M 144.261719 130.328125 C 143.855469 130.328125 143.449219 130.191406 143.113281 129.921875 C 142.304688 129.316406 142.167969 128.101562 142.777344 127.289062 C 143.382812 126.480469 144.460938 126.347656 145.273438 126.953125 L 145.40625 127.089844 C 146.214844 127.695312 146.285156 128.84375 145.675781 129.652344 C 145.273438 130.125 144.800781 130.328125 144.261719 130.328125 Z M 138.390625 125.738281 C 137.988281 125.738281 137.582031 125.605469 137.246094 125.335938 C 136.433594 124.726562 136.300781 123.511719 136.90625 122.703125 C 137.515625 121.894531 138.59375 121.757812 139.402344 122.367188 L 139.539062 122.5 C 140.347656 123.109375 140.414062 124.253906 139.808594 125.0625 C 139.472656 125.535156 138.929688 125.738281 138.390625 125.738281 Z M 138.390625 125.738281 "/><path style=" stroke:none;fill-rule:nonzero;fill:#efb5b4;fill-opacity:1;" d="M 197.554688 161.363281 C 196.878906 161.363281 196.203125 160.960938 195.933594 160.351562 C 195.53125 159.476562 195.867188 158.394531 196.8125 157.921875 C 197.6875 157.519531 198.835938 157.855469 199.308594 158.734375 C 199.710938 159.609375 199.441406 160.691406 198.566406 161.09375 L 198.429688 161.164062 C 198.09375 161.296875 197.824219 161.363281 197.554688 161.363281 Z M 204.300781 158.195312 C 203.625 158.195312 202.949219 157.789062 202.679688 157.179688 C 202.277344 156.304688 202.613281 155.226562 203.558594 154.753906 C 204.433594 154.347656 205.582031 154.683594 206.054688 155.5625 C 206.457031 156.4375 206.1875 157.519531 205.3125 157.921875 L 205.175781 157.992188 C 204.839844 158.125 204.570312 158.195312 204.300781 158.195312 Z M 210.976562 155.023438 C 210.304688 155.023438 209.628906 154.617188 209.359375 154.011719 C 208.953125 153.132812 209.292969 152.054688 210.234375 151.582031 C 211.113281 151.175781 212.257812 151.515625 212.730469 152.390625 C 213.136719 153.269531 212.867188 154.347656 211.988281 154.753906 L 211.855469 154.820312 C 211.515625 154.953125 211.246094 155.023438 210.976562 155.023438 Z M 217.722656 151.851562 C 217.050781 151.851562 216.375 151.445312 216.105469 150.839844 C 215.699219 149.960938 216.039062 148.882812 216.980469 148.410156 C 217.859375 148.003906 219.003906 148.34375 219.476562 149.21875 C 219.882812 150.097656 219.613281 151.175781 218.734375 151.582031 L 218.601562 151.648438 C 218.261719 151.785156 217.992188 151.851562 217.722656 151.851562 Z M 217.722656 151.851562 "/><path style=" stroke:none;fill-rule:nonzero;fill:#efb5b4;fill-opacity:1;" d="M 242.480469 183.089844 C 242.414062 183.089844 242.277344 183.089844 242.210938 183.089844 C 241.199219 182.957031 240.523438 182.011719 240.726562 181 C 240.863281 179.988281 241.808594 179.246094 242.820312 179.378906 C 243.832031 179.515625 244.503906 180.390625 244.371094 181.335938 L 244.371094 181.539062 C 244.167969 182.417969 243.359375 183.089844 242.480469 183.089844 Z M 243.761719 175.738281 C 243.628906 175.738281 243.5625 175.738281 243.425781 175.667969 C 242.414062 175.464844 241.808594 174.523438 242.007812 173.511719 C 242.210938 172.496094 243.089844 171.824219 244.167969 172.027344 C 245.113281 172.226562 245.785156 173.105469 245.585938 174.050781 L 245.515625 174.253906 C 245.382812 175.128906 244.640625 175.738281 243.761719 175.738281 Z M 245.113281 168.449219 C 245.046875 168.449219 244.910156 168.449219 244.84375 168.449219 C 243.832031 168.316406 243.15625 167.371094 243.359375 166.359375 C 243.5625 165.347656 244.574219 164.605469 245.449219 164.738281 C 246.460938 164.875 247.136719 165.75 247 166.695312 L 247 166.898438 C 246.730469 167.84375 245.988281 168.449219 245.113281 168.449219 Z M 246.394531 161.164062 C 246.328125 161.164062 246.191406 161.164062 246.125 161.164062 C 245.113281 161.027344 244.4375 160.082031 244.640625 159.070312 C 244.773438 158.058594 245.855469 157.316406 246.730469 157.453125 C 247.742188 157.585938 248.417969 158.464844 248.28125 159.40625 L 248.28125 159.609375 C 248.011719 160.488281 247.269531 161.164062 246.394531 161.164062 Z M 246.394531 161.164062 "/><path style=" stroke:none;fill-rule:nonzero;fill:#efb5b4;fill-opacity:1;" d="M 273.714844 234.503906 C 273.511719 234.503906 273.308594 234.503906 273.175781 234.4375 L 272.972656 234.371094 C 272.027344 234.035156 271.554688 233.019531 271.894531 232.078125 C 272.230469 231.132812 273.242188 230.660156 274.1875 230.996094 C 275.132812 231.335938 275.738281 232.414062 275.402344 233.359375 C 275.0625 234.035156 274.457031 234.503906 273.714844 234.503906 Z M 266.699219 231.941406 C 266.496094 231.941406 266.292969 231.941406 266.160156 231.875 L 265.957031 231.808594 C 265.011719 231.46875 264.539062 230.457031 264.878906 229.511719 C 265.214844 228.566406 266.226562 228.097656 267.171875 228.433594 C 268.117188 228.769531 268.722656 229.851562 268.386719 230.792969 C 268.117188 231.46875 267.441406 231.941406 266.699219 231.941406 Z M 259.75 229.445312 C 259.546875 229.445312 259.347656 229.445312 259.210938 229.378906 L 259.007812 229.308594 C 258.066406 228.972656 257.59375 227.960938 257.929688 227.015625 C 258.265625 226.070312 259.277344 225.597656 260.222656 225.9375 C 261.167969 226.273438 261.773438 227.355469 261.4375 228.296875 C 261.167969 228.972656 260.492188 229.445312 259.75 229.445312 Z M 252.804688 226.949219 C 252.601562 226.949219 252.398438 226.949219 252.261719 226.882812 L 252.0625 226.8125 C 251.117188 226.476562 250.644531 225.464844 250.980469 224.519531 C 251.320312 223.574219 252.332031 223.101562 253.273438 223.441406 C 254.21875 223.777344 254.828125 224.855469 254.488281 225.800781 C 254.152344 226.410156 253.476562 226.949219 252.804688 226.949219 Z M 252.804688 226.949219 "/><path style=" stroke:none;fill-rule:nonzero;fill:#efb5b4;fill-opacity:1;" d="M 235.871094 277.214844 C 235.464844 277.214844 235.0625 277.082031 234.722656 276.8125 C 233.914062 276.203125 233.847656 275.058594 234.453125 274.246094 C 235.0625 273.503906 236.273438 273.234375 237.085938 273.910156 C 237.894531 274.515625 238.027344 275.597656 237.421875 276.40625 L 237.285156 276.542969 C 236.882812 277.015625 236.34375 277.214844 235.871094 277.214844 Z M 240.523438 271.480469 C 240.121094 271.480469 239.714844 271.347656 239.378906 271.078125 C 238.570312 270.46875 238.5 269.320312 239.109375 268.511719 C 239.714844 267.703125 240.929688 267.5 241.738281 268.175781 C 242.550781 268.78125 242.683594 269.863281 242.078125 270.671875 L 241.941406 270.804688 C 241.605469 271.210938 241.066406 271.480469 240.523438 271.480469 Z M 245.179688 265.679688 C 244.773438 265.679688 244.371094 265.542969 244.03125 265.273438 C 243.289062 264.597656 243.15625 263.453125 243.832031 262.710938 C 244.503906 261.96875 245.652344 261.765625 246.460938 262.441406 C 247.203125 263.113281 247.40625 264.125 246.730469 264.9375 L 246.597656 265.070312 C 246.191406 265.476562 245.71875 265.679688 245.179688 265.679688 Z M 249.902344 259.941406 C 249.496094 259.941406 249.09375 259.808594 248.753906 259.539062 C 247.945312 258.929688 247.878906 257.785156 248.484375 256.972656 C 249.09375 256.164062 250.308594 255.960938 251.117188 256.636719 C 251.925781 257.246094 252.0625 258.324219 251.453125 259.132812 L 251.320312 259.269531 C 250.914062 259.742188 250.441406 259.941406 249.902344 259.941406 Z M 249.902344 259.941406 "/><path style=" stroke:none;fill-rule:nonzero;fill:#efb5b4;fill-opacity:1;" d="M 234.992188 331.261719 C 234.386719 331.261719 233.777344 330.925781 233.441406 330.386719 C 232.902344 329.507812 233.171875 328.359375 234.050781 327.820312 C 234.925781 327.28125 236.003906 327.550781 236.476562 328.359375 L 236.546875 328.496094 C 237.085938 329.375 236.746094 330.453125 235.9375 330.992188 C 235.601562 331.195312 235.332031 331.261719 234.992188 331.261719 Z M 231.28125 324.851562 C 230.675781 324.851562 230.070312 324.515625 229.730469 323.976562 C 229.191406 323.097656 229.460938 321.949219 230.339844 321.410156 C 231.214844 320.871094 232.296875 321.140625 232.765625 321.949219 L 232.835938 322.085938 C 233.375 322.964844 233.039062 324.042969 232.226562 324.582031 C 231.890625 324.785156 231.554688 324.851562 231.28125 324.851562 Z M 227.503906 318.441406 C 226.898438 318.441406 226.292969 318.105469 225.953125 317.566406 C 225.414062 316.6875 225.683594 315.542969 226.5625 315 C 227.4375 314.460938 228.515625 314.730469 228.988281 315.542969 L 229.058594 315.675781 C 229.597656 316.554688 229.257812 317.632812 228.449219 318.171875 C 228.113281 318.375 227.84375 318.441406 227.503906 318.441406 Z M 223.796875 312.03125 C 223.1875 312.03125 222.582031 311.695312 222.242188 311.15625 C 221.703125 310.277344 221.972656 309.132812 222.851562 308.589844 C 223.726562 308.050781 224.808594 308.320312 225.28125 309.132812 L 225.347656 309.265625 C 225.886719 310.144531 225.550781 311.222656 224.738281 311.761719 C 224.402344 311.964844 224.066406 312.03125 223.796875 312.03125 Z M 223.796875 312.03125 "/><path style=" stroke:none;fill-rule:nonzero;fill:#deb867;fill-opacity:1;" d="M 272.164062 184.84375 C 272.164062 184.84375 295.84375 130.933594 348.054688 148.207031 C 333.820312 196.789062 272.164062 184.84375 272.164062 184.84375 Z M 272.164062 184.84375 "/><path style=" stroke:none;fill-rule:nonzero;fill:#a49180;fill-opacity:1;" d="M 287.949219 187.003906 C 278.707031 187.003906 272.164062 185.789062 271.960938 185.789062 C 271.691406 185.722656 271.488281 185.585938 271.355469 185.316406 C 271.21875 185.046875 271.21875 184.777344 271.355469 184.507812 C 271.625 183.96875 295.910156 130.058594 348.324219 147.398438 C 348.796875 147.53125 349.066406 148.074219 348.933594 148.542969 C 339.21875 181.605469 307.511719 187.003906 287.949219 187.003906 Z M 273.511719 184.171875 C 281.945312 185.453125 333.753906 191.457031 346.976562 148.816406 C 300.765625 134.105469 277.15625 176.75 273.511719 184.171875 Z M 273.511719 184.171875 "/><path style=" stroke:none;fill-rule:nonzero;fill:#eeddcf;fill-opacity:1;" d="M 280.933594 180.730469 C 280.933594 180.730469 317.632812 144.765625 335.710938 156.304688 C 333.820312 177.964844 280.933594 180.730469 280.933594 180.730469 Z M 280.933594 180.730469 "/><path style=" stroke:none;fill-rule:nonzero;fill:#deb867;fill-opacity:1;" d="M 293.144531 176.207031 C 292.46875 176.207031 291.792969 175.804688 291.457031 175.128906 C 291.050781 174.183594 291.457031 173.171875 292.402344 172.769531 C 293.347656 172.363281 294.492188 172.769531 294.898438 173.644531 C 295.300781 174.589844 294.964844 175.601562 294.019531 176.007812 L 293.816406 176.074219 C 293.683594 176.140625 293.414062 176.207031 293.144531 176.207031 Z M 299.957031 173.238281 C 299.28125 173.238281 298.609375 172.835938 298.269531 172.09375 C 297.867188 171.148438 298.339844 170.136719 299.214844 169.730469 C 300.160156 169.328125 301.304688 169.730469 301.644531 170.675781 C 302.046875 171.621094 301.710938 172.632812 300.765625 173.039062 L 300.5625 173.105469 C 300.429688 173.171875 300.226562 173.238281 299.957031 173.238281 Z M 306.769531 170.269531 C 306.097656 170.269531 305.421875 169.867188 305.082031 169.191406 C 304.679688 168.246094 305.082031 167.234375 306.027344 166.832031 C 306.90625 166.425781 308.121094 166.832031 308.457031 167.707031 C 308.863281 168.652344 308.523438 169.664062 307.578125 170.070312 L 307.445312 170.136719 C 307.242188 170.203125 307.039062 170.269531 306.769531 170.269531 Z M 313.582031 167.300781 C 312.910156 167.300781 312.234375 166.898438 311.964844 166.222656 C 311.558594 165.277344 311.964844 164.265625 312.839844 163.792969 C 313.71875 163.390625 314.933594 163.726562 315.335938 164.671875 C 315.742188 165.546875 315.40625 166.628906 314.527344 167.03125 L 314.394531 167.101562 C 314.125 167.234375 313.855469 167.300781 313.582031 167.300781 Z M 320.398438 164.332031 C 319.722656 164.332031 319.046875 163.929688 318.710938 163.253906 C 318.304688 162.308594 318.710938 161.296875 319.65625 160.890625 C 320.597656 160.488281 321.746094 160.890625 322.152344 161.769531 C 322.554688 162.714844 322.21875 163.726562 321.273438 164.132812 L 321.070312 164.199219 C 320.871094 164.332031 320.597656 164.332031 320.398438 164.332031 Z M 327.210938 161.363281 C 326.535156 161.363281 325.863281 160.960938 325.523438 160.285156 C 325.121094 159.339844 325.523438 158.328125 326.46875 157.921875 C 327.34375 157.519531 328.558594 157.921875 328.898438 158.800781 C 329.300781 159.746094 328.964844 160.757812 328.019531 161.164062 L 327.886719 161.230469 C 327.683594 161.363281 327.414062 161.363281 327.210938 161.363281 Z M 327.210938 161.363281 "/></g></svg>