<svg xmlns="http://www.w3.org/2000/svg" xmlns:xlink="http://www.w3.org/1999/xlink" width="500" zoomAndPan="magnify" viewBox="0 0 375 374.999991" height="500" preserveAspectRatio="xMidYMid meet" version="1.2"><defs><clipPath id="f71d7f0b04"><path d="M 45.835938 15.523438 L 329.335938 15.523438 L 329.335938 359 L 45.835938 359 Z M 45.835938 15.523438 "/></clipPath></defs><g id="bac1a10473"><path style=" stroke:none;fill-rule:nonzero;fill:#f18f3e;fill-opacity:1;" d="M 162.695312 208.359375 C 162.691406 208.371094 162.878906 207.902344 162.992188 207.652344 C 163.210938 207.175781 163.457031 206.699219 163.738281 206.234375 C 164.558594 204.886719 165.765625 203.550781 167.332031 202.734375 C 169.269531 201.722656 171.5 201.726562 173.167969 201.8125 C 174.472656 201.882812 175.789062 202.035156 177.097656 202.300781 C 177.890625 202.460938 178.683594 202.664062 179.464844 202.914062 C 181.132812 203.445312 183.246094 204.386719 184.558594 206.210938 C 186.085938 208.328125 186.71875 210.921875 186.976562 213.210938 C 187.210938 215.285156 187.207031 217.957031 185.941406 220.195312 C 184.679688 222.421875 182.691406 224.125 180.738281 225.367188 C 179.246094 226.3125 177.265625 227.335938 175.074219 227.394531 C 174.367188 227.414062 173.679688 227.34375 173.011719 227.207031 C 170.253906 226.652344 167.785156 224.941406 165.90625 223.453125 C 164.632812 222.441406 163.003906 221.042969 162.152344 219.105469 C 161.382812 217.359375 161.320312 215.445312 161.4375 213.859375 C 161.539062 212.53125 161.792969 211.226562 162.148438 209.984375 C 162.308594 209.421875 162.679688 208.402344 162.671875 208.421875 Z M 166.109375 209.738281 L 162.671875 208.421875 L 166.136719 209.675781 C 166.128906 209.695312 165.808594 210.582031 165.691406 210.996094 C 165.390625 212.039062 165.1875 213.09375 165.109375 214.136719 C 165.011719 215.472656 165.105469 216.679688 165.519531 217.621094 C 165.976562 218.652344 166.933594 219.566406 168.195312 220.566406 C 170.007812 222.003906 171.894531 223.222656 173.742188 223.597656 C 174.164062 223.683594 174.574219 223.722656 174.980469 223.710938 C 176.140625 223.679688 177.417969 223.109375 178.761719 222.257812 C 180.433594 221.195312 181.878906 219.890625 182.734375 218.378906 C 183.414062 217.179688 183.527344 215.476562 183.316406 213.625 C 183.09375 211.625 182.570312 209.75 181.570312 208.363281 C 180.96875 207.527344 179.804688 206.886719 178.34375 206.421875 C 177.703125 206.214844 177.042969 206.046875 176.367188 205.910156 C 175.257812 205.6875 174.121094 205.554688 172.972656 205.492188 C 171.355469 205.40625 170.015625 205.488281 169.035156 206 C 168.21875 206.425781 167.460938 207.203125 166.882812 208.152344 C 166.6875 208.46875 166.511719 208.8125 166.347656 209.171875 C 166.273438 209.339844 166.117188 209.726562 166.109375 209.738281 Z M 166.109375 209.738281 "/><path style=" stroke:none;fill-rule:evenodd;fill:#f18f3e;fill-opacity:1;" d="M 184.148438 198.265625 C 186.015625 199.3125 187.714844 200.621094 189.210938 202.003906 C 190.898438 203.5625 192.617188 205.46875 193.746094 207.738281 C 195.960938 205.761719 198.363281 203.742188 201.433594 201.847656 C 205.117188 199.578125 209.734375 197.503906 214.207031 195.496094 L 214.285156 195.460938 C 215.210938 195.042969 216.300781 195.457031 216.71875 196.386719 C 217.132812 197.316406 216.71875 198.40625 215.792969 198.820312 C 211.234375 200.867188 206.824219 202.851562 203.367188 204.984375 C 201.25 206.289062 199.480469 207.660156 197.8125 209.078125 C 203.121094 207.867188 208.511719 206.742188 213.996094 206.121094 C 220.789062 205.355469 227.6875 205.371094 234.464844 205.382812 L 234.515625 205.382812 C 235.535156 205.386719 236.355469 206.214844 236.355469 207.230469 C 236.351562 208.246094 235.527344 209.070312 234.507812 209.066406 C 227.679688 209.054688 220.976562 209.039062 214.410156 209.78125 C 208.421875 210.457031 202.519531 211.765625 196.53125 213.152344 C 199.175781 213.816406 201.988281 214.523438 205.78125 215.464844 C 210.335938 216.59375 216.289062 218.0625 222.265625 219.535156 L 222.371094 219.5625 C 223.359375 219.804688 223.964844 220.804688 223.71875 221.789062 C 223.476562 222.777344 222.480469 223.382812 221.492188 223.136719 C 215.480469 221.65625 209.476562 220.179688 204.894531 219.039062 C 200.859375 218.039062 197.933594 217.304688 195.140625 216.601562 C 194.867188 219.226562 194.066406 221.792969 192.90625 223.984375 C 192.265625 225.195312 191.453125 226.300781 190.511719 227.296875 C 192.921875 229.402344 195.328125 231.492188 197.738281 233.535156 C 200.433594 235.820312 203.140625 238.046875 205.863281 240.285156 C 206.648438 240.929688 206.761719 242.089844 206.117188 242.875 C 205.472656 243.660156 204.3125 243.777344 203.527344 243.128906 C 200.808594 240.894531 198.078125 238.652344 195.355469 236.347656 C 194.074219 235.257812 192.792969 234.160156 191.519531 233.054688 C 193.890625 236.972656 196.316406 240.902344 198.957031 244.914062 C 202.703125 250.613281 206.882812 256.484375 211.089844 262.390625 C 211.679688 263.21875 211.484375 264.371094 210.65625 264.960938 C 209.828125 265.550781 208.679688 265.355469 208.089844 264.527344 L 208.078125 264.515625 C 203.882812 258.625 199.667969 252.699219 195.878906 246.941406 C 193.332031 243.066406 190.976562 239.269531 188.699219 235.507812 C 189.238281 237.425781 189.820312 239.367188 190.5 241.386719 C 191.722656 245.035156 193.265625 248.949219 194.828125 252.917969 C 195.203125 253.863281 194.738281 254.933594 193.789062 255.308594 C 192.84375 255.679688 191.777344 255.214844 191.402344 254.269531 L 191.390625 254.242188 C 189.839844 250.304688 188.265625 246.308594 187.007812 242.558594 C 185.75 238.8125 184.816406 235.328125 183.894531 231.898438 C 182.011719 232.746094 180.042969 233.339844 178.15625 233.660156 C 175.515625 234.113281 172.664062 234.085938 169.933594 233.535156 C 169.90625 233.527344 169.878906 233.523438 169.851562 233.515625 C 169.789062 235.652344 169.71875 237.828125 169.578125 240.304688 C 169.429688 242.957031 169.203125 245.949219 168.976562 248.917969 L 168.976562 248.929688 C 168.898438 249.945312 168.011719 250.703125 167 250.625 C 165.984375 250.550781 165.226562 249.664062 165.304688 248.648438 C 165.53125 245.667969 165.757812 242.710938 165.902344 240.101562 C 165.984375 238.648438 166.042969 237.304688 166.085938 236 C 164.6875 239.644531 163.300781 243.242188 161.984375 246.703125 C 160.15625 251.503906 158.457031 256.023438 156.75 260.558594 C 156.394531 261.511719 155.332031 261.992188 154.378906 261.636719 C 153.425781 261.277344 152.945312 260.214844 153.304688 259.261719 C 155.007812 254.730469 156.710938 250.199219 158.542969 245.394531 L 158.542969 245.390625 C 159.949219 241.695312 161.429688 237.847656 162.925781 233.960938 C 161.9375 235.164062 160.894531 236.476562 159.699219 238.089844 C 157.734375 240.742188 155.351562 244.214844 152.945312 247.722656 C 152.367188 248.5625 151.222656 248.777344 150.382812 248.199219 C 149.546875 247.625 149.332031 246.480469 149.90625 245.640625 L 149.921875 245.617188 C 152.3125 242.132812 154.730469 238.609375 156.742188 235.894531 C 158.667969 233.296875 160.21875 231.441406 161.722656 229.65625 C 159.492188 227.636719 158.128906 224.839844 157.160156 222.40625 C 156.097656 219.742188 155.054688 216.644531 155.09375 213.429688 C 155.109375 212.136719 155.308594 210.867188 155.621094 209.652344 C 153.269531 209.726562 150.769531 209.777344 147.578125 209.734375 C 143.625 209.679688 138.621094 209.476562 133.652344 209.273438 L 133.632812 209.273438 C 132.617188 209.230469 131.828125 208.375 131.867188 207.355469 C 131.910156 206.339844 132.765625 205.550781 133.78125 205.59375 C 138.773438 205.796875 143.730469 205.996094 147.628906 206.050781 C 148.890625 206.070312 150.042969 206.070312 151.121094 206.0625 C 148.96875 205.351562 146.710938 204.492188 144.273438 203.351562 C 139.253906 201.003906 133.507812 197.476562 127.882812 194.023438 L 127.816406 193.980469 C 126.949219 193.449219 126.679688 192.316406 127.210938 191.449219 C 127.742188 190.582031 128.875 190.308594 129.742188 190.839844 C 135.445312 194.34375 141.023438 197.765625 145.832031 200.015625 C 148.863281 201.433594 151.601562 202.390625 154.261719 203.1875 C 153.101562 201.839844 151.859375 200.398438 150.382812 198.664062 C 148.195312 196.097656 145.484375 192.894531 142.777344 189.695312 C 142.117188 188.917969 142.214844 187.757812 142.992188 187.097656 C 143.769531 186.441406 144.929688 186.539062 145.585938 187.316406 L 145.609375 187.339844 C 148.308594 190.53125 151.007812 193.71875 153.183594 196.273438 C 155.296875 198.75 156.917969 200.628906 158.523438 202.488281 C 159.425781 200.722656 160.699219 198.734375 162.644531 197.464844 C 164.949219 195.957031 167.789062 195.699219 169.972656 195.570312 C 171.859375 195.453125 173.808594 195.46875 175.746094 195.683594 C 175.757812 191.375 175.808594 186.910156 176.640625 181.730469 C 177.511719 176.296875 179.238281 170.101562 180.929688 164.042969 L 180.949219 163.972656 C 181.222656 162.992188 182.242188 162.421875 183.21875 162.695312 C 184.199219 162.96875 184.769531 163.984375 184.496094 164.964844 C 182.785156 171.101562 181.113281 177.105469 180.273438 182.316406 C 179.542969 186.878906 179.449219 190.855469 179.433594 194.863281 C 181.726562 187.902344 184.199219 180.800781 188.207031 173.640625 C 192.597656 165.796875 198.800781 157.925781 204.890625 150.203125 L 204.945312 150.128906 C 205.574219 149.332031 206.734375 149.195312 207.53125 149.824219 C 208.328125 150.453125 208.46875 151.613281 207.835938 152.410156 C 201.683594 160.214844 195.65625 167.875 191.421875 175.4375 C 188.089844 181.394531 185.855469 187.320312 183.824219 193.328125 C 187.078125 190.019531 190.292969 186.8125 193.261719 184.164062 C 197.179688 180.667969 200.648438 178.152344 204.050781 175.6875 L 204.066406 175.675781 C 204.890625 175.078125 206.042969 175.261719 206.640625 176.085938 C 207.238281 176.910156 207.054688 178.058594 206.230469 178.65625 C 202.824219 181.128906 199.484375 183.550781 195.714844 186.914062 C 192.148438 190.09375 188.1875 194.128906 184.148438 198.265625 Z M 160.523438 206.949219 L 160.601562 206.773438 C 160.679688 206.601562 160.792969 206.339844 160.863281 206.1875 L 160.964844 205.960938 C 160.992188 205.894531 161.035156 205.800781 161.0625 205.738281 C 161.230469 205.359375 161.394531 205.003906 161.5625 204.65625 C 162.421875 202.871094 163.394531 201.375 164.660156 200.546875 C 166.050781 199.636719 167.964844 199.378906 170.195312 199.246094 C 172.621094 199.097656 175.0625 199.191406 177.367188 199.65625 C 178.066406 199.796875 178.753906 199.972656 179.421875 200.1875 C 182.058594 201.027344 184.535156 202.703125 186.714844 204.710938 C 188.523438 206.382812 190.058594 208.21875 190.820312 210.234375 C 192.195312 213.875 191.582031 218.613281 189.652344 222.261719 C 187.507812 226.3125 182.445312 229.191406 177.535156 230.03125 C 175.339844 230.40625 172.945312 230.382812 170.664062 229.921875 C 168.40625 229.464844 166.320312 228.59375 164.664062 227.316406 C 162.84375 225.917969 161.605469 223.605469 160.582031 221.042969 C 159.546875 218.449219 158.746094 215.925781 158.773438 213.476562 C 158.792969 212.046875 159.121094 210.566406 159.636719 209.109375 C 159.804688 208.632812 159.996094 208.15625 160.203125 207.671875 C 160.300781 207.441406 160.511719 206.972656 160.523438 206.949219 Z M 160.523438 206.949219 "/><path style=" stroke:none;fill-rule:nonzero;fill:#f18f3e;fill-opacity:1;" d="M 212.433594 134.027344 L 212.15625 134.269531 L 212.183594 134.257812 L 212.210938 134.242188 L 212.238281 134.222656 L 212.269531 134.199219 L 212.300781 134.171875 C 212.320312 134.152344 212.34375 134.132812 212.367188 134.109375 C 212.386719 134.082031 212.410156 134.058594 212.433594 134.027344 Z M 212.433594 134.027344 "/><g clip-rule="nonzero" clip-path="url(#f71d7f0b04)"><path style=" stroke:none;fill-rule:evenodd;fill:#f18f3e;fill-opacity:1;" d="M 209.449219 61.78125 C 208.8125 57.835938 208.148438 53.796875 207.085938 49.769531 C 205.984375 45.59375 204.378906 41.113281 200.3125 37.476562 C 198.371094 35.746094 195.933594 34.257812 193.375 32.871094 C 192.042969 32.144531 190.648438 31.433594 189.253906 30.71875 L 189.242188 30.710938 C 187.78125 29.964844 186.316406 29.214844 184.867188 28.425781 C 179.339844 25.421875 174.007812 21.855469 168.59375 18.234375 L 164.542969 15.523438 L 165.855469 20.492188 C 168.5625 30.726562 171.375 41.378906 175.761719 48.152344 C 180.320312 55.191406 186.484375 57.988281 191.921875 59.9375 C 193.734375 60.585938 195.5 61.15625 197.234375 61.667969 C 195.921875 61.777344 194.601562 61.933594 193.273438 62.136719 C 190.488281 62.566406 187.679688 63.210938 184.871094 64.113281 C 175.492188 67.136719 166.066406 73.101562 160.761719 80.539062 C 155.414062 88.035156 154.394531 96.820312 155.308594 103.757812 C 156.222656 110.71875 159.128906 116.175781 163.777344 119.339844 C 168.367188 122.46875 174.34375 123.140625 179.589844 122.511719 C 179.925781 122.46875 180.261719 122.425781 180.589844 122.371094 C 185.5 121.617188 189.972656 119.683594 193.511719 116.734375 C 197.175781 113.679688 200.109375 109.28125 200.101562 105.199219 C 200.09375 100.929688 196.917969 97.800781 193.742188 95.761719 C 191.410156 94.261719 188.386719 92.894531 185.339844 93.363281 C 184.210938 93.539062 183.109375 93.960938 182.085938 94.683594 C 178.714844 97.0625 175.820312 103.246094 176.929688 106.722656 C 177.761719 109.320312 180.390625 109.914062 182.960938 109.894531 C 182.113281 110.621094 181.15625 111.113281 179.902344 111.304688 L 179.898438 111.304688 C 176.800781 111.78125 172.285156 110.480469 170.5 107.808594 C 168.785156 105.242188 169.101562 100.570312 172.121094 95.523438 C 175.0625 90.609375 180.351562 85.820312 186.976562 82.433594 C 191.386719 80.175781 196.359375 78.550781 201.539062 77.753906 C 204.117188 77.359375 206.738281 77.167969 209.363281 77.203125 C 217.246094 77.308594 225.171875 79.46875 232.71875 84.371094 C 240.335938 89.320312 247.472656 97.003906 250.707031 104.59375 C 253.898438 112.085938 253.378906 119.6875 251.972656 129.128906 C 250.566406 138.566406 248.386719 149.105469 243.058594 157.613281 C 238.800781 164.410156 232.484375 170.011719 225.570312 175.496094 C 226.441406 174.148438 227.320312 172.695312 228.222656 171.101562 C 231.871094 164.632812 235.859375 155.746094 237.394531 147.960938 C 237.441406 147.726562 237.484375 147.496094 237.523438 147.265625 C 238.222656 143.402344 238.328125 139.847656 238.425781 136.542969 L 238.425781 136.492188 C 238.519531 133.347656 238.609375 130.453125 239.136719 127.53125 C 240.261719 121.273438 243.421875 114.738281 246.738281 107.898438 L 248.136719 105.015625 L 244.867188 105.265625 C 235.867188 105.949219 226.699219 106.644531 218.109375 108.605469 C 209.425781 110.585938 201.308594 113.859375 192.351562 120.96875 C 183.488281 128.007812 173.734375 138.863281 168.453125 149.042969 C 166.003906 153.765625 164.527344 158.320312 163.578125 162.753906 C 163.503906 159.960938 163.253906 157.035156 162.574219 153.90625 C 161.421875 148.585938 159.054688 142.730469 156.933594 137.738281 C 154.796875 132.71875 152.820312 128.363281 150.28125 123.832031 C 149.835938 123.039062 149.375 122.242188 148.921875 121.457031 L 148.921875 121.453125 C 146.742188 117.683594 144.667969 114.070312 143.800781 110.269531 C 142.746094 105.664062 143.425781 100.636719 144.183594 95.183594 L 145.191406 87.964844 L 140.816406 93.921875 C 138.039062 97.699219 135.121094 101.675781 133.210938 106.050781 C 131.621094 109.683594 130.753906 113.546875 130.03125 117.3125 C 128.367188 116.488281 126.480469 115.570312 123.910156 114.378906 C 123.753906 114.304688 123.601562 114.234375 123.445312 114.164062 L 123.082031 113.996094 C 119.433594 112.308594 114.765625 110.144531 110.277344 107.171875 C 105.441406 103.976562 100.859375 99.863281 97.570312 94.867188 C 94.261719 89.839844 92.285156 83.957031 92.417969 78.804688 C 92.550781 73.683594 94.773438 69.09375 97.488281 65.964844 C 98.039062 65.328125 98.605469 64.757812 99.183594 64.257812 C 101.402344 62.328125 103.714844 61.457031 105.925781 61.546875 C 108.832031 61.671875 111.984375 63.472656 113.992188 65.296875 C 115.980469 67.109375 116.25 68.390625 116.140625 69.03125 C 116.050781 69.566406 115.652344 70.164062 115.050781 70.746094 C 114.777344 69.105469 114.058594 67.425781 112.191406 66.542969 C 109.597656 65.320312 105.316406 65.96875 102.441406 68.46875 C 102.183594 68.691406 101.9375 68.929688 101.703125 69.183594 C 98.835938 72.285156 97.695312 77.890625 100.515625 81.894531 C 103.28125 85.828125 109.402344 87.527344 114.894531 86.632812 C 118.179688 86.09375 121.386719 84.625 123.921875 82.425781 C 125.738281 80.84375 127.230469 78.867188 128.136719 76.5625 C 130.269531 71.121094 128.9375 64.3125 126.597656 59.214844 C 124.203125 53.992188 120.554688 50.097656 115.714844 47.988281 C 110.878906 45.878906 105.039062 45.636719 98.355469 47.835938 C 94.429688 49.128906 90.132812 51.292969 86.378906 54.550781 C 83.769531 56.820312 81.417969 59.625 79.652344 63.035156 C 75.375 71.308594 74.644531 82.949219 78.863281 93.554688 C 83.074219 104.140625 92.195312 113.644531 101.707031 119.042969 C 101.785156 119.085938 101.863281 119.128906 101.941406 119.175781 C 101.984375 119.199219 102.027344 119.222656 102.070312 119.246094 C 105.125 120.945312 108.214844 122.226562 111.253906 123.339844 C 110.882812 123.222656 110.507812 123.101562 110.128906 122.980469 L 109.964844 122.929688 C 103.929688 120.996094 97.03125 118.789062 91.070312 118.644531 C 89.550781 118.605469 88.101562 118.703125 86.707031 118.878906 C 84.429688 119.167969 82.253906 119.679688 80.125 120.179688 L 80.082031 120.1875 C 77.785156 120.726562 75.519531 121.253906 73.035156 121.570312 C 66.734375 122.371094 58.917969 121.8125 50.839844 121.230469 L 45.84375 120.871094 L 49.546875 124.511719 C 57.480469 132.3125 65.714844 140.40625 75.765625 144.828125 C 85.886719 149.285156 97.78125 150.007812 107.316406 147.195312 C 116.8125 144.398438 123.820312 138.117188 130.480469 132.148438 L 131.191406 131.511719 C 138.9375 136.34375 145.984375 143.960938 150.636719 150.535156 C 155.609375 157.558594 157.773438 163.28125 159.996094 169.171875 L 161.542969 173.269531 C 158.585938 170.269531 155.121094 167.269531 150.097656 164.519531 C 147.125 162.894531 143.621094 161.359375 139.871094 160.125 C 134.835938 158.464844 129.300781 157.328125 123.988281 157.257812 C 123.347656 157.25 122.710938 157.257812 122.082031 157.277344 C 117.824219 157.421875 113.753906 158.179688 109.878906 158.90625 L 109.820312 158.917969 C 105.964844 159.636719 102.316406 160.316406 98.625 160.4375 C 90.585938 160.707031 82.167969 158.347656 73.398438 155.871094 L 70.195312 154.96875 L 71.164062 158.269531 C 75.171875 171.960938 79.242188 185.859375 84.714844 196.941406 C 90.214844 208.078125 97.265625 216.667969 107.6875 220.53125 C 108.078125 220.675781 108.46875 220.8125 108.867188 220.945312 C 116.710938 223.53125 126.191406 223.5625 135.78125 223.066406 L 134.71875 223.367188 C 128.9375 224.996094 123.453125 226.523438 117.28125 226.277344 C 111.054688 226.027344 104.019531 223.964844 97.984375 222.113281 L 97.015625 221.820312 C 91.476562 220.125 86.550781 218.664062 80.371094 219.625 C 77.527344 220.066406 74.457031 221.011719 71.539062 222.3125 C 67.84375 223.960938 64.28125 226.226562 61.691406 228.894531 C 57.007812 233.722656 55.777344 239.582031 55.289062 244.210938 C 54.792969 248.875 54.964844 253.089844 58.179688 257.214844 C 61.191406 261.085938 66.960938 264.933594 72.359375 265.398438 C 74.75 265.605469 77.007812 265.144531 79.058594 264.230469 C 81.777344 263.019531 84.128906 261.015625 86.042969 258.707031 C 89.257812 254.832031 91.8125 249.328125 90.601562 245.054688 C 89.351562 240.640625 84.441406 238.574219 81.363281 237.824219 C 79.058594 237.261719 76.945312 237.222656 75.046875 238.070312 C 74.214844 238.441406 73.476562 238.960938 72.8125 239.601562 C 71.03125 241.332031 68.828125 245.152344 70.214844 247.917969 C 71.128906 249.738281 73.386719 250.390625 75.457031 250.671875 C 74.925781 251.503906 74.421875 252.046875 73.832031 252.308594 C 73.792969 252.324219 73.757812 252.339844 73.71875 252.355469 C 72.722656 252.726562 70.757812 252.441406 68.957031 250.507812 C 67.144531 248.5625 65.886719 245.324219 66.710938 242.230469 C 67.519531 239.1875 70.425781 235.914062 74.300781 234.183594 C 74.464844 234.113281 74.625 234.042969 74.789062 233.976562 C 78.875 232.332031 83.941406 232.4375 88.441406 232.933594 C 91.726562 233.292969 94.527344 233.835938 97.347656 234.382812 L 97.355469 234.382812 L 97.359375 234.386719 L 97.367188 234.386719 C 98.339844 234.574219 99.320312 234.765625 100.3125 234.945312 C 103.148438 235.460938 106.085938 235.898438 109.03125 236.3125 C 107.085938 238.816406 105.242188 241.496094 104.234375 244.332031 C 102.882812 248.140625 103.085938 252.101562 103.269531 255.644531 L 103.546875 261.09375 L 106.617188 256.773438 C 110.410156 251.433594 114.105469 246.238281 117 243.035156 C 118.609375 241.253906 119.96875 240.09375 121.4375 238.964844 C 116.808594 247.730469 115.972656 259.421875 117.183594 268.953125 C 117.414062 270.765625 117.71875 272.503906 118.070312 274.183594 C 118.84375 277.84375 119.851562 281.25 120.828125 284.554688 L 120.835938 284.582031 C 121.804688 287.867188 122.742188 291.042969 123.445312 294.382812 C 125.191406 302.679688 125.507812 312.074219 125.820312 321.671875 L 125.921875 324.707031 L 128.59375 323.199219 C 136.148438 318.949219 143.722656 314.683594 150.253906 310.976562 C 156.78125 307.269531 162.558594 303.964844 167.863281 297.703125 C 171.5625 293.335938 175.007812 287.546875 178.335938 281.4375 C 177.140625 285.585938 175.941406 289.761719 174.617188 294.933594 C 173.28125 300.144531 171.789062 306.453125 171.242188 313.820312 C 170.695312 321.15625 171.074219 329.621094 173.226562 336.753906 C 175.402344 343.945312 179.390625 349.800781 185.636719 353.777344 C 191.792969 357.699219 200.125 359.777344 207.6875 358.613281 C 210.308594 358.207031 212.824219 357.417969 215.132812 356.324219 C 219.496094 354.253906 223.179688 351.0625 225.363281 347.253906 C 228.707031 341.425781 228.367188 334.488281 226.496094 329.273438 C 224.597656 323.976562 221.003906 320.101562 216.070312 318.5625 C 212.308594 317.390625 207.828125 317.609375 204.308594 319.277344 C 203.320312 319.742188 202.394531 320.332031 201.578125 321.054688 C 197.847656 324.34375 196.933594 329.851562 197.644531 333.699219 C 198.390625 337.75 201.070312 340.625 204.894531 340.863281 C 206.640625 340.972656 208.476562 340.507812 210.027344 339.769531 C 211.621094 339.015625 213.167969 337.851562 214.027344 336.390625 C 215.191406 334.414062 214.855469 332.296875 214.222656 330.5 C 215 331.359375 215.960938 333.394531 215.578125 335.957031 C 215.191406 338.554688 213.464844 341.550781 210.398438 343.007812 C 210.144531 343.128906 209.882812 343.238281 209.609375 343.335938 C 205.902344 344.679688 200.179688 344.03125 195.726562 341.679688 C 191.417969 339.40625 188.382812 335.550781 186.652344 330.367188 C 185.019531 325.46875 184.566406 319.453125 184.125 313.496094 L 184.082031 312.933594 C 184.0625 312.664062 184.042969 312.398438 184.023438 312.128906 C 183.792969 309.046875 183.539062 306.101562 183.304688 303.320312 L 183.304688 303.3125 C 183.089844 300.804688 182.886719 298.4375 182.71875 296.214844 C 182.695312 295.859375 182.667969 295.5 182.644531 295.15625 C 182.289062 290.214844 182.128906 286.015625 181.96875 281.785156 L 181.871094 279.199219 C 185.3125 285.878906 189.144531 292.488281 194.484375 298.085938 C 201.289062 305.214844 210.457031 310.621094 219.644531 313.882812 C 220.164062 314.066406 220.679688 314.242188 221.195312 314.414062 C 229.839844 317.261719 238.519531 318.324219 247 319.359375 L 250.761719 319.816406 L 248.890625 316.609375 C 245.234375 310.34375 241.894531 304.546875 241.742188 297.558594 C 241.722656 296.640625 241.757812 295.691406 241.839844 294.710938 C 242.101562 291.460938 242.84375 287.996094 243.625 284.359375 L 243.640625 284.296875 C 244.414062 280.6875 245.226562 276.917969 245.523438 273.285156 C 246.210938 264.839844 244.128906 257.273438 240.691406 251.121094 C 238.75 247.652344 236.375 244.640625 233.859375 241.863281 C 238.800781 244.214844 243.71875 246.570312 248.523438 248.988281 C 254.09375 251.792969 259.359375 254.609375 263.578125 257.96875 C 267.765625 261.300781 270.972656 265.21875 273.453125 269.269531 C 275.933594 273.3125 277.546875 277.257812 277.289062 282.140625 C 277.011719 287.375 274.703125 292.976562 271.496094 294.667969 C 271.117188 294.871094 270.707031 295.023438 270.277344 295.132812 C 267.160156 295.921875 263.027344 294.308594 260.847656 292.195312 C 258.65625 290.070312 258.675781 287.496094 259.285156 285.464844 C 259.625 284.320312 260.117188 283.492188 260.625 282.910156 C 260.429688 283.996094 260.558594 285.152344 261.347656 286.261719 C 262.820312 288.34375 266.542969 289.890625 269.566406 289.125 C 269.957031 289.027344 270.34375 288.886719 270.71875 288.703125 C 274.179688 286.980469 275.246094 282.136719 274.417969 278.191406 C 273.546875 274.054688 270.4375 269.746094 265.082031 269.101562 C 263.433594 268.902344 261.65625 269.070312 259.902344 269.515625 C 256.136719 270.464844 252.191406 272.777344 249.574219 276.15625 C 245.738281 281.101562 244.898438 288.132812 246.945312 293.789062 C 249.011719 299.5 253.941406 303.679688 259.070312 305.820312 C 263.558594 307.691406 268.332031 308.070312 272.707031 306.960938 C 273.390625 306.789062 274.058594 306.582031 274.71875 306.335938 L 274.769531 306.320312 L 274.816406 306.300781 C 279.660156 304.476562 283.683594 300.753906 286.445312 296.007812 C 288.285156 292.84375 289.582031 289.195312 290.203125 285.339844 C 291.640625 287.628906 293.1875 289.84375 294.941406 291.78125 C 297.980469 295.132812 301.582031 297.597656 306.878906 299.691406 C 312.0625 301.738281 318.941406 303.453125 325.652344 305.125 L 325.65625 305.125 L 329.300781 306.035156 L 327.863281 302.574219 C 325.703125 297.367188 323.464844 291.976562 320.464844 287.320312 C 317.425781 282.605469 313.546875 278.542969 308.03125 276.046875 C 302.726562 273.644531 296.003906 272.765625 289.625 271.941406 C 288.816406 268.542969 287.558594 265.351562 286.023438 262.734375 C 284.304688 259.796875 282.253906 257.613281 280.15625 255.753906 C 282.164062 255.507812 284.136719 255.199219 285.953125 254.738281 C 287.859375 254.257812 289.683594 253.589844 291.242188 252.59375 C 295.296875 250.011719 297.011719 245.542969 298.46875 241.753906 L 299.632812 238.714844 L 296.652344 239.023438 C 289.28125 239.78125 282.128906 240.511719 275.972656 240.074219 C 275.609375 240.046875 275.246094 240.019531 274.890625 239.984375 C 272.140625 239.726562 269.542969 239.25 266.773438 238.742188 L 266.746094 238.738281 C 263.820312 238.199219 260.722656 237.632812 257.207031 237.300781 C 255.410156 237.132812 253.507812 237.023438 251.527344 236.964844 C 251.769531 236.90625 252.011719 236.84375 252.25 236.78125 C 259.789062 234.796875 265.347656 230.945312 271.675781 225.714844 C 272.839844 224.753906 274.039062 223.738281 275.246094 222.710938 L 275.253906 222.707031 C 280.667969 218.113281 286.332031 213.328125 291.78125 210.734375 C 298.355469 207.605469 304.734375 207.625 311.558594 207.667969 L 316.585938 207.699219 L 312.738281 204.402344 C 306.59375 199.132812 300.363281 193.792969 292.796875 188.683594 C 286.628906 184.519531 279.503906 180.460938 271.6875 177.886719 C 269.902344 177.296875 268.078125 176.785156 266.21875 176.367188 C 256.246094 174.125 245.453125 174.621094 236.902344 176.1875 C 236.4375 176.273438 235.976562 176.363281 235.523438 176.453125 C 240.253906 173.972656 244.660156 171.246094 248.28125 168.042969 C 255.273438 161.855469 259.226562 154.011719 261.734375 147.417969 C 264.261719 140.78125 265.386719 135.238281 266.199219 128.550781 C 267.007812 121.921875 267.554688 113.847656 265.460938 106.074219 C 265.191406 105.070312 264.878906 104.078125 264.527344 103.09375 C 266.742188 102.675781 269.050781 102.175781 271.292969 101.3125 C 272.65625 100.789062 274.007812 100.125 275.324219 99.261719 C 279.371094 96.59375 282.820312 92.148438 284.785156 84.730469 C 284.949219 84.113281 285.101562 83.480469 285.246094 82.832031 C 286 79.40625 286.527344 75.472656 287.050781 71.53125 L 287.058594 71.480469 C 287.621094 67.25 288.191406 62.996094 289.046875 59.113281 C 290.855469 50.933594 293.960938 44.328125 297.164062 37.542969 L 299.941406 31.65625 L 294.515625 35.171875 L 294.511719 35.175781 C 291.054688 37.417969 287.578125 39.667969 282.371094 43.277344 C 277.195312 46.863281 270.011719 51.976562 265.070312 59.085938 C 260.121094 66.203125 257.480469 75.207031 257.179688 82.742188 C 257.074219 85.414062 257.265625 87.898438 257.640625 90.246094 C 256.292969 88.347656 254.855469 86.523438 253.367188 84.78125 C 248.035156 78.554688 241.941406 73.265625 235.097656 69.429688 C 228.238281 65.582031 220.691406 63.226562 212.238281 62.101562 C 211.320312 61.980469 210.390625 61.871094 209.449219 61.78125 Z M 197.859375 40.226562 C 200.414062 42.507812 201.8125 45.238281 202.796875 48.230469 C 202.859375 48.640625 202.851562 48.898438 202.769531 48.992188 C 201.699219 48.035156 200.816406 46.800781 200.117188 45.292969 C 199.753906 44.917969 199.585938 44.949219 199.613281 45.390625 C 199.59375 45.707031 199.679688 46.101562 199.871094 46.570312 C 200.945312 48.75 201.535156 49.996094 201.636719 50.3125 C 201.910156 50.984375 202.042969 51.4375 202.039062 51.671875 C 200.425781 48.945312 198.726562 46.773438 196.941406 45.152344 C 196.835938 45.066406 196.789062 45.046875 196.800781 45.097656 L 198.671875 48.796875 C 199.164062 49.730469 199.644531 50.546875 200.109375 51.242188 C 199.921875 51.117188 199.078125 50.1875 197.570312 48.460938 C 196.542969 47.484375 195.453125 46.476562 194.296875 45.4375 C 193.738281 44.9375 193.421875 44.691406 193.34375 44.695312 L 197.253906 51.796875 C 195.328125 50.191406 192.425781 47.152344 188.546875 42.6875 C 186.425781 40.679688 185.046875 39.492188 184.402344 39.136719 L 185.054688 40.167969 C 186.734375 42.800781 187.613281 44.109375 187.6875 44.101562 C 190.15625 47.027344 193.003906 50.113281 196.238281 53.355469 C 193.527344 51.179688 191.824219 49.851562 191.128906 49.367188 C 190.039062 48.566406 189.164062 47.976562 188.507812 47.597656 C 189.335938 48.753906 191.414062 50.90625 194.738281 54.050781 C 193.546875 53.402344 191.964844 52.414062 190.003906 51.082031 C 189.699219 50.90625 189.488281 50.871094 189.375 50.976562 C 189.714844 51.753906 190.230469 52.515625 190.921875 53.257812 C 191.339844 53.824219 192.480469 54.726562 194.335938 55.964844 C 193.203125 55.273438 191.65625 54.484375 189.695312 53.585938 C 188.628906 53.128906 187.699219 52.8125 186.902344 52.640625 C 187.472656 53.101562 187.839844 53.382812 188 53.476562 L 193.285156 56.511719 L 193.164062 56.46875 C 187.980469 54.609375 182.75 52.164062 178.851562 46.152344 C 175.425781 40.863281 172.972656 32.78125 170.601562 24 C 174.683594 26.695312 178.832031 29.339844 183.109375 31.664062 C 184.601562 32.472656 186.105469 33.242188 187.554688 33.988281 L 187.566406 33.992188 C 188.972656 34.710938 190.328125 35.40625 191.617188 36.105469 C 194.113281 37.464844 196.246094 38.785156 197.859375 40.226562 Z M 181.535156 270.292969 L 181.535156 270.328125 L 182.421875 272.101562 C 186.679688 280.648438 190.800781 288.890625 197.148438 295.539062 C 201.378906 299.976562 206.640625 303.734375 212.277344 306.667969 C 213.738281 307.003906 215.390625 307.277344 217.242188 307.492188 C 217.773438 307.363281 217.488281 306.777344 216.386719 305.734375 C 214.757812 303.996094 212.992188 302.496094 211.097656 301.226562 C 210.535156 300.71875 210.09375 300.179688 209.773438 299.617188 C 211.148438 301.109375 214.644531 303 220.25 305.285156 C 220.695312 305.265625 220.582031 304.609375 219.914062 303.328125 C 219.519531 302.441406 218.6875 301.257812 217.417969 299.785156 C 217.296875 299.5625 217.320312 299.453125 217.488281 299.457031 C 217.835938 299.546875 218.488281 299.921875 219.445312 300.589844 C 222.980469 303.5625 225.320312 305.277344 226.46875 305.734375 L 219.257812 292.9375 L 216.269531 288.667969 C 215.929688 288.039062 215.828125 287.707031 215.972656 287.671875 C 216.003906 287.472656 217.304688 288.675781 219.871094 291.277344 C 220.929688 292.96875 222.40625 294.746094 224.300781 296.605469 C 226.4375 299.78125 227.875 301.808594 228.613281 302.6875 C 229.523438 303.648438 230.070312 304.074219 230.253906 303.96875 C 230.453125 303.90625 230.5 303.574219 230.398438 302.972656 L 227.671875 295.53125 C 227.414062 294.476562 227.292969 293.628906 227.3125 293.003906 C 227.542969 292.738281 228.429688 293.566406 229.96875 295.484375 C 230.542969 296.886719 231.300781 298.394531 232.238281 300 C 232.746094 300.789062 233.167969 301.242188 233.515625 301.363281 L 231.386719 290.171875 C 231.191406 288.972656 231.203125 288.441406 231.429688 288.582031 C 233.710938 292.199219 235.378906 295.820312 236.425781 299.453125 C 236 296.5 236.019531 291.402344 236.484375 284.167969 C 236.472656 283.53125 237.34375 281.84375 239.101562 279.105469 L 239.789062 278.101562 C 240.128906 279.128906 240.300781 280.527344 240.304688 282.289062 C 240.988281 279.070312 241.609375 275.957031 241.851562 272.984375 C 242.472656 265.339844 240.59375 258.496094 237.476562 252.921875 C 234.34375 247.320312 229.960938 242.976562 225.359375 238.429688 L 222.226562 235.335938 L 226.628906 235.277344 C 235.6875 235.15625 244.429688 235.03125 251.3125 233.21875 C 258.070312 231.441406 263.128906 228.003906 269.328125 222.878906 C 270.234375 222.128906 271.15625 221.351562 272.105469 220.546875 L 269.746094 221.21875 C 269.523438 221.253906 269.46875 221.144531 269.59375 220.878906 C 269.894531 220.457031 270.257812 220.128906 270.683594 219.886719 C 272.703125 219.292969 274.324219 218.515625 275.550781 217.558594 L 279.636719 212.894531 L 278.539062 212.925781 L 259.152344 221.109375 L 263.292969 218.257812 C 264.058594 217.890625 265.554688 217.308594 267.785156 216.515625 C 268.707031 215.542969 271.453125 213.894531 276.027344 211.578125 C 277.4375 210.449219 278.894531 208.753906 280.398438 206.492188 C 274.609375 208.5625 270.789062 209.730469 268.9375 209.996094 C 266.089844 210.394531 262.859375 210.761719 259.25 211.097656 C 258.484375 211.140625 258.09375 211.082031 258.082031 210.917969 L 289.914062 201.378906 C 289.910156 201.316406 289.449219 201.234375 288.53125 201.136719 L 282.1875 200.832031 C 278.160156 201.042969 275.21875 201.253906 273.351562 201.464844 C 269.292969 201.191406 266.90625 201.050781 266.203125 201.042969 L 251.949219 201.78125 C 250.824219 201.824219 250.152344 201.785156 249.929688 201.667969 C 249.804688 201.527344 249.890625 201.398438 250.183594 201.28125 C 250.84375 201.082031 251.539062 200.953125 252.269531 200.894531 L 278.242188 198.679688 C 280.496094 198.34375 281.640625 198.089844 281.671875 197.914062 C 281.71875 197.824219 281.582031 197.742188 281.269531 197.675781 L 262.832031 194.796875 L 249.605469 193.921875 C 249.992188 193.753906 250.957031 193.609375 252.503906 193.480469 C 255.914062 193.589844 260.863281 193.351562 267.351562 192.773438 L 280.710938 192.539062 L 270.464844 188.992188 L 252.886719 184.746094 C 255.753906 185.035156 259.894531 185.085938 265.304688 184.898438 C 266.296875 185.023438 269.996094 185.910156 276.402344 187.558594 C 276.308594 187.230469 275.714844 186.554688 274.617188 185.53125 C 272.347656 184.40625 269.90625 182.921875 267.292969 181.074219 C 266.878906 180.894531 266.339844 180.683594 265.667969 180.445312 L 265.21875 180.207031 C 264.984375 180.070312 264.8125 179.933594 264.703125 179.804688 C 255.53125 177.878906 245.570312 178.347656 237.566406 179.8125 C 229.398438 181.308594 222.625 183.277344 216.394531 185.871094 L 210.351562 188.082031 L 207.84375 189.207031 L 210.042969 187.511719 L 214.554688 183.292969 C 215.277344 182.402344 216.019531 181.527344 216.769531 180.640625 C 219.449219 177.484375 222.265625 174.164062 225.011719 169.292969 C 228.566406 162.996094 232.351562 154.492188 233.78125 147.25 C 233.824219 147.035156 233.863281 146.824219 233.902344 146.609375 C 234.347656 144.140625 234.53125 141.792969 234.636719 139.476562 L 231.8125 144.789062 C 232.730469 141.433594 233.300781 138.769531 233.523438 136.789062 C 233.78125 134.753906 233.640625 133.964844 233.113281 134.421875 C 232.871094 135.109375 232.5 135.921875 231.996094 136.851562 C 231.023438 138.5625 230.183594 139.910156 229.484375 140.902344 C 228.019531 144.945312 227.144531 147.207031 226.871094 147.679688 C 224.464844 151.796875 223.027344 154.371094 222.5625 155.394531 C 222.371094 155.785156 221.996094 157.046875 221.441406 159.1875 C 222 156.519531 222.65625 154.054688 223.410156 151.785156 C 224.792969 147.953125 225.886719 145.429688 226.6875 144.210938 C 227.585938 141.105469 228.183594 138.832031 228.476562 137.394531 C 228.816406 135.347656 228.574219 133.933594 227.746094 133.152344 C 224.832031 137.164062 223.050781 140.035156 222.40625 141.769531 L 222.84375 140.105469 C 224.84375 136.039062 226.214844 132.9375 226.953125 130.808594 C 227.839844 127.9375 228.265625 125.898438 228.226562 124.6875 C 226.976562 126.6875 223.972656 130.625 219.21875 136.5 L 224.359375 124.300781 C 224.125 124.203125 223.339844 124.632812 222.003906 125.589844 L 212.441406 134.019531 C 213.082031 133.070312 213.824219 131.496094 214.671875 129.300781 L 220.964844 121.066406 C 221.324219 120.566406 221.425781 120.320312 221.277344 120.324219 C 219.511719 120.835938 218.140625 121.4375 217.15625 122.132812 C 209.984375 127.804688 205.957031 130.949219 205.074219 131.566406 C 203.078125 133.078125 201.957031 133.824219 201.710938 133.796875 C 206.203125 128.105469 211.941406 121.941406 218.929688 115.300781 C 217.652344 115.636719 216.863281 115.898438 216.570312 116.089844 C 211.597656 119.375 205.417969 123.167969 198.03125 127.464844 L 191.335938 132.59375 C 191.078125 132.714844 191.03125 132.648438 191.195312 132.398438 L 202.367188 120.679688 C 198.390625 122.664062 194.867188 124.511719 191.796875 126.222656 C 184.078125 132.941406 176.164062 142.179688 171.722656 150.738281 C 166.777344 160.269531 166.078125 169.058594 165.367188 178.207031 L 165.039062 182.421875 L 162.175781 179.3125 C 158.394531 175.203125 154.773438 171.277344 148.328125 167.75 C 145.5625 166.238281 142.261719 164.792969 138.71875 163.625 C 133.945312 162.050781 128.789062 161.003906 123.941406 160.941406 C 123.359375 160.933594 122.78125 160.941406 122.203125 160.960938 C 119.148438 161.0625 116.171875 161.507812 113.160156 162.046875 C 115.164062 162.480469 116.523438 163.023438 117.242188 163.675781 C 116.996094 163.945312 116.25 164.324219 115.011719 164.816406 L 103.371094 168.101562 L 105.042969 168.183594 L 121.425781 170.921875 C 118.351562 171.699219 112.335938 171.96875 103.378906 171.730469 C 102.082031 171.898438 100.738281 172.171875 99.34375 172.554688 C 98.675781 172.773438 98.335938 172.988281 98.316406 173.199219 C 100.296875 174.527344 102.359375 175.714844 104.507812 176.765625 C 108.945312 178.347656 112.023438 179.570312 113.742188 180.425781 C 116.65625 181.898438 118.007812 182.761719 117.792969 183.023438 C 113.546875 182.09375 109.925781 181.203125 106.933594 180.355469 C 99.320312 177.34375 95.347656 175.992188 95.007812 176.296875 C 94.195312 176.683594 94.726562 177.886719 96.605469 179.90625 C 97.953125 181.398438 100.769531 183.957031 105.058594 187.582031 C 98.613281 184.402344 94.277344 181.90625 92.050781 180.101562 C 91.15625 179.617188 90.605469 179.472656 90.40625 179.664062 C 91.339844 181.15625 92.113281 182.292969 92.726562 183.078125 C 93.082031 183.550781 94.566406 184.996094 97.175781 187.417969 L 104.121094 196.203125 C 104.289062 196.59375 104.171875 196.730469 103.769531 196.617188 C 103.488281 196.511719 102.617188 195.988281 101.148438 195.042969 L 94.65625 189.9375 C 94.21875 189.59375 94.011719 189.511719 94.03125 189.6875 C 94.953125 192.445312 96.324219 195.230469 98.152344 198.046875 C 99.070312 199.460938 100.101562 200.886719 101.246094 202.324219 C 101.675781 203.027344 103.652344 205.207031 107.179688 208.867188 C 103.421875 206.625 99.421875 203.570312 95.179688 199.695312 L 92.863281 198.382812 C 92.753906 198.464844 92.898438 198.917969 93.289062 199.75 C 94.140625 201.460938 95.015625 203.085938 95.914062 204.625 C 95.925781 204.902344 95.648438 204.792969 95.082031 204.296875 C 94.789062 204.027344 94.324219 203.382812 93.6875 202.359375 C 92.289062 199.476562 90.042969 195.707031 86.960938 191.050781 C 87.234375 192.246094 87.664062 193.820312 88.25 195.777344 C 93.511719 206.277344 99.941406 213.730469 108.964844 217.078125 C 109.3125 217.207031 109.664062 217.328125 110.019531 217.445312 C 119.222656 220.476562 131.117188 219.726562 143.53125 218.898438 L 150.582031 218.433594 L 144.742188 222.273438 C 136.605469 227.621094 128.984375 232.679688 124.777344 240.523438 C 120.558594 248.390625 119.671875 259.320312 120.835938 268.488281 C 121.050781 270.191406 121.339844 271.828125 121.675781 273.425781 C 121.726562 273.667969 121.777344 273.910156 121.832031 274.152344 C 122.25 275.085938 122.871094 276.253906 123.695312 277.65625 C 124.613281 281.078125 125.804688 284.210938 127.273438 287.054688 L 128.753906 292.460938 L 128.328125 276.871094 C 128.449219 276.871094 128.695312 277.382812 129.078125 278.410156 C 129.824219 281.777344 130.277344 283.679688 130.4375 284.117188 C 130.707031 285.054688 130.90625 285.523438 131.027344 285.523438 L 133.003906 277.707031 L 132.59375 290.175781 C 132.574219 291.757812 132.644531 292.472656 132.792969 292.320312 C 134.308594 288.46875 135.78125 285.085938 137.210938 282.167969 L 139.730469 274.535156 L 142.996094 267.34375 C 143.285156 267.332031 142.964844 269.925781 142.039062 275.125 C 140 282.738281 138.988281 287.0625 139.003906 288.097656 C 138.914062 289.214844 139.3125 289.324219 140.199219 288.425781 C 142.207031 284.957031 143.417969 282.996094 143.839844 282.542969 C 144.53125 281.574219 145.0625 281.097656 145.441406 281.105469 C 144.433594 284.046875 143.445312 287.082031 142.484375 290.207031 C 142.042969 291.703125 141.878906 292.449219 141.996094 292.449219 C 143.023438 292.289062 146.113281 288.996094 151.265625 282.574219 C 149.253906 286.195312 147.949219 288.699219 147.351562 290.078125 C 146.9375 290.976562 146.5 292.214844 146.039062 293.800781 C 145.949219 294.1875 146.066406 294.253906 146.394531 294.003906 L 149.695312 290.90625 L 161.640625 276.066406 C 161.289062 278.515625 159.0625 282.761719 154.964844 288.800781 C 154.140625 290.054688 151.640625 293.105469 147.457031 297.953125 L 145.503906 301.078125 L 159.703125 289.011719 C 156.390625 294.09375 153.519531 297.6875 151.085938 299.804688 C 150.085938 301.253906 149.554688 302.203125 149.492188 302.65625 C 149.582031 303.089844 154.1875 299.742188 163.300781 292.625 L 159.730469 297.480469 C 156.730469 300.085938 154.976562 301.78125 154.480469 302.566406 L 161.757812 298.769531 C 162.882812 297.730469 163.980469 296.59375 165.054688 295.324219 C 169.960938 289.527344 174.484375 280.933594 179.144531 272.066406 L 180.816406 268.882812 L 181.53125 270.3125 Z M 261.246094 78.847656 L 261.277344 78.742188 L 263.914062 71.324219 C 263.773438 72.96875 263.429688 75.679688 262.878906 79.460938 C 262.011719 82.90625 261.605469 85.191406 261.65625 86.320312 C 263.160156 82.1875 264.089844 79.460938 264.445312 78.140625 C 264.671875 77.613281 264.9375 77.269531 265.238281 77.109375 C 264.699219 79.101562 264.128906 82.023438 263.527344 85.871094 C 263.34375 86.613281 263.128906 87.210938 262.882812 87.667969 C 262.949219 87.664062 263.074219 87.445312 263.253906 87.003906 C 263.632812 85.582031 264.191406 83.957031 264.941406 82.132812 L 266.34375 79.5625 C 266.503906 79.304688 266.621094 79.1875 266.703125 79.214844 C 266.320312 82.230469 265.703125 85.261719 264.847656 88.308594 C 264.730469 89.078125 264.6875 89.5625 264.71875 89.757812 C 268.015625 80.511719 270.996094 73.675781 273.667969 69.246094 L 274.65625 67.699219 C 274.71875 67.789062 274.523438 68.59375 274.070312 70.109375 C 272.214844 75.3125 270.132812 81.960938 267.828125 90.050781 C 268.535156 89.15625 269.917969 87.074219 271.988281 83.800781 C 273.484375 82.082031 274.460938 81.1875 274.910156 81.117188 C 275.011719 81.117188 275.039062 81.234375 274.988281 81.46875 C 274.996094 81.578125 274.816406 82.050781 274.449219 82.886719 L 269.140625 93.003906 C 269.335938 93.015625 270.542969 91.300781 272.757812 87.859375 C 274.773438 85.347656 275.898438 84.035156 276.140625 83.929688 C 276.210938 83.929688 276.144531 84.121094 275.941406 84.5 L 273.09375 89.730469 L 271.515625 93.21875 L 271.3125 93.820312 C 271.371094 94.015625 272.003906 93.363281 273.214844 91.863281 C 275.777344 87.742188 277.734375 85.0625 279.085938 83.816406 C 279.238281 83.769531 279.269531 83.898438 279.183594 84.210938 C 278.703125 86.011719 278.402344 87.015625 278.277344 87.222656 C 278.21875 87.429688 277.410156 88.828125 275.84375 91.417969 C 275.1875 92.226562 273.917969 94.0625 272.03125 96.9375 C 272.460938 96.707031 272.882812 96.457031 273.296875 96.183594 C 276.476562 94.089844 279.457031 90.46875 281.226562 83.789062 C 281.375 83.226562 281.515625 82.644531 281.648438 82.035156 C 282.367188 78.78125 282.875 74.992188 283.40625 70.992188 L 283.414062 70.949219 C 283.972656 66.765625 284.558594 62.367188 285.453125 58.320312 C 286.820312 52.121094 288.898438 46.792969 291.140625 41.777344 C 289.203125 43.0625 287.050781 44.515625 284.46875 46.304688 C 279.269531 49.90625 272.613281 54.6875 268.09375 61.1875 C 264.433594 66.453125 262.132812 72.914062 261.246094 78.847656 Z M 158.976562 154.683594 C 159.261719 156.011719 159.464844 157.296875 159.609375 158.558594 C 158.109375 155.40625 156.234375 152.070312 153.640625 148.40625 C 148.429688 141.046875 140.234375 132.261719 131.109375 127.1875 C 126.664062 124.714844 122.046875 123.152344 117.554688 121.632812 L 117.488281 121.609375 C 112.828125 120.03125 108.289062 118.488281 103.859375 116.027344 C 103.746094 115.964844 103.636719 115.902344 103.523438 115.839844 C 94.632812 110.792969 86.144531 101.890625 82.285156 92.191406 C 78.433594 82.511719 79.167969 71.988281 82.921875 64.730469 C 84.449219 61.777344 86.492188 59.332031 88.792969 57.332031 C 92.113281 54.449219 95.960938 52.503906 99.507812 51.335938 C 105.484375 49.367188 110.371094 49.675781 114.246094 51.363281 C 118.117188 53.054688 121.167969 56.207031 123.25 60.75 C 125.390625 65.421875 126.316406 71.105469 124.707031 75.21875 C 124.046875 76.902344 122.933594 78.402344 121.503906 79.644531 C 119.503906 81.382812 116.933594 82.566406 114.300781 82.996094 C 109.636719 83.757812 105.195312 82.148438 103.527344 79.777344 C 101.910156 77.480469 102.460938 73.789062 104.40625 71.683594 C 104.546875 71.53125 104.699219 71.386719 104.855469 71.25 C 106.824219 69.539062 109.566406 69.378906 110.621094 69.875 C 111.324219 70.207031 111.535156 71.089844 111.527344 73.984375 L 111.515625 76.652344 L 114.015625 75.714844 C 114.660156 75.472656 115.394531 75.191406 116.535156 74.316406 C 116.726562 74.167969 116.9375 74 117.15625 73.808594 C 118.089844 73 119.445312 71.578125 119.773438 69.648438 C 120.191406 67.179688 118.835938 64.726562 116.46875 62.574219 C 114.121094 60.433594 110.179688 58.039062 106.078125 57.867188 C 102.726562 57.726562 99.527344 59.078125 96.765625 61.476562 C 96.050781 62.097656 95.363281 62.792969 94.703125 63.550781 C 91.527344 67.21875 88.894531 72.601562 88.734375 78.710938 C 88.578125 84.789062 90.878906 91.398438 94.496094 96.890625 C 98.128906 102.410156 103.117188 106.851562 108.242188 110.246094 C 112.980469 113.382812 117.875 115.644531 121.5 117.320312 L 121.535156 117.339844 C 121.816406 117.46875 122.09375 117.597656 122.359375 117.71875 C 126.054688 119.433594 128.304688 120.5625 130.566406 121.699219 L 132.757812 122.796875 L 133.203125 120.386719 C 134.046875 115.8125 134.855469 111.484375 136.585938 107.523438 C 137.425781 105.597656 138.492188 103.742188 139.695312 101.894531 C 139.476562 104.980469 139.523438 108.089844 140.210938 111.089844 C 141.214844 115.480469 143.5625 119.539062 145.664062 123.179688 L 145.730469 123.296875 C 146.191406 124.089844 146.636719 124.863281 147.066406 125.632812 C 149.511719 129.992188 151.429688 134.207031 153.542969 139.179688 C 155.671875 144.1875 157.90625 149.746094 158.976562 154.683594 Z M 245.839844 165.285156 C 242.664062 168.09375 238.800781 170.535156 234.546875 172.804688 C 239.019531 168.816406 243.089844 164.5 246.179688 159.566406 C 251.941406 150.363281 254.199219 139.164062 255.613281 129.671875 C 257.03125 120.179688 257.722656 111.664062 254.09375 103.148438 C 250.507812 94.734375 242.796875 86.527344 234.722656 81.28125 C 226.574219 75.984375 217.964844 73.636719 209.414062 73.519531 C 206.578125 73.480469 203.75 73.6875 200.976562 74.113281 C 195.414062 74.96875 190.0625 76.714844 185.300781 79.152344 C 178.1875 82.792969 172.324219 88.015625 168.960938 93.632812 C 165.675781 99.121094 164.527344 105.503906 167.4375 109.855469 C 170.273438 114.097656 176.460938 115.5625 180.457031 114.945312 L 180.460938 114.945312 C 184.789062 114.28125 186.9375 111.226562 188.617188 108.84375 L 191.132812 105.277344 L 186.984375 105.808594 C 182.058594 106.4375 180.636719 106.21875 180.4375 105.601562 C 179.976562 104.148438 181.675781 99.484375 184.210938 97.695312 C 184.753906 97.308594 185.316406 97.09375 185.898438 97.003906 C 187.574219 96.746094 189.625 97.496094 191.753906 98.863281 C 194.65625 100.726562 196.414062 102.898438 196.417969 105.207031 C 196.421875 107.703125 194.445312 111.164062 191.15625 113.902344 C 188.179688 116.382812 184.347656 118.066406 180.03125 118.730469 C 179.742188 118.777344 179.445312 118.816406 179.152344 118.851562 C 174.425781 119.417969 169.449219 118.75 165.847656 116.296875 C 162.300781 113.878906 159.777344 109.511719 158.957031 103.277344 C 158.136719 97.019531 159.082031 89.238281 163.761719 82.675781 C 168.484375 76.054688 177.148438 70.472656 186 67.621094 C 188.609375 66.78125 191.230469 66.179688 193.832031 65.777344 C 200 64.828125 206.082031 65 211.753906 65.753906 C 219.8125 66.824219 226.902344 69.054688 233.296875 72.640625 C 239.699219 76.230469 245.464844 81.214844 250.566406 87.175781 C 255.6875 93.160156 260.003906 99.976562 261.90625 107.03125 C 263.804688 114.089844 263.339844 121.570312 262.542969 128.105469 C 261.753906 134.585938 260.683594 139.824219 258.292969 146.109375 C 255.882812 152.4375 252.199219 159.660156 245.839844 165.285156 Z M 111.339844 141.714844 C 112.390625 140.996094 112.996094 140.570312 113.152344 140.441406 C 113.820312 139.949219 114.097656 139.703125 113.980469 139.699219 C 112.929688 140.148438 111.777344 140.445312 110.523438 140.589844 C 109.125 140.800781 107.34375 140.992188 105.171875 141.164062 C 105.21875 141.0625 106.871094 140.578125 110.132812 139.722656 C 111.273438 139.332031 112.015625 138.992188 112.359375 138.703125 C 108.644531 139.449219 105.3125 139.625 102.367188 139.238281 L 110.792969 137.707031 L 98.171875 136.40625 L 97.21875 136.273438 C 94.648438 135.886719 91.890625 135.261719 88.9375 134.402344 C 93.988281 133.527344 100.96875 133.316406 109.878906 133.765625 C 107.679688 133.265625 104.964844 132.28125 101.742188 130.8125 C 101.757812 130.75 102.160156 130.738281 102.953125 130.78125 L 111.078125 131.359375 C 111.167969 131.269531 110.90625 131.054688 110.289062 130.710938 C 108.960938 130.023438 107.632812 129.394531 106.304688 128.828125 L 104.96875 127.84375 L 111.3125 129.34375 C 112.769531 129.5625 113.585938 129.628906 113.757812 129.539062 C 113.851562 129.539062 113.605469 129.40625 113.027344 129.148438 L 107.703125 126.875 C 106.792969 126.332031 106.292969 125.964844 106.199219 125.773438 C 106.109375 125.707031 106.140625 125.660156 106.292969 125.625 C 100.941406 123.945312 95.578125 122.4375 90.980469 122.324219 C 89.675781 122.292969 88.414062 122.375 87.167969 122.535156 C 85.097656 122.796875 83.09375 123.265625 80.921875 123.773438 L 80.886719 123.78125 C 78.617188 124.3125 76.1875 124.882812 73.5 125.222656 C 68.167969 125.902344 61.902344 125.667969 55.578125 125.253906 C 62.421875 131.882812 69.261719 137.941406 77.246094 141.457031 C 86.605469 145.578125 97.609375 146.21875 106.273438 143.664062 C 108.046875 143.140625 109.730469 142.484375 111.339844 141.714844 Z M 117.132812 229.957031 C 121.042969 230.113281 124.683594 229.625 128.15625 228.875 C 126.210938 230.550781 124.394531 232.070312 122.820312 233.296875 C 122.089844 233.867188 121.410156 234.375 120.742188 234.875 L 120.722656 234.886719 C 118.59375 236.476562 116.660156 237.917969 114.265625 240.566406 C 112.082031 242.984375 109.511719 246.414062 106.863281 250.085938 C 106.953125 248.515625 107.191406 247.015625 107.707031 245.5625 C 108.808594 242.457031 111.21875 239.433594 113.917969 236.089844 L 115.964844 233.550781 L 112.734375 233.109375 C 108.714844 232.554688 104.746094 232.007812 100.972656 231.320312 C 100 231.144531 99.03125 230.957031 98.050781 230.765625 L 98.027344 230.761719 C 95.21875 230.21875 92.289062 229.648438 88.839844 229.269531 C 84.25 228.765625 78.398438 228.550781 73.414062 230.5625 C 73.207031 230.644531 73.003906 230.730469 72.800781 230.820312 C 68.128906 232.902344 64.304688 236.953125 63.152344 241.28125 C 61.929688 245.871094 63.796875 250.371094 66.261719 253.019531 C 68.742188 255.679688 72.203125 256.851562 75.007812 255.804688 C 75.117188 255.765625 75.226562 255.71875 75.332031 255.671875 C 77.707031 254.613281 79.015625 252.011719 79.945312 250.164062 C 79.988281 250.078125 80.03125 249.992188 80.074219 249.910156 L 81.320312 247.4375 L 78.5625 247.242188 C 75.003906 246.984375 73.699219 246.652344 73.507812 246.265625 C 73.316406 245.886719 73.742188 243.835938 75.378906 242.246094 C 75.765625 241.871094 76.148438 241.609375 76.546875 241.433594 C 77.417969 241.042969 78.613281 240.945312 80.492188 241.402344 C 83.453125 242.125 86.410156 243.765625 87.058594 246.058594 C 87.75 248.496094 86.242188 252.699219 83.210938 256.355469 C 81.558594 258.347656 79.632812 259.941406 77.558594 260.863281 C 76.011719 261.554688 74.378906 261.875 72.675781 261.730469 C 68.523438 261.371094 63.621094 258.210938 61.082031 254.953125 C 58.746094 251.949219 58.492188 248.917969 58.949219 244.601562 C 59.410156 240.25 60.511719 235.398438 64.335938 231.460938 C 66.507812 229.21875 69.640625 227.191406 73.039062 225.675781 C 75.703125 224.488281 78.457031 223.648438 80.9375 223.265625 C 86.1875 222.449219 90.367188 223.636719 95.9375 225.339844 L 96.90625 225.636719 C 102.871094 227.464844 110.351562 229.683594 117.132812 229.957031 Z M 239.972656 240.699219 C 243.402344 242.34375 246.816406 244.003906 250.179688 245.699219 C 255.742188 248.5 261.324219 251.464844 265.871094 255.085938 C 270.449219 258.730469 273.925781 262.988281 276.59375 267.34375 C 279.269531 271.707031 281.28125 276.40625 280.96875 282.335938 C 280.671875 287.910156 278.214844 295.292969 273.214844 297.925781 C 272.558594 298.273438 271.875 298.527344 271.179688 298.703125 C 266.5 299.886719 261.109375 297.582031 258.285156 294.839844 C 254.75 291.410156 254.921875 287.203125 255.753906 284.410156 C 256.601562 281.574219 258.230469 279.742188 259.878906 278.796875 C 260.425781 278.484375 260.964844 278.273438 261.5 278.136719 C 262.523438 277.878906 263.476562 277.917969 264.164062 277.949219 L 267.472656 278.085938 L 265.699219 280.800781 C 264.164062 283.140625 264.070312 283.734375 264.351562 284.132812 C 264.945312 284.972656 267.117188 285.945312 268.664062 285.554688 C 268.820312 285.515625 268.957031 285.464844 269.082031 285.402344 C 270.304688 284.792969 271.5 282.21875 270.8125 278.949219 C 270.164062 275.867188 267.988281 273.160156 264.640625 272.757812 C 263.53125 272.625 262.214844 272.726562 260.804688 273.085938 C 257.738281 273.859375 254.539062 275.761719 252.484375 278.414062 C 249.480469 282.289062 248.761719 287.980469 250.410156 292.535156 C 252.039062 297.039062 256.054688 300.570312 260.488281 302.421875 C 264.28125 304 268.246094 304.292969 271.804688 303.390625 C 272.359375 303.25 272.90625 303.082031 273.4375 302.882812 C 277.394531 301.417969 280.835938 298.328125 283.261719 294.15625 C 285.6875 289.984375 287.058594 284.792969 286.925781 279.4375 C 286.792969 274.050781 285.140625 268.511719 282.847656 264.59375 C 280.585938 260.734375 277.667969 258.378906 274.480469 255.828125 L 270.925781 252.988281 L 275.4375 252.546875 C 278.929688 252.207031 282.242188 251.878906 285.050781 251.167969 C 286.742188 250.738281 288.15625 250.195312 289.265625 249.488281 C 291.496094 248.066406 292.8125 245.800781 294.003906 242.996094 C 287.695312 243.628906 281.347656 244.148438 275.710938 243.75 C 275.316406 243.71875 274.929688 243.6875 274.546875 243.652344 C 271.621094 243.375 268.882812 242.875 266.144531 242.371094 L 266.109375 242.363281 C 263.164062 241.824219 260.207031 241.28125 256.859375 240.96875 C 251.917969 240.503906 246.101562 240.53125 239.972656 240.699219 Z M 178.832031 293.367188 C 178.617188 294.167969 178.402344 294.996094 178.183594 295.851562 C 176.863281 301.003906 175.4375 307.058594 174.914062 314.09375 C 174.386719 321.164062 174.773438 329.140625 176.753906 335.6875 C 178.714844 342.175781 182.226562 347.238281 187.613281 350.671875 C 193.09375 354.160156 200.53125 355.984375 207.128906 354.972656 C 209.386719 354.625 211.5625 353.941406 213.554688 352.996094 C 217.355469 351.191406 220.417969 348.476562 222.167969 345.421875 C 224.832031 340.773438 224.644531 335.019531 223.027344 330.515625 C 221.441406 326.089844 218.601562 323.210938 214.972656 322.078125 C 212.03125 321.160156 208.507812 321.363281 205.886719 322.605469 C 205.171875 322.941406 204.542969 323.351562 204.015625 323.816406 C 201.535156 326.007812 200.710938 330.042969 201.261719 333.03125 C 201.777344 335.820312 203.359375 337.078125 205.121094 337.1875 C 206.105469 337.25 207.316406 336.980469 208.449219 336.441406 C 209.652344 335.871094 210.5 335.128906 210.851562 334.523438 C 211.460938 333.492188 211.027344 332.183594 209.816406 329.554688 L 209.007812 327.804688 L 210.792969 327.078125 C 210.832031 327.0625 210.871094 327.046875 210.910156 327.03125 C 212.070312 326.554688 214.3125 325.636719 216.472656 327.550781 C 218.261719 329.136719 219.804688 332.570312 219.222656 336.5 C 218.6875 340.109375 216.328125 344.273438 211.976562 346.335938 C 211.617188 346.503906 211.246094 346.660156 210.867188 346.800781 C 205.949219 348.582031 199.136719 347.648438 194.003906 344.9375 C 188.726562 342.148438 185.136719 337.460938 183.160156 331.53125 C 181.367188 326.15625 180.890625 319.703125 180.460938 313.902344 L 180.453125 313.765625 C 180.417969 313.296875 180.386719 312.867188 180.351562 312.402344 C 180.121094 309.34375 179.871094 306.414062 179.632812 303.632812 L 179.632812 303.613281 C 179.421875 301.117188 179.21875 298.734375 179.046875 296.488281 C 179.023438 296.128906 178.996094 295.769531 178.96875 295.417969 C 178.921875 294.71875 178.875 294.035156 178.832031 293.367188 Z M 299.886719 291.464844 C 302.058594 293.320312 304.675781 294.859375 308.230469 296.265625 C 312.300781 297.871094 317.539062 299.285156 323.082031 300.683594 C 321.351562 296.613281 319.570312 292.734375 317.367188 289.316406 C 314.585938 285 311.195312 281.523438 306.515625 279.402344 C 306.191406 279.257812 305.863281 279.117188 305.53125 278.984375 C 304.722656 278.855469 303.445312 278.542969 301.699219 278.046875 C 301.613281 278.144531 301.703125 278.34375 301.964844 278.652344 C 303.390625 279.710938 304.167969 280.316406 304.304688 280.460938 C 304.488281 280.691406 304.484375 280.8125 304.289062 280.816406 C 304.105469 280.796875 303.882812 280.714844 303.613281 280.5625 C 301.753906 279.414062 300.835938 278.902344 300.863281 279.027344 C 300.710938 279.066406 302.378906 280.496094 305.863281 283.320312 C 306.742188 284.160156 307.335938 284.828125 307.648438 285.320312 C 307.742188 285.582031 307.507812 285.585938 306.945312 285.332031 C 304.523438 283.964844 303.101562 283.191406 302.683594 283.011719 C 303.660156 283.71875 304.953125 284.757812 306.558594 286.128906 C 308.132812 287.546875 308.851562 288.277344 308.707031 288.320312 C 308.34375 288.386719 307.3125 287.875 305.609375 286.785156 C 303.882812 285.660156 301.78125 284.140625 299.308594 282.230469 C 299.136719 282.105469 298.96875 282.007812 298.808594 281.945312 C 298.636719 281.917969 298.582031 281.96875 298.652344 282.09375 C 298.644531 282.144531 298.832031 282.4375 299.214844 282.976562 L 302.136719 286.292969 C 302.414062 286.632812 302.539062 286.875 302.511719 287.027344 C 302.433594 287.117188 302.152344 287.035156 301.667969 286.785156 C 300.851562 286.320312 299.421875 285.347656 297.386719 283.863281 L 297.421875 284.019531 C 297.667969 284.5625 299.046875 286.050781 301.570312 288.492188 C 301.878906 288.898438 302.011719 289.121094 301.960938 289.167969 L 301.933594 289.175781 L 298.097656 285.964844 L 296.609375 284.671875 L 296.242188 284.304688 C 296.179688 284.257812 296.117188 284.261719 296.054688 284.316406 C 295.871094 284.632812 295.929688 285.125 296.226562 285.800781 C 296.28125 285.933594 296.488281 286.25 296.847656 286.75 L 299.121094 289.804688 C 299.304688 290.121094 299.546875 290.625 299.847656 291.320312 C 299.867188 291.371094 299.878906 291.421875 299.886719 291.464844 Z M 299.886719 291.464844 "/></g></g></svg>