<svg xmlns="http://www.w3.org/2000/svg" xmlns:xlink="http://www.w3.org/1999/xlink" width="500" zoomAndPan="magnify" viewBox="0 0 375 374.999991" height="500" preserveAspectRatio="xMidYMid meet" version="1.2"><defs><clipPath id="2072f8df8f"><path d="M 16.164062 61.648438 L 358.914062 61.648438 L 358.914062 336 L 16.164062 336 Z M 16.164062 61.648438 "/></clipPath></defs><g id="dc7f9fe6ca"><g clip-rule="nonzero" clip-path="url(#2072f8df8f)"><path style=" stroke:none;fill-rule:nonzero;fill:#871a18;fill-opacity:1;" d="M 232.574219 204.039062 C 227.457031 203.527344 222.359375 203.992188 217.308594 203.492188 C 216.414062 203.410156 215.539062 203.277344 214.675781 203.113281 C 226.183594 202.53125 237.191406 198.410156 245.765625 190.460938 C 247.222656 189.101562 248.597656 187.660156 249.757812 186.039062 C 249.90625 185.839844 250.636719 184.699219 250.898438 184.382812 C 251 184.449219 251.113281 184.566406 251.164062 184.613281 C 251.578125 184.996094 251.992188 185.375 252.40625 185.742188 C 252.523438 185.839844 252.636719 185.9375 252.753906 186.039062 C 252.804688 186.089844 252.851562 186.121094 252.902344 186.171875 C 253.152344 186.386719 253.417969 186.617188 253.664062 186.832031 C 253.765625 186.917969 253.847656 186.984375 253.945312 187.066406 C 254.0625 187.164062 254.160156 187.246094 254.277344 187.347656 C 254.507812 187.546875 254.757812 187.726562 254.988281 187.925781 C 255.039062 187.960938 255.070312 187.992188 255.121094 188.027344 C 255.285156 188.160156 255.4375 188.273438 255.601562 188.390625 C 255.949219 188.65625 256.296875 188.921875 256.660156 189.183594 C 256.726562 189.234375 256.792969 189.285156 256.859375 189.335938 C 257.222656 189.582031 257.589844 189.832031 257.953125 190.078125 C 258.101562 190.179688 258.25 190.277344 258.414062 190.378906 C 258.714844 190.578125 259.027344 190.757812 259.34375 190.941406 C 259.507812 191.039062 259.675781 191.140625 259.855469 191.238281 C 260.816406 191.785156 261.84375 192.296875 262.933594 192.777344 C 263.367188 192.960938 263.78125 193.144531 264.210938 193.308594 C 264.359375 193.359375 264.492188 193.410156 264.640625 193.472656 C 265.964844 193.953125 267.304688 194.351562 268.730469 194.667969 C 269.042969 194.734375 270.765625 195.082031 271.03125 195.296875 C 270.964844 195.859375 268.648438 198.292969 268.300781 198.65625 C 263.433594 203.925781 258.152344 207.699219 251.761719 210.828125 C 249.542969 209.457031 247.324219 208.28125 245.039062 207.300781 C 244.875 207.238281 244.722656 207.171875 244.558594 207.105469 C 244.011719 206.871094 243.449219 206.65625 242.902344 206.457031 C 242.703125 206.375 242.488281 206.308594 242.273438 206.226562 C 241.792969 206.0625 241.3125 205.910156 240.835938 205.761719 C 240.503906 205.664062 240.171875 205.5625 239.839844 205.464844 C 239.378906 205.332031 238.898438 205.214844 238.417969 205.101562 C 238.152344 205.035156 237.886719 204.96875 237.621094 204.902344 C 237.507812 204.867188 237.390625 204.851562 237.273438 204.835938 C 236.792969 204.734375 236.332031 204.636719 235.851562 204.554688 C 235.703125 204.519531 235.554688 204.503906 235.402344 204.472656 C 235.289062 204.453125 235.1875 204.4375 235.074219 204.421875 C 235.007812 204.40625 234.941406 204.40625 234.875 204.386719 C 234.128906 204.222656 233.351562 204.121094 232.574219 204.039062 Z M 202.175781 118.058594 C 212.921875 121.75 218.019531 133.640625 231.382812 129.519531 C 235.222656 128.324219 238.683594 125.691406 240.984375 122.398438 C 242.9375 119.597656 244.292969 115.90625 243.382812 112.492188 C 242.886719 110.605469 241.761719 109.097656 240.1875 107.957031 C 238.78125 106.914062 236.925781 106.367188 235.207031 106.234375 C 230.46875 105.851562 226.398438 108.285156 227.359375 113.535156 C 228.21875 118.207031 230.339844 116.734375 233.234375 114.761719 C 233.351562 114.695312 233.449219 114.628906 233.566406 114.578125 C 233.632812 114.546875 233.714844 114.515625 233.78125 114.496094 C 233.847656 114.480469 233.914062 114.449219 233.964844 114.449219 C 234.03125 114.429688 234.097656 114.414062 234.179688 114.414062 C 234.246094 114.414062 234.3125 114.398438 234.359375 114.398438 C 234.425781 114.398438 234.492188 114.398438 234.558594 114.398438 C 234.625 114.398438 234.675781 114.414062 234.742188 114.429688 C 234.808594 114.449219 234.875 114.464844 234.921875 114.480469 C 234.988281 114.496094 235.039062 114.515625 235.089844 114.546875 C 235.140625 114.5625 235.207031 114.597656 235.253906 114.628906 C 235.304688 114.664062 235.355469 114.695312 235.421875 114.730469 C 235.46875 114.761719 235.519531 114.796875 235.570312 114.828125 C 235.617188 114.863281 235.667969 114.910156 235.71875 114.960938 C 235.769531 114.992188 235.800781 115.042969 235.851562 115.09375 C 235.902344 115.144531 235.933594 115.191406 235.964844 115.242188 C 236 115.292969 236.03125 115.34375 236.066406 115.390625 C 236.097656 115.441406 236.132812 115.507812 236.164062 115.574219 C 236.199219 115.625 236.214844 115.671875 236.25 115.722656 C 236.28125 115.789062 236.296875 115.855469 236.3125 115.921875 C 236.332031 115.972656 236.347656 116.019531 236.363281 116.085938 C 236.378906 116.152344 236.398438 116.21875 236.398438 116.285156 C 236.398438 116.335938 236.414062 116.402344 236.414062 116.453125 C 236.414062 116.519531 236.414062 116.601562 236.414062 116.667969 C 236.414062 116.714844 236.414062 116.765625 236.398438 116.832031 C 236.378906 116.898438 236.363281 116.980469 236.347656 117.046875 C 236.332031 117.097656 236.332031 117.148438 236.3125 117.195312 C 236.28125 117.261719 236.25 117.34375 236.214844 117.410156 C 236.199219 117.460938 236.183594 117.511719 236.148438 117.542969 C 236.097656 117.628906 236.03125 117.695312 235.964844 117.777344 C 235.933594 117.808594 235.917969 117.84375 235.882812 117.875 C 235.785156 117.976562 235.667969 118.074219 235.519531 118.171875 C 233.351562 119.648438 230.917969 120.988281 228.664062 120.773438 C 228.582031 120.773438 228.5 120.757812 228.417969 120.742188 C 228.234375 120.707031 228.070312 120.675781 227.902344 120.625 C 227.871094 120.609375 227.839844 120.609375 227.804688 120.609375 C 227.605469 120.542969 227.390625 120.460938 227.191406 120.375 C 227.125 120.34375 227.078125 120.308594 227.011719 120.277344 C 226.878906 120.210938 226.730469 120.128906 226.597656 120.027344 C 226.53125 119.980469 226.449219 119.929688 226.382812 119.878906 C 226.25 119.78125 226.132812 119.679688 226 119.566406 C 225.933594 119.5 225.867188 119.449219 225.800781 119.382812 C 225.667969 119.25 225.535156 119.117188 225.421875 118.96875 C 225.371094 118.902344 225.304688 118.835938 225.253906 118.769531 C 225.074219 118.539062 224.890625 118.304688 224.726562 118.023438 C 222.953125 115.242188 222.605469 111.484375 223.816406 108.417969 C 225.386719 104.445312 229.046875 102.539062 233.152344 102.226562 C 233.53125 102.191406 233.898438 102.175781 234.261719 102.175781 C 234.378906 102.175781 234.511719 102.175781 234.625 102.175781 C 234.875 102.175781 235.121094 102.175781 235.371094 102.191406 C 235.519531 102.210938 235.652344 102.210938 235.800781 102.226562 C 236.015625 102.242188 236.25 102.257812 236.464844 102.292969 C 236.613281 102.308594 236.761719 102.339844 236.910156 102.359375 C 237.125 102.390625 237.339844 102.425781 237.539062 102.472656 C 237.6875 102.507812 237.835938 102.539062 237.988281 102.574219 C 238.183594 102.625 238.402344 102.671875 238.597656 102.738281 C 238.75 102.789062 238.898438 102.839844 239.046875 102.871094 C 239.246094 102.9375 239.445312 103.003906 239.625 103.085938 C 239.773438 103.136719 239.921875 103.203125 240.074219 103.269531 C 240.253906 103.351562 240.4375 103.433594 240.636719 103.519531 C 240.785156 103.582031 240.933594 103.667969 241.066406 103.734375 C 241.347656 103.882812 241.613281 104.03125 241.878906 104.195312 C 241.894531 103.699219 241.941406 103.234375 241.992188 102.753906 C 241.992188 102.738281 241.992188 102.722656 241.992188 102.722656 C 242.007812 102.605469 242.027344 102.472656 242.042969 102.359375 C 242.109375 101.992188 242.175781 101.613281 242.257812 101.265625 C 242.273438 101.214844 242.273438 101.164062 242.289062 101.117188 C 242.308594 101.066406 242.324219 101 242.324219 100.949219 C 242.441406 100.535156 242.554688 100.140625 242.703125 99.742188 C 242.703125 99.726562 242.722656 99.707031 242.722656 99.691406 C 242.753906 99.625 242.769531 99.542969 242.804688 99.476562 C 242.820312 99.445312 242.835938 99.410156 242.855469 99.378906 C 242.984375 99.03125 243.136719 98.699219 243.300781 98.367188 C 243.351562 98.269531 243.382812 98.183594 243.433594 98.085938 C 243.449219 98.050781 243.464844 98.035156 243.484375 98.003906 C 243.664062 97.65625 243.847656 97.324219 244.046875 96.992188 C 244.09375 96.925781 244.128906 96.859375 244.179688 96.792969 C 244.195312 96.761719 244.226562 96.726562 244.246094 96.695312 C 244.460938 96.363281 244.691406 96.03125 244.921875 95.699219 C 244.921875 95.699219 244.941406 95.683594 244.941406 95.683594 C 245.007812 95.585938 245.089844 95.503906 245.15625 95.402344 C 245.386719 95.105469 245.636719 94.824219 245.882812 94.542969 C 245.898438 94.523438 245.917969 94.507812 245.933594 94.492188 C 246 94.425781 246.050781 94.359375 246.117188 94.292969 C 246.398438 93.980469 246.710938 93.679688 247.027344 93.382812 C 247.109375 93.316406 247.175781 93.234375 247.257812 93.167969 C 247.257812 93.167969 247.273438 93.167969 247.273438 93.152344 C 247.273438 93.152344 247.289062 93.132812 247.289062 93.132812 C 247.589844 92.871094 247.886719 92.605469 248.199219 92.339844 C 248.285156 92.273438 248.367188 92.207031 248.449219 92.140625 C 248.464844 92.125 248.484375 92.105469 248.5 92.089844 C 248.832031 91.824219 249.179688 91.5625 249.542969 91.3125 C 249.625 91.246094 249.707031 91.195312 249.808594 91.128906 C 250.15625 90.882812 250.519531 90.648438 250.882812 90.433594 C 250.898438 90.417969 250.917969 90.417969 250.933594 90.402344 C 251.015625 90.351562 251.113281 90.300781 251.199219 90.234375 C 251.5625 90.019531 251.910156 89.820312 252.289062 89.625 C 252.308594 89.605469 252.324219 89.605469 252.339844 89.589844 C 252.355469 89.574219 252.390625 89.574219 252.40625 89.558594 C 252.472656 89.523438 252.539062 89.492188 252.621094 89.441406 C 253.019531 89.226562 253.417969 89.027344 253.828125 88.84375 C 253.929688 88.796875 254.011719 88.761719 254.113281 88.710938 C 254.507812 88.53125 254.90625 88.363281 255.320312 88.199219 C 255.402344 88.164062 255.484375 88.132812 255.570312 88.101562 C 255.585938 88.082031 255.617188 88.082031 255.632812 88.066406 C 256.082031 87.902344 256.527344 87.734375 256.976562 87.585938 C 257.007812 87.570312 257.023438 87.570312 257.058594 87.554688 C 257.089844 87.535156 257.125 87.535156 257.140625 87.519531 C 257.589844 87.371094 258.019531 87.238281 258.464844 87.121094 C 258.53125 87.105469 258.597656 87.089844 258.664062 87.074219 C 258.796875 87.039062 258.945312 86.988281 259.078125 86.957031 C 259.175781 86.925781 259.292969 86.90625 259.394531 86.875 C 259.507812 86.839844 259.640625 86.808594 259.757812 86.792969 C 259.871094 86.757812 259.988281 86.742188 260.121094 86.707031 C 260.203125 86.691406 260.304688 86.675781 260.386719 86.640625 C 260.550781 86.609375 260.699219 86.574219 260.867188 86.542969 C 261.046875 86.511719 261.214844 86.476562 261.394531 86.445312 C 261.542969 86.410156 261.710938 86.394531 261.859375 86.359375 C 261.941406 86.34375 262.023438 86.328125 262.109375 86.328125 C 262.238281 86.3125 262.355469 86.292969 262.488281 86.261719 C 262.671875 86.226562 262.871094 86.210938 263.050781 86.179688 C 263.234375 86.164062 263.398438 86.128906 263.582031 86.113281 C 263.761719 86.097656 263.945312 86.0625 264.144531 86.046875 C 264.328125 86.03125 264.507812 86.011719 264.671875 85.996094 C 264.855469 85.980469 265.039062 85.964844 265.21875 85.964844 C 265.402344 85.945312 265.601562 85.945312 265.78125 85.945312 C 265.949219 85.945312 266.113281 85.929688 266.28125 85.929688 C 267.371094 85.914062 268.433594 85.964844 269.457031 86.078125 C 269.542969 78.691406 267.902344 76.292969 260.269531 74.667969 C 257.257812 74.023438 254.261719 73.824219 251.214844 73.476562 C 248.648438 73.179688 245.898438 72.730469 243.664062 71.355469 C 242.953125 70.925781 242.308594 70.394531 241.726562 69.785156 L 241.679688 69.734375 C 240.253906 68.195312 239.425781 66.390625 239.0625 64.335938 C 238.996094 63.988281 238.847656 62.363281 238.730469 61.636719 C 237.574219 61.835938 235.734375 62.546875 234.90625 62.960938 C 232.425781 64.152344 230.253906 65.957031 229.011719 68.476562 C 228.152344 70.230469 227.65625 71.96875 227.257812 73.875 C 226.925781 75.429688 226.644531 77.070312 225.96875 78.511719 C 224.144531 82.417969 219.542969 83.761719 215.671875 84.605469 C 208.433594 86.179688 206.597656 87.75 204.910156 94.972656 L 204.890625 95.054688 C 204.378906 97.191406 203.535156 99.078125 201.796875 100.503906 C 200.605469 101.464844 199.148438 102.09375 197.757812 102.722656 C 195.9375 103.535156 194.230469 104.328125 192.527344 105.390625 C 187.855469 108.285156 184.894531 113.636719 186.019531 119.117188 C 190.621094 116.683594 197.394531 116.417969 202.175781 118.058594 Z M 262.4375 90.367188 C 257.058594 91.296875 251.710938 93.945312 248.417969 97.804688 C 242.242188 105.058594 248.382812 119.332031 258.730469 116.039062 C 261.84375 115.058594 264.210938 112.890625 263.847656 109.414062 C 263.648438 107.460938 262.238281 104.644531 260.121094 104.246094 C 259.34375 104.097656 258.265625 104.246094 257.488281 104.660156 C 257.488281 104.660156 257.488281 104.660156 257.488281 104.644531 C 257.472656 104.660156 257.457031 104.660156 257.4375 104.675781 C 257.257812 104.777344 257.109375 104.875 256.960938 104.992188 C 256.03125 105.820312 256.859375 109.480469 253.945312 109.015625 C 253.367188 108.917969 252.953125 108.667969 252.671875 108.304688 C 252.65625 108.269531 252.636719 108.238281 252.605469 108.203125 C 252.539062 108.121094 252.488281 108.023438 252.457031 107.9375 C 252.4375 107.890625 252.421875 107.839844 252.390625 107.789062 C 252.355469 107.707031 252.324219 107.609375 252.308594 107.523438 C 252.289062 107.476562 252.273438 107.410156 252.273438 107.359375 C 252.257812 107.261719 252.242188 107.160156 252.242188 107.046875 C 252.242188 106.996094 252.222656 106.929688 252.222656 106.878906 C 252.222656 106.730469 252.222656 106.597656 252.222656 106.449219 C 252.222656 106.433594 252.222656 106.414062 252.222656 106.382812 C 252.242188 106.21875 252.257812 106.035156 252.289062 105.871094 C 252.308594 105.820312 252.308594 105.753906 252.324219 105.703125 C 252.339844 105.585938 252.375 105.457031 252.40625 105.324219 C 252.421875 105.257812 252.4375 105.191406 252.457031 105.140625 C 252.488281 105.023438 252.523438 104.890625 252.570312 104.777344 C 252.589844 104.710938 252.605469 104.660156 252.636719 104.59375 C 252.6875 104.460938 252.738281 104.328125 252.785156 104.195312 C 252.804688 104.164062 252.820312 104.113281 252.835938 104.082031 C 252.902344 103.914062 252.984375 103.75 253.070312 103.582031 C 253.085938 103.550781 253.101562 103.519531 253.117188 103.484375 C 253.183594 103.351562 253.25 103.234375 253.316406 103.121094 C 253.351562 103.070312 253.382812 103.019531 253.398438 102.972656 C 253.464844 102.871094 253.515625 102.773438 253.582031 102.691406 C 253.613281 102.640625 253.648438 102.589844 253.679688 102.558594 C 253.746094 102.472656 253.8125 102.390625 253.878906 102.308594 C 253.914062 102.277344 253.945312 102.242188 253.960938 102.210938 C 254.0625 102.109375 254.144531 102.011719 254.242188 101.929688 C 254.542969 101.664062 254.875 101.414062 255.203125 101.214844 C 256.726562 100.273438 258.332031 99.941406 259.890625 100.105469 C 260.1875 100.140625 260.5 100.1875 260.800781 100.253906 C 260.882812 100.273438 260.949219 100.289062 261.03125 100.320312 C 261.246094 100.371094 261.460938 100.4375 261.675781 100.519531 C 261.777344 100.554688 261.859375 100.585938 261.941406 100.621094 C 262.140625 100.703125 262.339844 100.785156 262.539062 100.882812 C 262.621094 100.917969 262.703125 100.96875 262.769531 101 C 263.035156 101.132812 263.285156 101.28125 263.53125 101.449219 C 263.53125 101.449219 263.546875 101.449219 263.546875 101.464844 C 263.796875 101.628906 264.042969 101.828125 264.292969 102.027344 C 264.359375 102.09375 264.425781 102.144531 264.507812 102.210938 C 264.675781 102.359375 264.839844 102.507812 264.988281 102.671875 C 265.070312 102.753906 265.136719 102.820312 265.203125 102.90625 C 265.351562 103.070312 265.5 103.234375 265.632812 103.417969 C 265.699219 103.5 265.75 103.566406 265.816406 103.648438 C 266 103.914062 266.179688 104.179688 266.347656 104.445312 C 271.578125 103.386719 277.089844 108.867188 278.648438 113.503906 C 279.375 115.691406 279.589844 117.726562 279.589844 120.011719 C 279.589844 120.9375 279.457031 122.792969 279.9375 123.589844 C 280.003906 123.703125 280.085938 123.820312 280.203125 123.902344 C 280.269531 123.953125 280.335938 124.003906 280.417969 124.050781 C 280.449219 124.070312 280.484375 124.085938 280.515625 124.101562 C 280.566406 124.136719 280.632812 124.152344 280.699219 124.183594 C 280.75 124.203125 280.78125 124.21875 280.832031 124.234375 C 280.898438 124.25 280.949219 124.285156 281.015625 124.300781 C 281.0625 124.316406 281.128906 124.335938 281.179688 124.335938 C 281.246094 124.351562 281.3125 124.367188 281.378906 124.382812 C 281.445312 124.402344 281.492188 124.402344 281.558594 124.417969 C 281.625 124.433594 281.710938 124.433594 281.777344 124.449219 C 281.839844 124.464844 281.90625 124.464844 281.972656 124.464844 C 282.058594 124.484375 282.125 124.484375 282.207031 124.5 C 282.273438 124.5 282.339844 124.515625 282.421875 124.515625 C 282.503906 124.515625 282.585938 124.53125 282.667969 124.53125 C 282.734375 124.53125 282.800781 124.53125 282.867188 124.550781 C 282.949219 124.550781 283.050781 124.566406 283.132812 124.566406 C 283.199219 124.566406 283.265625 124.566406 283.332031 124.566406 C 283.429688 124.566406 283.515625 124.566406 283.613281 124.582031 C 283.679688 124.582031 283.730469 124.582031 283.796875 124.582031 C 283.894531 124.582031 283.992188 124.582031 284.09375 124.582031 C 284.144531 124.582031 284.191406 124.582031 284.242188 124.582031 C 284.359375 124.582031 284.457031 124.582031 284.574219 124.582031 C 284.605469 124.582031 284.640625 124.582031 284.671875 124.582031 C 285.035156 124.582031 285.367188 124.582031 285.664062 124.582031 C 285.664062 124.582031 285.683594 124.582031 285.683594 124.582031 C 285.765625 124.582031 285.847656 124.582031 285.929688 124.582031 C 285.980469 124.582031 286.011719 124.582031 286.0625 124.582031 C 286.113281 124.582031 286.164062 124.582031 286.210938 124.582031 C 286.277344 124.582031 286.363281 124.582031 286.410156 124.582031 C 287.023438 124.597656 287.621094 124.632812 288.214844 124.683594 C 288.332031 124.699219 288.429688 124.699219 288.546875 124.714844 C 288.664062 124.730469 288.761719 124.730469 288.878906 124.75 C 289.257812 124.78125 289.621094 124.832031 290.003906 124.878906 C 290.203125 124.914062 290.382812 124.929688 290.582031 124.964844 C 291.011719 125.03125 291.425781 125.113281 291.859375 125.195312 C 292.007812 125.226562 292.15625 125.261719 292.320312 125.292969 C 292.882812 125.425781 293.429688 125.558594 293.992188 125.726562 C 295.402344 126.140625 296.792969 126.667969 298.199219 127.316406 C 298.148438 122.777344 295.714844 114.480469 294.175781 110.6875 C 291.230469 103.46875 285.21875 96.84375 278.082031 93.101562 C 273.367188 90.601562 267.753906 89.441406 262.4375 90.367188 Z M 200.324219 262.085938 C 209.378906 258.078125 216.546875 256.421875 223.765625 248.984375 C 224.113281 248.621094 224.542969 248.242188 224.710938 247.761719 C 224.839844 247.347656 225.4375 247.015625 225.785156 246.800781 C 226.710938 246.152344 230.984375 239.59375 231.878906 238.171875 C 235.488281 232.523438 238.269531 228.449219 243.980469 224.691406 C 246.894531 222.769531 250.054688 221.261719 253.464844 220.453125 C 254.441406 220.21875 255.417969 220.054688 256.414062 219.921875 C 256.5625 219.90625 256.941406 219.855469 257.257812 219.804688 C 257.074219 219.640625 256.875 219.476562 256.777344 219.390625 C 252.523438 215.816406 246.214844 211.824219 240.964844 209.984375 C 236 208.246094 230.902344 207.980469 225.6875 207.867188 C 220.835938 207.75 215.734375 207.800781 211.035156 206.425781 C 209.792969 206.0625 208.601562 205.613281 207.441406 205.035156 C 203.039062 202.863281 199.03125 198.941406 195.007812 196.058594 C 189.347656 192 183.734375 189.683594 176.765625 188.921875 C 170.871094 188.273438 165.472656 189.054688 159.628906 189.402344 C 153.386719 189.78125 148.125 189.300781 142.28125 186.832031 C 136.964844 184.597656 132.046875 181.484375 126.800781 179.082031 C 121.089844 176.484375 115.558594 175.042969 109.25 175.605469 C 98.625 176.53125 92.515625 183.984375 91.386719 194.269531 C 90.445312 202.847656 92.332031 207.519531 98.691406 213.3125 C 101.453125 215.832031 105.511719 218.796875 109.351562 219.125 C 113.621094 219.492188 118.9375 218.316406 121.882812 215.003906 C 124.980469 211.527344 125.160156 207.882812 124.847656 203.445312 C 124.699219 201.375 122.878906 199.222656 121.355469 197.929688 C 119.796875 196.605469 116.289062 194.386719 114.183594 195.578125 C 112.398438 196.589844 110.3125 199.121094 111.652344 201.207031 C 111.96875 201.707031 112.414062 202.183594 112.761719 202.699219 C 112.8125 202.765625 112.859375 202.847656 112.894531 202.929688 C 112.945312 203.011719 112.992188 203.097656 113.042969 203.179688 C 113.078125 203.246094 113.109375 203.3125 113.140625 203.378906 C 113.175781 203.460938 113.226562 203.542969 113.257812 203.625 C 113.292969 203.691406 113.308594 203.773438 113.339844 203.839844 C 113.375 203.925781 113.40625 204.007812 113.425781 204.074219 C 113.441406 204.15625 113.457031 204.222656 113.472656 204.304688 C 113.488281 204.386719 113.507812 204.453125 113.507812 204.535156 C 113.507812 204.621094 113.507812 204.6875 113.488281 204.769531 C 113.488281 204.820312 113.488281 204.851562 113.488281 204.902344 C 113.488281 204.949219 113.472656 205 113.457031 205.050781 C 113.441406 205.101562 113.425781 205.167969 113.390625 205.214844 C 113.375 205.25 113.375 205.28125 113.359375 205.296875 C 113.339844 205.347656 113.324219 205.382812 113.292969 205.429688 C 113.242188 205.496094 113.191406 205.5625 113.140625 205.628906 C 113.125 205.648438 113.125 205.664062 113.109375 205.679688 C 113.078125 205.710938 113.042969 205.746094 113.011719 205.796875 C 112.894531 205.894531 112.746094 205.996094 112.5625 206.09375 C 110.425781 207.121094 108.011719 203.890625 107.464844 202.152344 C 106.074219 197.78125 109.382812 192.496094 113.738281 191.4375 C 117.445312 190.527344 121.882812 192.746094 124.53125 195.261719 C 126.453125 197.101562 127.363281 198.675781 128.375 201.09375 C 128.621094 201.707031 129.5 201.40625 130.113281 201.40625 C 131.617188 201.421875 133.125 201.574219 134.613281 201.855469 C 144.847656 203.707031 153.800781 210.199219 164.050781 211.441406 C 167.011719 211.808594 170.078125 211.824219 173.054688 211.824219 C 176.996094 211.839844 181.285156 211.722656 185.175781 212.371094 L 185.222656 212.371094 L 192.675781 214.175781 L 192.757812 214.207031 C 198.039062 216.394531 202.011719 221.097656 205.15625 225.703125 C 206.5 227.671875 209.179688 231.664062 207.65625 234.113281 C 206.695312 235.671875 204.261719 236.265625 202.589844 236.664062 C 200.042969 237.277344 197.542969 237.773438 195.089844 238.785156 C 189.378906 241.152344 183.636719 245.457031 179.53125 250.078125 C 177.460938 252.414062 175.722656 254.882812 173.851562 257.347656 C 171.136719 260.925781 168.488281 263.640625 164.777344 266.226562 C 157.972656 270.976562 149.414062 273.710938 141.105469 272.085938 C 137 271.292969 132.925781 269.472656 129.199219 267.601562 C 124.980469 265.464844 120.875 263.078125 116.71875 260.828125 C 108.472656 256.40625 98.738281 251.816406 89.152344 253.605469 C 87.53125 253.902344 85.890625 254.285156 84.585938 253.011719 C 81.324219 249.796875 85.976562 243.058594 88.542969 240.6875 C 94.46875 235.191406 100.363281 234.214844 108.175781 234.195312 C 116.140625 234.179688 117.230469 233.105469 123.820312 229.128906 C 130.226562 225.253906 136.632812 223.066406 143.917969 226.082031 C 152.976562 229.824219 156.816406 240.140625 148.488281 246.964844 C 145.574219 249.351562 141.800781 250.476562 138.089844 249.613281 C 135.195312 248.9375 132.378906 246.964844 131.46875 244.015625 C 131.171875 243.039062 131.105469 241.996094 131.285156 240.988281 C 131.617188 239.28125 132.578125 237.707031 134.003906 236.699219 C 134.085938 236.648438 134.167969 236.597656 134.25 236.53125 C 134.316406 236.5 134.367188 236.449219 134.433594 236.417969 C 134.5 236.382812 134.582031 236.332031 134.648438 236.300781 C 134.714844 236.265625 134.78125 236.234375 134.847656 236.199219 C 134.929688 236.167969 134.996094 236.132812 135.078125 236.101562 C 135.144531 236.066406 135.226562 236.035156 135.292969 236.019531 C 135.375 235.984375 135.460938 235.96875 135.542969 235.953125 C 135.609375 235.9375 135.691406 235.902344 135.757812 235.886719 C 135.839844 235.871094 135.921875 235.851562 136.023438 235.851562 C 136.089844 235.835938 136.171875 235.835938 136.238281 235.820312 C 136.320312 235.820312 136.417969 235.820312 136.503906 235.835938 C 136.566406 235.835938 136.632812 235.835938 136.699219 235.851562 C 136.800781 235.871094 136.898438 235.902344 136.980469 235.9375 C 137.03125 235.953125 137.082031 235.953125 137.132812 235.984375 C 137.28125 236.050781 137.414062 236.117188 137.527344 236.21875 C 137.660156 236.316406 137.761719 236.449219 137.859375 236.582031 C 137.875 236.613281 137.910156 236.648438 137.925781 236.699219 C 137.992188 236.832031 138.058594 236.960938 138.089844 237.09375 C 138.125 237.226562 138.15625 237.375 138.175781 237.527344 C 138.191406 237.707031 138.175781 237.875 138.140625 238.023438 C 138.125 238.070312 138.109375 238.121094 138.109375 238.171875 C 138.074219 238.269531 138.058594 238.371094 138.007812 238.46875 C 137.992188 238.519531 137.957031 238.570312 137.941406 238.617188 C 137.894531 238.703125 137.84375 238.785156 137.792969 238.851562 C 137.761719 238.898438 137.726562 238.933594 137.695312 238.984375 C 137.628906 239.050781 137.5625 239.132812 137.496094 239.199219 C 136.402344 240.273438 134.480469 240.820312 135.609375 243.304688 C 135.722656 243.570312 135.871094 243.820312 136.054688 244.035156 C 137.378906 245.707031 139.894531 246.039062 141.867188 245.691406 C 144.582031 245.226562 146.882812 243.539062 148.171875 241.121094 C 148.820312 239.925781 149.101562 238.601562 148.933594 237.261719 C 148.554688 234.261719 146.171875 231.863281 143.621094 230.488281 C 140.359375 228.730469 136.484375 228.351562 132.925781 229.34375 C 129.332031 230.339844 126.667969 232.125 123.570312 234.066406 C 119.566406 236.566406 116.238281 238.054688 111.421875 238.269531 C 103.375 238.617188 97.777344 237.691406 91.339844 243.703125 C 89.734375 245.191406 88.078125 247.378906 87.695312 249.582031 L 87.648438 249.847656 C 87.929688 249.765625 88.257812 249.664062 88.441406 249.632812 C 89.585938 249.367188 90.742188 249.234375 91.902344 249.152344 C 100.3125 248.570312 109.085938 252.363281 116.421875 256.105469 C 121.039062 258.457031 125.507812 261.058594 130.113281 263.425781 C 133.703125 265.28125 137.925781 267.335938 141.898438 268.113281 C 151.320312 269.953125 161.402344 265.117188 167.757812 258.324219 C 169.628906 256.320312 171.203125 254.234375 172.808594 252.03125 C 175.589844 248.242188 178.105469 245.34375 181.765625 242.3125 C 186.464844 238.402344 191.714844 235.191406 197.675781 233.601562 C 199.214844 233.1875 200.71875 232.9375 202.292969 232.65625 C 202.574219 232.605469 203.800781 232.390625 203.949219 232.109375 C 204.246094 231.5625 202.0625 228.46875 201.761719 228.035156 C 199.097656 224.144531 195.636719 219.871094 191.167969 218.015625 C 189.113281 217.171875 184.214844 216.3125 181.945312 216.128906 C 175.820312 215.648438 169.644531 216.261719 163.535156 215.515625 C 151.75 214.09375 142.113281 206.359375 130.34375 205.398438 C 130.027344 205.363281 129.464844 205.347656 129.234375 205.628906 C 128.902344 206.027344 128.9375 207.585938 128.902344 208.113281 C 128.871094 208.609375 128.804688 209.109375 128.738281 209.589844 C 128.722656 209.71875 128.6875 209.851562 128.671875 209.984375 C 128.605469 210.367188 128.523438 210.746094 128.421875 211.128906 C 128.375 211.292969 128.339844 211.460938 128.289062 211.625 C 128.207031 211.941406 128.109375 212.253906 127.992188 212.550781 C 127.941406 212.683594 127.894531 212.816406 127.84375 212.949219 C 127.828125 212.984375 127.808594 213.015625 127.792969 213.050781 C 127.660156 213.398438 127.511719 213.726562 127.347656 214.058594 C 127.296875 214.160156 127.246094 214.257812 127.199219 214.359375 C 127 214.738281 126.785156 215.121094 126.550781 215.484375 C 126.484375 215.597656 126.402344 215.714844 126.320312 215.832031 C 126.15625 216.078125 125.988281 216.3125 125.824219 216.542969 C 125.59375 216.859375 125.34375 217.15625 125.078125 217.453125 C 124.996094 217.554688 124.898438 217.667969 124.8125 217.769531 C 124.765625 217.820312 124.730469 217.867188 124.679688 217.917969 C 124.332031 218.28125 123.96875 218.628906 123.589844 218.960938 C 122.296875 220.070312 120.789062 221 119.085938 221.726562 C 114.53125 223.664062 108.472656 224.046875 103.921875 221.875 C 103.191406 221.527344 102.480469 221.164062 101.800781 220.78125 C 101.734375 220.75 101.652344 220.699219 101.585938 220.667969 C 101.40625 220.566406 101.238281 220.453125 101.058594 220.351562 C 100.558594 220.054688 100.082031 219.773438 99.617188 219.457031 C 99.167969 219.160156 98.722656 218.84375 98.292969 218.53125 C 98.175781 218.449219 98.058594 218.347656 97.945312 218.265625 C 97.546875 217.953125 97.148438 217.621094 96.753906 217.289062 C 96.652344 217.207031 96.554688 217.125 96.453125 217.023438 C 96.238281 216.839844 96.039062 216.660156 95.84375 216.460938 C 95.644531 216.277344 95.460938 216.078125 95.277344 215.898438 C 95.082031 215.699219 94.882812 215.5 94.699219 215.300781 C 94.519531 215.101562 94.335938 214.902344 94.152344 214.6875 C 93.90625 214.40625 93.65625 214.140625 93.425781 213.84375 C 92.480469 212.683594 90.527344 209.605469 89.1875 209.089844 C 88.476562 208.828125 87.714844 208.976562 87.019531 209.242188 C 85.644531 209.738281 84.320312 210.285156 83.027344 210.894531 L 83.027344 210.898438 C 79.269531 212.667969 75.859375 214.902344 72.679688 217.753906 C 69.15625 220.914062 66.242188 224.527344 63.144531 228.070312 C 59.453125 232.292969 55.8125 235.902344 50.894531 238.71875 C 46.605469 241.167969 41.027344 242.210938 36.242188 243.355469 C 26.175781 245.773438 18.113281 248.886719 16.625 260.460938 C 16.476562 261.65625 16.242188 266.027344 16.972656 267.402344 C 17.386719 267.136719 18.03125 266.640625 18.28125 266.457031 C 19.257812 265.761719 20.25 265.066406 21.292969 264.46875 C 21.957031 264.089844 22.652344 263.726562 23.378906 263.460938 C 27.351562 261.9375 32.734375 261.785156 36.871094 262.730469 C 42.101562 263.921875 47.269531 267.816406 51.835938 270.597656 C 55.976562 273.113281 60.445312 275.398438 65.378906 275.515625 C 68.425781 275.582031 71.539062 275.085938 74.519531 274.539062 C 77.367188 274.007812 80.179688 273.414062 83.027344 272.949219 C 83.523438 272.867188 84.023438 272.800781 84.519531 272.71875 C 92.199219 271.640625 99.167969 272.105469 105.992188 276.160156 C 111.007812 279.160156 115.328125 283.214844 120.097656 286.578125 C 125.640625 290.503906 131.121094 293.035156 137.941406 293.863281 C 149.433594 295.273438 165.574219 289.441406 174.894531 282.820312 C 177.261719 281.128906 179.445312 279.273438 181.515625 277.222656 C 183.269531 275.484375 184.910156 273.644531 186.632812 271.871094 C 190.871094 267.433594 194.742188 264.550781 200.324219 262.085938 Z M 67.101562 310.011719 C 67.117188 309.84375 67.152344 309.679688 67.167969 309.515625 C 67.203125 309.300781 67.234375 309.082031 67.285156 308.867188 C 67.582031 307.476562 68.144531 306.152344 68.972656 304.976562 C 69.238281 304.597656 69.535156 304.230469 69.851562 303.882812 C 69.949219 303.769531 70.066406 303.667969 70.179688 303.550781 C 70.394531 303.335938 70.613281 303.105469 70.828125 302.90625 C 70.960938 302.789062 71.109375 302.675781 71.257812 302.558594 C 71.472656 302.394531 71.6875 302.210938 71.902344 302.046875 C 72.070312 301.929688 72.234375 301.832031 72.398438 301.730469 C 74.203125 300.570312 76.289062 299.828125 78.425781 299.445312 C 79.949219 299.179688 81.539062 299.128906 83.09375 299.28125 C 83.855469 299.347656 84.601562 299.460938 85.328125 299.628906 L 85.410156 299.644531 C 91.289062 300.953125 95.5625 304.894531 97.546875 309.730469 C 96.785156 298.550781 99.253906 289.757812 106.007812 280.914062 C 105.558594 280.597656 105.113281 280.316406 104.667969 280.054688 C 104.550781 279.96875 104.417969 279.902344 104.300781 279.835938 C 103.953125 279.621094 103.589844 279.421875 103.242188 279.242188 C 103.144531 279.191406 103.042969 279.140625 102.960938 279.09375 C 102.53125 278.859375 102.101562 278.660156 101.667969 278.464844 C 101.570312 278.414062 101.472656 278.378906 101.371094 278.332031 C 101.023438 278.183594 100.691406 278.03125 100.34375 277.898438 C 100.230469 277.851562 100.113281 277.800781 99.980469 277.769531 C 99.566406 277.617188 99.136719 277.46875 98.722656 277.335938 C 98.722656 277.335938 98.707031 277.335938 98.707031 277.335938 C 98.691406 277.335938 98.671875 277.320312 98.65625 277.320312 C 98.242188 277.1875 97.84375 277.089844 97.449219 276.988281 C 97.332031 276.957031 97.199219 276.921875 97.082031 276.90625 C 97.015625 276.890625 96.933594 276.875 96.867188 276.855469 C 96.820312 276.839844 96.785156 276.839844 96.734375 276.824219 C 96.519531 276.773438 96.289062 276.742188 96.074219 276.691406 C 95.972656 276.675781 95.890625 276.65625 95.792969 276.640625 C 95.511719 276.59375 95.230469 276.542969 94.964844 276.507812 C 94.898438 276.492188 94.847656 276.492188 94.78125 276.476562 C 94.765625 276.476562 94.765625 276.476562 94.75 276.476562 C 94.683594 276.460938 94.617188 276.460938 94.566406 276.460938 C 94.46875 276.441406 94.351562 276.441406 94.253906 276.425781 C 93.988281 276.394531 93.722656 276.375 93.457031 276.34375 C 93.375 276.34375 93.292969 276.328125 93.210938 276.328125 C 93.128906 276.328125 93.042969 276.308594 92.976562 276.308594 C 92.929688 276.308594 92.863281 276.308594 92.8125 276.292969 C 92.5625 276.277344 92.300781 276.261719 92.050781 276.261719 C 91.984375 276.261719 91.902344 276.261719 91.835938 276.261719 C 91.785156 276.261719 91.738281 276.261719 91.6875 276.261719 C 91.652344 276.261719 91.605469 276.261719 91.570312 276.261719 C 91.421875 276.261719 91.289062 276.261719 91.140625 276.261719 C 91.042969 276.261719 90.957031 276.261719 90.859375 276.261719 C 90.742188 276.261719 90.644531 276.261719 90.527344 276.261719 C 90.476562 276.261719 90.429688 276.261719 90.378906 276.261719 C 90.261719 276.261719 90.164062 276.261719 90.046875 276.277344 C 89.933594 276.277344 89.816406 276.277344 89.699219 276.292969 C 89.699219 276.292969 89.683594 276.292969 89.683594 276.292969 C 89.601562 276.292969 89.5 276.292969 89.417969 276.308594 C 89.367188 276.308594 89.320312 276.308594 89.269531 276.308594 C 89.171875 276.308594 89.054688 276.328125 88.953125 276.328125 C 88.605469 276.34375 88.277344 276.375 87.929688 276.410156 C 87.796875 276.425781 87.664062 276.425781 87.515625 276.441406 C 87.414062 276.460938 87.332031 276.460938 87.234375 276.476562 C 87.066406 276.492188 86.886719 276.507812 86.71875 276.542969 C 86.621094 276.558594 86.503906 276.558594 86.40625 276.574219 C 86.289062 276.59375 86.171875 276.59375 86.058594 276.609375 C 85.84375 276.640625 85.628906 276.675781 85.414062 276.691406 C 85.230469 276.722656 85.03125 276.742188 84.832031 276.773438 C 84.75 276.789062 84.667969 276.789062 84.585938 276.808594 C 84.136719 276.875 83.691406 276.941406 83.242188 277.023438 C 83.195312 277.039062 83.144531 277.039062 83.09375 277.039062 C 82.300781 277.171875 81.472656 277.320312 80.660156 277.46875 C 80.363281 277.519531 80.046875 277.585938 79.75 277.636719 C 79.417969 277.703125 79.105469 277.75 78.773438 277.816406 C 76.753906 278.199219 74.667969 278.597656 72.480469 278.945312 C 71.804688 279.042969 71.125 279.140625 70.445312 279.242188 C 68.460938 279.488281 66.457031 279.640625 64.453125 279.507812 C 59.386719 287.074219 58.394531 293.996094 49.15625 298.054688 C 43.757812 300.421875 37.800781 300.984375 32.882812 304.511719 C 29.621094 306.847656 27.980469 310.34375 27.699219 314.285156 C 27.601562 315.722656 27.667969 317.230469 27.964844 318.65625 C 28.03125 319.019531 28.3125 320.164062 28.59375 320.59375 C 29.171875 320.410156 30.648438 319.449219 30.996094 319.234375 C 32.78125 318.175781 34.554688 317.347656 36.574219 316.816406 C 43.839844 314.929688 51.175781 317.84375 57.269531 321.703125 C 63.59375 325.695312 67.632812 329.617188 75.527344 330.148438 C 78.027344 330.3125 80.644531 330.097656 83.109375 329.4375 C 86.421875 328.542969 89.484375 326.851562 91.71875 324.171875 L 91.769531 324.121094 C 97.996094 316.570312 93.9375 305.789062 84.550781 303.683594 L 84.46875 303.667969 C 84.019531 303.570312 83.574219 303.484375 83.109375 303.4375 C 80.480469 303.121094 77.746094 303.535156 75.394531 304.792969 C 73.359375 305.886719 71.40625 307.808594 71.140625 310.210938 C 70.992188 311.453125 71.339844 312.628906 72.035156 313.671875 C 72.433594 314.285156 72.863281 314.730469 73.328125 315.0625 C 73.308594 315.0625 73.292969 315.046875 73.292969 315.046875 C 73.328125 315.0625 73.359375 315.078125 73.375 315.113281 C 73.425781 315.144531 73.476562 315.179688 73.527344 315.210938 C 73.625 315.277344 73.742188 315.34375 73.839844 315.394531 C 73.890625 315.425781 73.9375 315.441406 73.988281 315.476562 C 74.121094 315.542969 74.253906 315.59375 74.386719 315.625 C 74.4375 315.640625 74.503906 315.65625 74.550781 315.675781 C 74.667969 315.707031 74.785156 315.722656 74.898438 315.757812 C 74.980469 315.773438 75.046875 315.773438 75.132812 315.789062 C 75.214844 315.789062 75.28125 315.808594 75.363281 315.808594 C 75.445312 315.808594 75.546875 315.808594 75.628906 315.808594 C 75.695312 315.808594 75.742188 315.789062 75.808594 315.789062 C 76.042969 315.773438 76.257812 315.742188 76.488281 315.675781 C 76.488281 315.675781 76.488281 315.675781 76.503906 315.675781 C 76.671875 315.625 76.851562 315.574219 77.019531 315.507812 C 77.019531 315.507812 77.035156 315.507812 77.035156 315.507812 C 77.167969 315.460938 77.316406 315.394531 77.449219 315.34375 C 77.480469 315.328125 77.515625 315.308594 77.546875 315.292969 C 77.664062 315.246094 77.796875 315.179688 77.914062 315.113281 C 77.960938 315.078125 78.011719 315.0625 78.046875 315.027344 C 78.160156 314.960938 78.261719 314.894531 78.375 314.832031 C 78.441406 314.796875 78.492188 314.746094 78.558594 314.714844 C 78.640625 314.664062 78.722656 314.613281 78.789062 314.546875 C 78.804688 314.53125 78.839844 314.515625 78.855469 314.5 C 78.921875 314.449219 78.988281 314.398438 79.054688 314.351562 C 79.136719 314.285156 79.21875 314.21875 79.304688 314.152344 C 79.351562 314.117188 79.402344 314.070312 79.453125 314.035156 C 79.5 313.984375 79.550781 313.953125 79.617188 313.902344 C 79.667969 313.851562 79.71875 313.820312 79.785156 313.769531 C 79.933594 313.636719 80.082031 313.488281 80.230469 313.339844 C 81.191406 312.394531 82.449219 312.777344 83.144531 313.605469 L 83.144531 313.589844 C 83.738281 314.300781 83.921875 315.359375 83.144531 316.203125 L 83.144531 316.1875 C 83.0625 316.289062 82.960938 316.371094 82.863281 316.453125 L 82.8125 316.484375 C 79.484375 319.269531 76.273438 321.207031 71.984375 318.921875 C 70.910156 318.339844 69.964844 317.597656 69.203125 316.703125 C 69.105469 316.585938 69.023438 316.453125 68.921875 316.335938 C 68.839844 316.222656 68.742188 316.121094 68.65625 316.007812 C 68.558594 315.875 68.476562 315.722656 68.394531 315.574219 C 68.328125 315.460938 68.246094 315.359375 68.195312 315.246094 C 68.113281 315.09375 68.046875 314.929688 67.960938 314.765625 C 67.914062 314.648438 67.847656 314.546875 67.796875 314.433594 C 67.679688 314.152344 67.582031 313.871094 67.484375 313.570312 C 67.367188 313.191406 67.285156 312.792969 67.21875 312.414062 C 67.203125 312.28125 67.183594 312.148438 67.183594 312.03125 C 67.152344 311.765625 67.117188 311.519531 67.117188 311.253906 C 67.117188 311.085938 67.117188 310.9375 67.117188 310.789062 C 67.070312 310.476562 67.085938 310.242188 67.101562 310.011719 Z M 129.050781 310.9375 C 126.269531 310.605469 121.785156 311.171875 119.730469 313.289062 C 117.8125 315.261719 117.25 320.492188 120.691406 321.007812 C 122.660156 321.304688 123.191406 320.777344 123.835938 319.035156 C 123.902344 318.871094 123.96875 318.738281 124.050781 318.605469 C 124.070312 318.574219 124.101562 318.554688 124.117188 318.523438 C 124.183594 318.425781 124.269531 318.339844 124.332031 318.273438 C 124.382812 318.242188 124.417969 318.207031 124.464844 318.175781 C 124.53125 318.125 124.617188 318.058594 124.679688 318.027344 C 124.730469 317.992188 124.796875 317.976562 124.847656 317.945312 C 124.929688 317.910156 124.996094 317.878906 125.078125 317.84375 C 125.144531 317.828125 125.195312 317.8125 125.261719 317.792969 C 125.34375 317.777344 125.410156 317.761719 125.492188 317.746094 C 125.558594 317.746094 125.625 317.726562 125.675781 317.726562 C 125.757812 317.726562 125.839844 317.726562 125.90625 317.726562 C 125.972656 317.726562 126.023438 317.746094 126.089844 317.761719 C 126.171875 317.777344 126.238281 317.792969 126.320312 317.8125 C 126.386719 317.828125 126.4375 317.84375 126.503906 317.878906 C 126.585938 317.910156 126.652344 317.945312 126.71875 317.976562 C 126.765625 318.011719 126.816406 318.042969 126.867188 318.074219 C 126.933594 318.125 127 318.175781 127.066406 318.226562 C 127.113281 318.257812 127.148438 318.308594 127.199219 318.359375 C 127.246094 318.425781 127.296875 318.488281 127.347656 318.554688 C 127.378906 318.605469 127.414062 318.65625 127.445312 318.722656 C 127.496094 318.804688 127.527344 318.886719 127.546875 318.96875 C 127.5625 319.035156 127.59375 319.101562 127.613281 319.167969 C 127.628906 319.269531 127.644531 319.367188 127.660156 319.46875 C 127.660156 319.535156 127.679688 319.601562 127.679688 319.664062 C 127.679688 319.683594 127.679688 319.699219 127.679688 319.714844 C 127.679688 319.816406 127.660156 319.929688 127.660156 320.046875 C 127.644531 320.128906 127.644531 320.210938 127.628906 320.296875 C 127.613281 320.425781 127.5625 320.578125 127.511719 320.710938 C 127.496094 320.792969 127.480469 320.859375 127.445312 320.941406 C 127.429688 320.972656 127.414062 321.023438 127.398438 321.058594 C 127.347656 321.207031 127.28125 321.355469 127.199219 321.503906 C 127.179688 321.554688 127.164062 321.585938 127.132812 321.636719 C 127.097656 321.703125 127.066406 321.753906 127.03125 321.820312 C 126.898438 322.066406 126.75 322.332031 126.550781 322.613281 C 125.179688 324.667969 122.398438 325.445312 120.046875 325.082031 C 117.8125 324.734375 116.089844 323.476562 115.078125 321.636719 C 114.964844 321.421875 114.847656 321.171875 114.75 320.941406 C 114.699219 320.824219 114.648438 320.726562 114.597656 320.625 C 114.46875 320.261719 114.351562 319.898438 114.269531 319.515625 C 113.292969 315.160156 115.144531 310.921875 118.96875 308.71875 C 116.917969 303.15625 119.464844 297.242188 123.953125 293.648438 C 123.289062 293.316406 122.660156 292.96875 122.03125 292.605469 C 121.882812 292.523438 121.734375 292.441406 121.601562 292.359375 C 121.453125 292.273438 121.304688 292.175781 121.15625 292.09375 C 120.757812 291.859375 120.359375 291.628906 119.980469 291.378906 C 119.929688 291.347656 119.878906 291.3125 119.832031 291.28125 C 119.566406 291.117188 119.316406 290.949219 119.070312 290.769531 C 118.722656 290.535156 118.375 290.304688 118.027344 290.070312 C 117.960938 290.023438 117.894531 289.972656 117.828125 289.921875 C 117.597656 289.757812 117.363281 289.59375 117.132812 289.425781 C 116.835938 289.210938 116.535156 289.011719 116.253906 288.796875 C 116.1875 288.746094 116.140625 288.714844 116.074219 288.664062 C 115.660156 288.351562 115.226562 288.035156 114.816406 287.71875 C 114.714844 287.636719 114.597656 287.554688 114.5 287.488281 C 112.761719 286.164062 111.039062 284.773438 109.21875 283.363281 C 103.078125 291.414062 100.859375 299.347656 101.554688 309.515625 C 102.28125 320.230469 106.667969 331.257812 117.859375 334.539062 C 128.355469 337.617188 141.535156 330.445312 137.976562 318.324219 C 136.765625 313.96875 133.472656 311.46875 129.050781 310.9375 Z M 248.101562 286.859375 C 246.894531 285.867188 245.535156 285.21875 244.113281 284.589844 C 242.835938 284.027344 241.464844 283.449219 240.4375 282.488281 C 238.285156 280.484375 238.367188 277.355469 238.796875 274.671875 C 239.046875 273.082031 239.34375 271.507812 238.484375 270.050781 C 238.152344 269.472656 237.707031 268.992188 237.160156 268.59375 C 236.148438 267.863281 234.875 267.46875 233.683594 267.121094 C 229.773438 266.007812 226.628906 265.164062 226.730469 260.28125 C 226.796875 257.347656 227.886719 253.988281 227.40625 251.089844 C 226.117188 252.480469 224.839844 253.6875 223.535156 254.78125 C 223.054688 255.179688 222.589844 255.558594 222.09375 255.925781 C 222.027344 255.972656 221.960938 256.023438 221.878906 256.074219 C 221.429688 256.40625 221 256.71875 220.554688 257.035156 C 220.453125 257.101562 220.371094 257.167969 220.273438 257.214844 C 219.808594 257.53125 219.34375 257.8125 218.882812 258.109375 C 218.816406 258.144531 218.765625 258.191406 218.699219 258.226562 C 218.632812 258.277344 218.566406 258.308594 218.484375 258.359375 C 218.019531 258.640625 217.558594 258.90625 217.078125 259.171875 C 216.929688 259.253906 216.777344 259.335938 216.628906 259.417969 C 216.382812 259.550781 216.148438 259.667969 215.902344 259.800781 C 215.671875 259.914062 215.453125 260.03125 215.222656 260.148438 C 215.15625 260.179688 215.089844 260.214844 215.023438 260.246094 C 214.972656 260.261719 214.941406 260.296875 214.890625 260.3125 C 214.59375 260.460938 214.296875 260.59375 213.996094 260.742188 C 213.734375 260.859375 213.484375 260.992188 213.234375 261.109375 C 213.136719 261.15625 213.019531 261.207031 212.921875 261.257812 C 212.605469 261.390625 212.292969 261.539062 211.960938 261.671875 C 211.78125 261.753906 211.613281 261.820312 211.433594 261.902344 C 211.28125 261.96875 211.117188 262.035156 210.96875 262.101562 C 210.355469 262.351562 209.742188 262.613281 209.113281 262.863281 C 205.933594 264.121094 202.773438 265.332031 199.726562 266.886719 C 205.089844 269.089844 208.484375 272.847656 209.976562 278.53125 C 212.324219 276.855469 215.207031 276.226562 218.070312 276.773438 C 220.902344 277.320312 223.566406 279.011719 225.023438 281.527344 C 225.882812 283.015625 226.25 284.671875 226.101562 286.394531 C 226.066406 286.710938 226.015625 287.023438 225.949219 287.324219 C 225.949219 287.355469 225.933594 287.371094 225.933594 287.40625 C 225.917969 287.472656 225.902344 287.539062 225.882812 287.621094 C 225.835938 287.835938 225.769531 288.050781 225.6875 288.265625 C 225.652344 288.367188 225.621094 288.449219 225.585938 288.546875 C 225.503906 288.765625 225.40625 288.980469 225.289062 289.179688 C 225.273438 289.210938 225.253906 289.226562 225.238281 289.261719 C 225.207031 289.308594 225.1875 289.359375 225.15625 289.410156 C 225.023438 289.660156 224.875 289.890625 224.710938 290.121094 C 224.675781 290.15625 224.644531 290.203125 224.609375 290.238281 C 224.460938 290.4375 224.3125 290.617188 224.144531 290.800781 C 224.128906 290.816406 224.128906 290.816406 224.113281 290.835938 C 224.0625 290.882812 224.015625 290.949219 223.949219 291 C 223.796875 291.148438 223.632812 291.296875 223.484375 291.429688 C 223.417969 291.480469 223.351562 291.546875 223.285156 291.597656 C 223.085938 291.746094 222.886719 291.894531 222.6875 292.011719 C 222.625 292.058594 222.558594 292.09375 222.492188 292.140625 C 222.257812 292.273438 222.011719 292.40625 221.777344 292.523438 C 221.746094 292.539062 221.695312 292.554688 221.664062 292.574219 C 221.449219 292.671875 221.214844 292.753906 220.984375 292.839844 C 220.902344 292.871094 220.835938 292.886719 220.753906 292.902344 C 220.488281 292.988281 220.238281 293.054688 219.972656 293.101562 C 219.925781 293.121094 219.875 293.121094 219.824219 293.121094 C 217.988281 293.417969 216.015625 293.019531 214.3125 291.695312 C 213.847656 291.332031 213.367188 290.949219 212.953125 290.535156 C 212.738281 290.320312 212.523438 290.089844 212.324219 289.824219 C 211.597656 288.878906 211.199219 287.71875 212.257812 286.726562 C 212.65625 286.347656 213.152344 286.082031 213.714844 286.132812 C 215.800781 286.3125 216.664062 290.171875 219.90625 288.847656 C 220.867188 288.449219 221.613281 287.785156 221.925781 286.792969 C 222.425781 285.171875 221.5625 283.382812 220.386719 282.273438 C 218.75 280.714844 216.546875 280.335938 214.394531 280.929688 C 210.636719 281.957031 208.964844 287.308594 209.859375 290.917969 C 211.199219 296.347656 216.53125 298.1875 221.613281 297.839844 C 228.882812 297.34375 241.296875 292.425781 247.042969 298.964844 L 247.125 299.082031 L 248.003906 300.738281 C 249.476562 299.066406 250.417969 296.597656 250.683594 294.476562 C 251.046875 291.613281 250.386719 288.730469 248.101562 286.859375 Z M 195.191406 269.621094 C 194.777344 269.917969 194.378906 270.234375 193.980469 270.546875 C 193.964844 270.5625 193.964844 270.5625 193.949219 270.582031 C 193.386719 271.042969 192.824219 271.523438 192.292969 272.003906 C 192.277344 272.019531 192.261719 272.039062 192.242188 272.039062 C 192.210938 272.054688 192.195312 272.085938 192.160156 272.105469 C 192.078125 272.1875 191.980469 272.269531 191.894531 272.351562 C 191.367188 272.847656 190.835938 273.347656 190.324219 273.859375 C 190.324219 273.859375 190.308594 273.875 190.308594 273.875 C 188.617188 275.582031 187.011719 277.320312 185.375 279.027344 C 185.589844 278.910156 185.820312 278.792969 186.050781 278.695312 C 186.796875 278.363281 187.558594 278.148438 188.269531 278.015625 C 190.007812 277.550781 191.8125 277.683594 193.550781 278.347656 C 194.695312 278.777344 195.753906 279.472656 196.582031 280.367188 L 196.632812 280.417969 C 198.386719 282.355469 199.066406 284.921875 198.121094 287.421875 C 198.039062 287.65625 197.921875 287.902344 197.789062 288.132812 C 197.757812 288.199219 197.707031 288.285156 197.65625 288.351562 C 197.558594 288.53125 197.441406 288.699219 197.308594 288.878906 C 197.226562 288.996094 197.128906 289.128906 197.027344 289.246094 C 197.011719 289.261719 196.996094 289.292969 196.980469 289.308594 C 196.828125 289.476562 196.664062 289.640625 196.5 289.789062 C 195.835938 290.371094 195.042969 290.71875 194.199219 290.535156 C 193.800781 290.4375 193.453125 290.222656 193.1875 289.921875 C 193.089844 289.808594 193.003906 289.691406 192.921875 289.59375 C 192.90625 289.558594 192.875 289.527344 192.855469 289.492188 C 192.808594 289.425781 192.773438 289.34375 192.742188 289.277344 C 192.722656 289.246094 192.707031 289.195312 192.691406 289.160156 C 192.675781 289.09375 192.640625 289.027344 192.625 288.960938 C 192.625 288.929688 192.609375 288.894531 192.609375 288.847656 C 192.589844 288.78125 192.589844 288.714844 192.589844 288.648438 C 192.589844 288.613281 192.589844 288.582031 192.589844 288.566406 C 192.609375 288.382812 192.65625 288.199219 192.722656 288.019531 C 192.742188 287.984375 192.757812 287.96875 192.757812 287.9375 C 192.789062 287.871094 192.824219 287.820312 192.855469 287.753906 C 192.875 287.71875 192.890625 287.703125 192.90625 287.671875 C 192.9375 287.621094 192.972656 287.554688 193.023438 287.503906 C 193.039062 287.472656 193.054688 287.457031 193.089844 287.421875 C 193.136719 287.371094 193.171875 287.308594 193.222656 287.257812 C 193.238281 287.242188 193.253906 287.207031 193.269531 287.191406 C 193.417969 287.023438 193.570312 286.875 193.699219 286.726562 C 193.75 286.675781 193.800781 286.628906 193.851562 286.578125 C 193.867188 286.542969 193.898438 286.527344 193.917969 286.496094 C 193.949219 286.445312 194 286.414062 194.03125 286.363281 C 194.046875 286.328125 194.082031 286.3125 194.097656 286.28125 C 194.113281 286.261719 194.113281 286.246094 194.132812 286.246094 C 194.132812 286.246094 194.113281 286.261719 194.113281 286.261719 C 194.265625 286.082031 194.378906 285.898438 194.414062 285.71875 C 194.546875 284.871094 194.132812 283.777344 193.570312 283.148438 L 193.519531 283.101562 C 192.128906 281.625 189.710938 281.511719 188.039062 282.539062 C 184.878906 284.457031 184.59375 289.441406 186.980469 292.140625 L 187.027344 292.191406 C 187.59375 292.804688 188.253906 293.316406 188.984375 293.699219 C 193.503906 296.035156 200.273438 293.664062 203.585938 290.15625 C 206.996094 286.542969 206.976562 280.46875 204.695312 276.246094 C 202.589844 272.285156 199.296875 270.84375 195.191406 269.621094 Z M 358.507812 174.363281 C 357.316406 170.289062 353.3125 167.625 349.4375 166.449219 C 345.25 165.1875 341.277344 165.355469 336.988281 165.023438 C 330.746094 164.527344 326.441406 162.65625 321.988281 158.132812 C 319.820312 155.933594 317.933594 153.496094 316.144531 150.996094 C 313.296875 147.023438 310.796875 143.28125 307.734375 139.816406 L 307.734375 139.820312 C 306.195312 138.097656 304.523438 136.441406 302.570312 134.867188 C 302.023438 134.417969 297.636719 131.539062 296.90625 131.207031 C 291.328125 128.539062 285.515625 128.160156 279.457031 128.855469 C 274.640625 129.402344 271.691406 129.800781 267.191406 131.851562 C 262.703125 133.90625 258.996094 136.738281 255.320312 139.816406 L 255.304688 139.820312 C 254.410156 140.578125 253.5 141.34375 252.605469 142.136719 C 241.347656 151.839844 228.664062 160.984375 212.9375 158.101562 C 212.011719 157.933594 211.101562 157.753906 210.191406 157.554688 L 209.824219 157.472656 C 210.386719 160.550781 213.367188 164.34375 215.6875 166.296875 C 221.878906 171.566406 229.808594 173.121094 237.621094 174.265625 C 243.664062 175.160156 246.578125 175.820312 251.613281 179.496094 C 252.355469 180.042969 253.070312 180.886719 253.78125 181.519531 C 261.726562 188.621094 269.242188 192.695312 280.1875 190.839844 C 288.449219 189.449219 294.109375 185.027344 296.660156 176.945312 C 299.257812 168.683594 297.71875 159.90625 290.054688 155.003906 C 284.640625 151.542969 277.667969 151.246094 271.941406 154.109375 C 270.816406 154.671875 269.738281 155.386719 268.863281 156.296875 L 268.8125 156.347656 C 267.109375 158.152344 266.527344 160.851562 266.660156 163.269531 C 266.925781 167.789062 269.789062 172.492188 274.9375 171.132812 C 276.164062 170.804688 277.058594 170.257812 277.800781 169.246094 L 277.835938 169.195312 C 278.265625 168.601562 278.664062 167.757812 279.210938 167.191406 C 279.242188 167.160156 279.277344 167.125 279.324219 167.09375 C 279.359375 167.058594 279.390625 167.027344 279.441406 166.996094 C 279.472656 166.960938 279.523438 166.929688 279.558594 166.894531 C 279.589844 166.863281 279.640625 166.84375 279.671875 166.8125 C 279.722656 166.777344 279.753906 166.761719 279.804688 166.746094 C 279.839844 166.730469 279.886719 166.695312 279.921875 166.679688 C 279.972656 166.664062 280.019531 166.644531 280.070312 166.628906 C 280.121094 166.613281 280.152344 166.597656 280.203125 166.597656 C 280.253906 166.582031 280.320312 166.582031 280.367188 166.582031 C 280.417969 166.582031 280.449219 166.5625 280.5 166.5625 C 280.566406 166.5625 280.632812 166.582031 280.699219 166.582031 C 280.75 166.582031 280.78125 166.582031 280.832031 166.597656 C 280.914062 166.613281 280.996094 166.644531 281.082031 166.664062 C 281.113281 166.679688 281.144531 166.679688 281.195312 166.695312 C 281.3125 166.746094 281.445312 166.796875 281.578125 166.878906 C 281.890625 167.058594 282.140625 167.308594 282.320312 167.625 C 282.453125 167.871094 282.519531 168.121094 282.554688 168.386719 C 282.554688 168.453125 282.570312 168.519531 282.570312 168.582031 C 282.570312 168.667969 282.570312 168.765625 282.554688 168.847656 C 282.554688 168.914062 282.554688 168.964844 282.535156 169.03125 C 282.519531 169.128906 282.488281 169.246094 282.472656 169.363281 C 282.453125 169.410156 282.453125 169.445312 282.4375 169.496094 C 282.386719 169.644531 282.339844 169.808594 282.253906 169.957031 C 282.1875 170.109375 282.105469 170.273438 282.023438 170.421875 C 282.007812 170.472656 281.972656 170.503906 281.941406 170.554688 C 281.875 170.671875 281.808594 170.769531 281.742188 170.886719 C 281.710938 170.9375 281.660156 170.984375 281.625 171.050781 C 281.558594 171.152344 281.492188 171.25 281.410156 171.351562 C 281.363281 171.398438 281.328125 171.464844 281.277344 171.515625 C 281.210938 171.597656 281.128906 171.699219 281.046875 171.78125 C 280.996094 171.828125 280.949219 171.894531 280.898438 171.945312 C 280.816406 172.027344 280.734375 172.113281 280.667969 172.195312 C 280.617188 172.242188 280.566406 172.292969 280.515625 172.34375 C 280.433594 172.425781 280.351562 172.507812 280.269531 172.589844 C 280.21875 172.640625 280.167969 172.691406 280.121094 172.742188 C 280.039062 172.824219 279.953125 172.890625 279.871094 172.972656 C 279.820312 173.023438 279.773438 173.054688 279.722656 173.105469 C 279.640625 173.171875 279.558594 173.253906 279.472656 173.320312 C 279.425781 173.351562 279.375 173.402344 279.324219 173.4375 C 279.242188 173.503906 279.160156 173.570312 279.078125 173.636719 C 279.027344 173.667969 278.992188 173.703125 278.945312 173.734375 C 278.863281 173.800781 278.761719 173.867188 278.679688 173.917969 C 278.648438 173.933594 278.613281 173.964844 278.582031 173.984375 C 278.464844 174.066406 278.347656 174.132812 278.25 174.179688 C 277.554688 174.59375 276.792969 174.925781 275.996094 175.125 C 273.265625 175.835938 270.519531 175.589844 268.117188 174.03125 C 261.742188 169.925781 260.683594 159.027344 265.882812 153.546875 L 265.933594 153.496094 C 271.082031 148.148438 281.128906 146.890625 287.917969 149.375 C 296.558594 152.554688 302.289062 160.949219 301.988281 170.191406 C 301.558594 183.289062 293.613281 193.042969 280.46875 194.898438 C 274.707031 195.710938 274.972656 197.480469 271.34375 201.441406 C 266.941406 206.257812 261.511719 210.398438 255.734375 213.445312 C 255.917969 213.578125 256.113281 213.710938 256.328125 213.859375 C 256.363281 213.894531 256.414062 213.925781 256.445312 213.945312 C 256.875 214.242188 257.324219 214.589844 257.785156 214.9375 C 257.820312 214.96875 257.851562 214.988281 257.886719 215.019531 C 258.351562 215.382812 258.8125 215.75 259.261719 216.128906 C 259.308594 216.164062 259.34375 216.195312 259.394531 216.246094 C 259.609375 216.425781 259.824219 216.625 260.023438 216.808594 C 260.023438 216.808594 260.039062 216.808594 260.039062 216.824219 C 260.238281 217.007812 260.4375 217.207031 260.617188 217.386719 C 260.667969 217.4375 260.699219 217.472656 260.75 217.519531 C 260.914062 217.6875 261.082031 217.867188 261.230469 218.035156 C 261.726562 218.613281 262.109375 219.175781 262.289062 219.691406 C 263.234375 222.503906 260.601562 223.332031 258.21875 223.765625 C 258.035156 223.796875 257.835938 223.828125 257.65625 223.863281 C 257.636719 223.863281 257.621094 223.863281 257.621094 223.863281 C 257.191406 223.929688 256.761719 223.996094 256.394531 224.046875 C 256.214844 224.078125 256.046875 224.09375 255.898438 224.128906 C 250.335938 225.203125 245.074219 228.234375 241.214844 232.359375 C 240.898438 232.691406 240.601562 233.039062 240.304688 233.386719 C 240.222656 233.484375 240.121094 233.601562 240.039062 233.714844 C 239.957031 233.816406 239.875 233.933594 239.792969 234.03125 C 239.675781 234.179688 239.542969 234.328125 239.425781 234.496094 C 239.3125 234.660156 239.179688 234.808594 239.0625 234.976562 C 238.945312 235.125 238.832031 235.273438 238.714844 235.421875 C 238.683594 235.472656 238.648438 235.503906 238.617188 235.554688 C 238.597656 235.589844 238.582031 235.605469 238.566406 235.636719 C 238.449219 235.804688 238.335938 235.96875 238.203125 236.132812 C 238.117188 236.25 238.035156 236.351562 237.96875 236.464844 C 237.820312 236.679688 237.671875 236.894531 237.523438 237.113281 C 237.507812 237.128906 237.488281 237.160156 237.472656 237.179688 C 237.125 237.691406 236.777344 238.222656 236.429688 238.734375 C 236.414062 238.769531 236.398438 238.800781 236.363281 238.832031 C 235.636719 239.945312 234.941406 241.054688 234.246094 242.113281 C 233.085938 243.886719 231.894531 245.671875 230.601562 247.363281 C 241.363281 249.066406 253.101562 247.761719 261.546875 240.257812 C 264.242188 237.855469 266.511719 235.238281 269.027344 232.691406 C 273.082031 228.566406 276.992188 226.148438 282.371094 223.996094 C 285.949219 222.570312 289.707031 221.5625 293.429688 220.632812 C 302.121094 218.480469 313.660156 216.460938 319.390625 208.859375 C 320.648438 207.1875 321.523438 205.199219 322.304688 203.277344 C 323.230469 200.976562 324.074219 198.65625 325.132812 196.40625 C 328.097656 190.113281 332.171875 185.65625 338.148438 182.0625 C 343.972656 178.554688 350.679688 176.683594 357.449219 176.285156 C 357.648438 176.269531 358.726562 176.285156 358.839844 176.21875 C 358.957031 175.921875 358.574219 174.613281 358.507812 174.363281 Z M 358.507812 174.363281 "/></g></g></svg>