<svg xmlns="http://www.w3.org/2000/svg" xmlns:xlink="http://www.w3.org/1999/xlink" width="500" zoomAndPan="magnify" viewBox="0 0 375 374.999991" height="500" preserveAspectRatio="xMidYMid meet" version="1.2"><defs><clipPath id="00d0a653e0"><path d="M 226 16 L 249.214844 16 L 249.214844 39 L 226 39 Z M 226 16 "/></clipPath><clipPath id="e76ef74b4e"><path d="M 226 69 L 249.214844 69 L 249.214844 92 L 226 92 Z M 226 69 "/></clipPath><clipPath id="afa6ded00a"><path d="M 226 122 L 249.214844 122 L 249.214844 145 L 226 145 Z M 226 122 "/></clipPath><clipPath id="8731106799"><path d="M 226 175 L 249.214844 175 L 249.214844 198 L 226 198 Z M 226 175 "/></clipPath><clipPath id="802ea2365e"><path d="M 226 228 L 249.214844 228 L 249.214844 251 L 226 251 Z M 226 228 "/></clipPath><clipPath id="2f8d9caa7f"><path d="M 226 281 L 249.214844 281 L 249.214844 304 L 226 304 Z M 226 281 "/></clipPath><clipPath id="124891d725"><path d="M 125.464844 69 L 149 69 L 149 93 L 125.464844 93 Z M 125.464844 69 "/></clipPath><clipPath id="82d6cca231"><path d="M 125.464844 123 L 149 123 L 149 146 L 125.464844 146 Z M 125.464844 123 "/></clipPath><clipPath id="4ec6391a1d"><path d="M 125.464844 176 L 149 176 L 149 199 L 125.464844 199 Z M 125.464844 176 "/></clipPath><clipPath id="69ee662a3f"><path d="M 125.464844 229 L 149 229 L 149 252 L 125.464844 252 Z M 125.464844 229 "/></clipPath><clipPath id="5018bf702b"><path d="M 125.464844 282 L 149 282 L 149 305 L 125.464844 305 Z M 125.464844 282 "/></clipPath><clipPath id="186e886e93"><path d="M 125.464844 335 L 149 335 L 149 358 L 125.464844 358 Z M 125.464844 335 "/></clipPath></defs><g id="a103778098"><path style=" stroke:none;fill-rule:evenodd;fill:#bd6f29;fill-opacity:1;" d="M 149.625 93.230469 C 149.625 93.230469 153.136719 81.019531 156.933594 67.828125 C 162.714844 47.722656 178.484375 32.007812 198.652344 26.242188 C 211.882812 22.460938 224.132812 18.957031 224.132812 18.957031 C 224.132812 18.957031 220.621094 31.171875 216.828125 44.359375 C 211.042969 64.464844 195.277344 80.183594 175.109375 85.949219 C 161.875 89.730469 149.625 93.230469 149.625 93.230469 Z M 149.625 93.230469 "/><path style=" stroke:none;fill-rule:evenodd;fill:#bd6f29;fill-opacity:1;" d="M 149.625 146.285156 C 149.625 146.285156 153.136719 134.074219 156.933594 120.882812 C 162.714844 100.777344 178.484375 85.0625 198.652344 79.296875 C 211.882812 75.515625 224.132812 72.011719 224.132812 72.011719 C 224.132812 72.011719 220.621094 84.222656 216.828125 97.414062 C 211.042969 117.519531 195.277344 133.238281 175.109375 139.003906 C 161.875 142.785156 149.625 146.285156 149.625 146.285156 Z M 149.625 146.285156 "/><path style=" stroke:none;fill-rule:evenodd;fill:#bd6f29;fill-opacity:1;" d="M 149.625 199.339844 C 149.625 199.339844 153.136719 187.128906 156.933594 173.9375 C 162.714844 153.832031 178.484375 138.117188 198.652344 132.351562 C 211.882812 128.570312 224.132812 125.066406 224.132812 125.066406 C 224.132812 125.066406 220.621094 137.277344 216.828125 150.46875 C 211.042969 170.574219 195.277344 186.292969 175.109375 192.058594 C 161.875 195.839844 149.625 199.339844 149.625 199.339844 Z M 149.625 199.339844 "/><path style=" stroke:none;fill-rule:evenodd;fill:#bd6f29;fill-opacity:1;" d="M 149.625 252.398438 C 149.625 252.398438 153.136719 240.183594 156.933594 226.996094 C 162.714844 206.890625 178.484375 191.171875 198.652344 185.40625 C 211.882812 181.625 224.132812 178.125 224.132812 178.125 C 224.132812 178.125 220.621094 190.335938 216.828125 203.523438 C 211.042969 223.628906 195.277344 239.347656 175.109375 245.113281 C 161.875 248.894531 149.625 252.398438 149.625 252.398438 Z M 149.625 252.398438 "/><path style=" stroke:none;fill-rule:evenodd;fill:#bd6f29;fill-opacity:1;" d="M 149.625 305.453125 C 149.625 305.453125 153.136719 293.242188 156.933594 280.050781 C 162.714844 259.945312 178.484375 244.230469 198.652344 238.464844 C 211.882812 234.683594 224.132812 231.179688 224.132812 231.179688 C 224.132812 231.179688 220.621094 243.390625 216.828125 256.582031 C 211.042969 276.6875 195.277344 292.40625 175.109375 298.171875 C 161.875 301.953125 149.625 305.453125 149.625 305.453125 Z M 149.625 305.453125 "/><path style=" stroke:none;fill-rule:evenodd;fill:#bd6f29;fill-opacity:1;" d="M 149.625 358.503906 C 149.625 358.503906 153.136719 346.292969 156.933594 333.101562 C 162.714844 312.996094 178.484375 297.277344 198.652344 291.511719 C 211.882812 287.730469 224.132812 284.230469 224.132812 284.230469 C 224.132812 284.230469 220.621094 296.441406 216.828125 309.632812 C 211.042969 329.738281 195.277344 345.457031 175.109375 351.21875 C 161.875 355.003906 149.625 358.503906 149.625 358.503906 Z M 149.625 358.503906 "/><g clip-rule="nonzero" clip-path="url(#00d0a653e0)"><path style=" stroke:none;fill-rule:nonzero;fill:#bd6f29;fill-opacity:1;" d="M 237.894531 38.574219 C 237.152344 38.574219 236.417969 38.5 235.691406 38.355469 C 234.960938 38.210938 234.253906 38 233.566406 37.714844 C 232.882812 37.433594 232.230469 37.085938 231.613281 36.671875 C 230.996094 36.261719 230.425781 35.792969 229.898438 35.269531 C 229.375 34.746094 228.90625 34.179688 228.492188 33.5625 C 228.078125 32.945312 227.730469 32.296875 227.445312 31.613281 C 227.164062 30.929688 226.949219 30.226562 226.804688 29.5 C 226.660156 28.773438 226.585938 28.039062 226.585938 27.300781 C 226.585938 26.558594 226.660156 25.824219 226.804688 25.101562 C 226.949219 24.375 227.164062 23.667969 227.445312 22.984375 C 227.730469 22.300781 228.078125 21.652344 228.492188 21.035156 C 228.90625 20.421875 229.375 19.851562 229.898438 19.328125 C 230.425781 18.804688 230.996094 18.335938 231.613281 17.925781 C 232.230469 17.515625 232.882812 17.167969 233.566406 16.882812 C 234.253906 16.601562 234.960938 16.386719 235.691406 16.242188 C 236.417969 16.097656 237.152344 16.023438 237.894531 16.023438 C 238.636719 16.023438 239.375 16.097656 240.101562 16.242188 C 240.832031 16.386719 241.539062 16.601562 242.222656 16.882812 C 242.910156 17.167969 243.5625 17.515625 244.179688 17.925781 C 244.796875 18.335938 245.367188 18.804688 245.894531 19.328125 C 246.417969 19.851562 246.886719 20.421875 247.300781 21.035156 C 247.710938 21.652344 248.0625 22.300781 248.34375 22.984375 C 248.628906 23.667969 248.84375 24.375 248.988281 25.101562 C 249.132812 25.824219 249.207031 26.558594 249.207031 27.300781 C 249.207031 28.039062 249.132812 28.773438 248.988281 29.5 C 248.84375 30.226562 248.628906 30.929688 248.34375 31.613281 C 248.0625 32.296875 247.710938 32.945312 247.300781 33.5625 C 246.886719 34.179688 246.417969 34.746094 245.894531 35.269531 C 245.367188 35.792969 244.796875 36.261719 244.179688 36.671875 C 243.5625 37.085938 242.910156 37.433594 242.222656 37.714844 C 241.539062 38 240.832031 38.210938 240.101562 38.355469 C 239.375 38.5 238.636719 38.574219 237.894531 38.574219 Z M 237.894531 38.574219 "/></g><g clip-rule="nonzero" clip-path="url(#e76ef74b4e)"><path style=" stroke:none;fill-rule:nonzero;fill:#bd6f29;fill-opacity:1;" d="M 237.894531 91.628906 C 237.152344 91.628906 236.417969 91.554688 235.691406 91.410156 C 234.960938 91.265625 234.253906 91.054688 233.566406 90.769531 C 232.882812 90.484375 232.230469 90.140625 231.613281 89.726562 C 230.996094 89.316406 230.425781 88.847656 229.898438 88.324219 C 229.375 87.800781 228.90625 87.234375 228.492188 86.617188 C 228.078125 86 227.730469 85.351562 227.445312 84.667969 C 227.164062 83.984375 226.949219 83.277344 226.804688 82.554688 C 226.660156 81.828125 226.585938 81.09375 226.585938 80.355469 C 226.585938 79.613281 226.660156 78.878906 226.804688 78.152344 C 226.949219 77.429688 227.164062 76.722656 227.445312 76.039062 C 227.730469 75.355469 228.078125 74.707031 228.492188 74.089844 C 228.90625 73.472656 229.375 72.90625 229.898438 72.382812 C 230.425781 71.859375 230.996094 71.390625 231.613281 70.980469 C 232.230469 70.566406 232.882812 70.222656 233.566406 69.9375 C 234.253906 69.65625 234.960938 69.441406 235.691406 69.296875 C 236.417969 69.152344 237.152344 69.078125 237.894531 69.078125 C 238.636719 69.078125 239.375 69.152344 240.101562 69.296875 C 240.832031 69.441406 241.539062 69.65625 242.222656 69.9375 C 242.910156 70.222656 243.5625 70.566406 244.179688 70.980469 C 244.796875 71.390625 245.367188 71.859375 245.894531 72.382812 C 246.417969 72.90625 246.886719 73.472656 247.300781 74.089844 C 247.710938 74.707031 248.0625 75.355469 248.34375 76.039062 C 248.628906 76.722656 248.84375 77.429688 248.988281 78.152344 C 249.132812 78.878906 249.207031 79.613281 249.207031 80.355469 C 249.207031 81.09375 249.132812 81.828125 248.988281 82.554688 C 248.84375 83.277344 248.628906 83.984375 248.34375 84.667969 C 248.0625 85.351562 247.710938 86 247.300781 86.617188 C 246.886719 87.234375 246.417969 87.800781 245.894531 88.324219 C 245.367188 88.847656 244.796875 89.316406 244.179688 89.726562 C 243.5625 90.140625 242.910156 90.484375 242.222656 90.769531 C 241.539062 91.054688 240.832031 91.265625 240.101562 91.410156 C 239.375 91.554688 238.636719 91.628906 237.894531 91.628906 Z M 237.894531 91.628906 "/></g><g clip-rule="nonzero" clip-path="url(#afa6ded00a)"><path style=" stroke:none;fill-rule:nonzero;fill:#bd6f29;fill-opacity:1;" d="M 237.894531 144.683594 C 237.152344 144.683594 236.417969 144.609375 235.691406 144.464844 C 234.960938 144.320312 234.253906 144.105469 233.566406 143.824219 C 232.882812 143.539062 232.230469 143.195312 231.613281 142.78125 C 230.996094 142.371094 230.425781 141.902344 229.898438 141.378906 C 229.375 140.855469 228.90625 140.289062 228.492188 139.671875 C 228.078125 139.054688 227.730469 138.40625 227.445312 137.722656 C 227.164062 137.039062 226.949219 136.332031 226.804688 135.609375 C 226.660156 134.882812 226.585938 134.148438 226.585938 133.40625 C 226.585938 132.667969 226.660156 131.933594 226.804688 131.207031 C 226.949219 130.484375 227.164062 129.777344 227.445312 129.09375 C 227.730469 128.410156 228.078125 127.761719 228.492188 127.144531 C 228.90625 126.527344 229.375 125.960938 229.898438 125.4375 C 230.425781 124.914062 230.996094 124.445312 231.613281 124.035156 C 232.230469 123.621094 232.882812 123.277344 233.566406 122.992188 C 234.253906 122.707031 234.960938 122.496094 235.691406 122.351562 C 236.417969 122.207031 237.152344 122.132812 237.894531 122.132812 C 238.636719 122.132812 239.375 122.207031 240.101562 122.351562 C 240.832031 122.496094 241.539062 122.707031 242.222656 122.992188 C 242.910156 123.277344 243.5625 123.621094 244.179688 124.035156 C 244.796875 124.445312 245.367188 124.914062 245.894531 125.4375 C 246.417969 125.960938 246.886719 126.527344 247.300781 127.144531 C 247.710938 127.761719 248.0625 128.410156 248.34375 129.09375 C 248.628906 129.777344 248.84375 130.484375 248.988281 131.207031 C 249.132812 131.933594 249.207031 132.667969 249.207031 133.40625 C 249.207031 134.148438 249.132812 134.882812 248.988281 135.609375 C 248.84375 136.332031 248.628906 137.039062 248.34375 137.722656 C 248.0625 138.40625 247.710938 139.054688 247.300781 139.671875 C 246.886719 140.289062 246.417969 140.855469 245.894531 141.378906 C 245.367188 141.902344 244.796875 142.371094 244.179688 142.78125 C 243.5625 143.195312 242.910156 143.539062 242.222656 143.824219 C 241.539062 144.105469 240.832031 144.320312 240.101562 144.464844 C 239.375 144.609375 238.636719 144.683594 237.894531 144.683594 Z M 237.894531 144.683594 "/></g><g clip-rule="nonzero" clip-path="url(#8731106799)"><path style=" stroke:none;fill-rule:nonzero;fill:#bd6f29;fill-opacity:1;" d="M 237.894531 197.738281 C 237.152344 197.738281 236.417969 197.664062 235.691406 197.523438 C 234.960938 197.378906 234.253906 197.164062 233.566406 196.878906 C 232.882812 196.597656 232.230469 196.25 231.613281 195.839844 C 230.996094 195.425781 230.425781 194.960938 229.898438 194.4375 C 229.375 193.914062 228.90625 193.34375 228.492188 192.726562 C 228.078125 192.113281 227.730469 191.460938 227.445312 190.777344 C 227.164062 190.09375 226.949219 189.390625 226.804688 188.664062 C 226.660156 187.9375 226.585938 187.203125 226.585938 186.464844 C 226.585938 185.722656 226.660156 184.992188 226.804688 184.265625 C 226.949219 183.539062 227.164062 182.832031 227.445312 182.148438 C 227.730469 181.464844 228.078125 180.816406 228.492188 180.199219 C 228.90625 179.585938 229.375 179.015625 229.898438 178.492188 C 230.425781 177.96875 230.996094 177.5 231.613281 177.089844 C 232.230469 176.679688 232.882812 176.332031 233.566406 176.046875 C 234.253906 175.765625 234.960938 175.550781 235.691406 175.40625 C 236.417969 175.261719 237.152344 175.191406 237.894531 175.191406 C 238.636719 175.191406 239.375 175.261719 240.101562 175.40625 C 240.832031 175.550781 241.539062 175.765625 242.222656 176.046875 C 242.910156 176.332031 243.5625 176.679688 244.179688 177.089844 C 244.796875 177.5 245.367188 177.96875 245.894531 178.492188 C 246.417969 179.015625 246.886719 179.585938 247.300781 180.199219 C 247.710938 180.816406 248.0625 181.464844 248.34375 182.148438 C 248.628906 182.832031 248.84375 183.539062 248.988281 184.265625 C 249.132812 184.992188 249.207031 185.722656 249.207031 186.464844 C 249.207031 187.203125 249.132812 187.9375 248.988281 188.664062 C 248.84375 189.390625 248.628906 190.09375 248.34375 190.777344 C 248.0625 191.460938 247.710938 192.113281 247.300781 192.726562 C 246.886719 193.34375 246.417969 193.914062 245.894531 194.4375 C 245.367188 194.960938 244.796875 195.425781 244.179688 195.839844 C 243.5625 196.25 242.910156 196.597656 242.222656 196.878906 C 241.539062 197.164062 240.832031 197.378906 240.101562 197.523438 C 239.375 197.664062 238.636719 197.738281 237.894531 197.738281 Z M 237.894531 197.738281 "/></g><g clip-rule="nonzero" clip-path="url(#802ea2365e)"><path style=" stroke:none;fill-rule:nonzero;fill:#bd6f29;fill-opacity:1;" d="M 237.894531 250.792969 C 237.152344 250.792969 236.417969 250.71875 235.691406 250.574219 C 234.960938 250.429688 234.253906 250.21875 233.566406 249.933594 C 232.882812 249.652344 232.230469 249.304688 231.613281 248.890625 C 230.996094 248.480469 230.425781 248.015625 229.898438 247.492188 C 229.375 246.96875 228.90625 246.398438 228.492188 245.78125 C 228.078125 245.167969 227.730469 244.515625 227.445312 243.832031 C 227.164062 243.148438 226.949219 242.445312 226.804688 241.71875 C 226.660156 240.992188 226.585938 240.257812 226.585938 239.519531 C 226.585938 238.777344 226.660156 238.046875 226.804688 237.320312 C 226.949219 236.59375 227.164062 235.886719 227.445312 235.203125 C 227.730469 234.519531 228.078125 233.871094 228.492188 233.253906 C 228.90625 232.640625 229.375 232.070312 229.898438 231.546875 C 230.425781 231.023438 230.996094 230.554688 231.613281 230.144531 C 232.230469 229.734375 232.882812 229.386719 233.566406 229.101562 C 234.253906 228.820312 234.960938 228.605469 235.691406 228.460938 C 236.417969 228.316406 237.152344 228.246094 237.894531 228.246094 C 238.636719 228.246094 239.375 228.316406 240.101562 228.460938 C 240.832031 228.605469 241.539062 228.820312 242.222656 229.101562 C 242.910156 229.386719 243.5625 229.734375 244.179688 230.144531 C 244.796875 230.554688 245.367188 231.023438 245.894531 231.546875 C 246.417969 232.070312 246.886719 232.640625 247.300781 233.253906 C 247.710938 233.871094 248.0625 234.519531 248.34375 235.203125 C 248.628906 235.886719 248.84375 236.59375 248.988281 237.320312 C 249.132812 238.046875 249.207031 238.777344 249.207031 239.519531 C 249.207031 240.257812 249.132812 240.992188 248.988281 241.71875 C 248.84375 242.445312 248.628906 243.148438 248.34375 243.832031 C 248.0625 244.515625 247.710938 245.167969 247.300781 245.78125 C 246.886719 246.398438 246.417969 246.96875 245.894531 247.492188 C 245.367188 248.015625 244.796875 248.480469 244.179688 248.890625 C 243.5625 249.304688 242.910156 249.652344 242.222656 249.933594 C 241.539062 250.21875 240.832031 250.429688 240.101562 250.574219 C 239.375 250.71875 238.636719 250.792969 237.894531 250.792969 Z M 237.894531 250.792969 "/></g><g clip-rule="nonzero" clip-path="url(#2f8d9caa7f)"><path style=" stroke:none;fill-rule:nonzero;fill:#bd6f29;fill-opacity:1;" d="M 237.894531 303.847656 C 237.152344 303.847656 236.417969 303.773438 235.691406 303.628906 C 234.960938 303.484375 234.253906 303.273438 233.566406 302.988281 C 232.882812 302.707031 232.230469 302.359375 231.613281 301.945312 C 230.996094 301.535156 230.425781 301.070312 229.898438 300.542969 C 229.375 300.019531 228.90625 299.453125 228.492188 298.835938 C 228.078125 298.222656 227.730469 297.570312 227.445312 296.886719 C 227.164062 296.203125 226.949219 295.5 226.804688 294.773438 C 226.660156 294.046875 226.585938 293.3125 226.585938 292.574219 C 226.585938 291.832031 226.660156 291.097656 226.804688 290.375 C 226.949219 289.648438 227.164062 288.941406 227.445312 288.257812 C 227.730469 287.574219 228.078125 286.925781 228.492188 286.308594 C 228.90625 285.695312 229.375 285.125 229.898438 284.601562 C 230.425781 284.078125 230.996094 283.609375 231.613281 283.199219 C 232.230469 282.789062 232.882812 282.441406 233.566406 282.15625 C 234.253906 281.875 234.960938 281.660156 235.691406 281.515625 C 236.417969 281.371094 237.152344 281.296875 237.894531 281.296875 C 238.636719 281.296875 239.375 281.371094 240.101562 281.515625 C 240.832031 281.660156 241.539062 281.875 242.222656 282.15625 C 242.910156 282.441406 243.5625 282.789062 244.179688 283.199219 C 244.796875 283.609375 245.367188 284.078125 245.894531 284.601562 C 246.417969 285.125 246.886719 285.695312 247.300781 286.308594 C 247.710938 286.925781 248.0625 287.574219 248.34375 288.257812 C 248.628906 288.941406 248.84375 289.648438 248.988281 290.375 C 249.132812 291.097656 249.207031 291.832031 249.207031 292.574219 C 249.207031 293.3125 249.132812 294.046875 248.988281 294.773438 C 248.84375 295.5 248.628906 296.203125 248.34375 296.886719 C 248.0625 297.570312 247.710938 298.222656 247.300781 298.835938 C 246.886719 299.453125 246.417969 300.019531 245.894531 300.542969 C 245.367188 301.070312 244.796875 301.535156 244.179688 301.945312 C 243.5625 302.359375 242.910156 302.707031 242.222656 302.988281 C 241.539062 303.273438 240.832031 303.484375 240.101562 303.628906 C 239.375 303.773438 238.636719 303.847656 237.894531 303.847656 Z M 237.894531 303.847656 "/></g><g clip-rule="nonzero" clip-path="url(#124891d725)"><path style=" stroke:none;fill-rule:nonzero;fill:#bd6f29;fill-opacity:1;" d="M 136.773438 92.511719 C 136.027344 92.511719 135.292969 92.441406 134.566406 92.296875 C 133.835938 92.152344 133.128906 91.9375 132.445312 91.65625 C 131.757812 91.371094 131.105469 91.023438 130.488281 90.613281 C 129.871094 90.203125 129.300781 89.734375 128.773438 89.210938 C 128.25 88.6875 127.78125 88.117188 127.367188 87.503906 C 126.957031 86.886719 126.605469 86.238281 126.324219 85.554688 C 126.039062 84.867188 125.824219 84.164062 125.679688 83.4375 C 125.535156 82.710938 125.460938 81.980469 125.460938 81.238281 C 125.460938 80.5 125.535156 79.765625 125.679688 79.039062 C 125.824219 78.3125 126.039062 77.609375 126.324219 76.925781 C 126.605469 76.238281 126.957031 75.589844 127.367188 74.976562 C 127.78125 74.359375 128.25 73.789062 128.773438 73.265625 C 129.300781 72.742188 129.871094 72.277344 130.488281 71.863281 C 131.105469 71.453125 131.757812 71.105469 132.445312 70.824219 C 133.128906 70.539062 133.835938 70.324219 134.566406 70.179688 C 135.292969 70.035156 136.027344 69.964844 136.773438 69.964844 C 137.515625 69.964844 138.25 70.035156 138.976562 70.179688 C 139.707031 70.324219 140.414062 70.539062 141.101562 70.824219 C 141.785156 71.105469 142.4375 71.453125 143.054688 71.863281 C 143.671875 72.277344 144.242188 72.742188 144.769531 73.265625 C 145.292969 73.789062 145.761719 74.359375 146.175781 74.976562 C 146.589844 75.589844 146.9375 76.238281 147.21875 76.925781 C 147.503906 77.609375 147.71875 78.3125 147.863281 79.039062 C 148.007812 79.765625 148.082031 80.5 148.082031 81.238281 C 148.082031 81.980469 148.007812 82.710938 147.863281 83.4375 C 147.71875 84.164062 147.503906 84.867188 147.21875 85.554688 C 146.9375 86.238281 146.589844 86.886719 146.175781 87.503906 C 145.761719 88.117188 145.292969 88.6875 144.769531 89.210938 C 144.242188 89.734375 143.671875 90.203125 143.054688 90.613281 C 142.4375 91.023438 141.785156 91.371094 141.101562 91.65625 C 140.414062 91.9375 139.707031 92.152344 138.976562 92.296875 C 138.25 92.441406 137.515625 92.511719 136.773438 92.511719 Z M 136.773438 92.511719 "/></g><g clip-rule="nonzero" clip-path="url(#82d6cca231)"><path style=" stroke:none;fill-rule:nonzero;fill:#bd6f29;fill-opacity:1;" d="M 136.773438 145.566406 C 136.027344 145.566406 135.292969 145.496094 134.566406 145.351562 C 133.835938 145.207031 133.128906 144.992188 132.445312 144.707031 C 131.757812 144.425781 131.105469 144.078125 130.488281 143.667969 C 129.871094 143.253906 129.300781 142.789062 128.773438 142.265625 C 128.25 141.742188 127.78125 141.171875 127.367188 140.554688 C 126.957031 139.941406 126.605469 139.292969 126.324219 138.605469 C 126.039062 137.921875 125.824219 137.21875 125.679688 136.492188 C 125.535156 135.765625 125.460938 135.035156 125.460938 134.292969 C 125.460938 133.554688 125.535156 132.820312 125.679688 132.09375 C 125.824219 131.367188 126.039062 130.664062 126.324219 129.980469 C 126.605469 129.292969 126.957031 128.644531 127.367188 128.03125 C 127.78125 127.414062 128.25 126.84375 128.773438 126.320312 C 129.300781 125.796875 129.871094 125.332031 130.488281 124.917969 C 131.105469 124.507812 131.757812 124.160156 132.445312 123.878906 C 133.128906 123.59375 133.835938 123.378906 134.566406 123.234375 C 135.292969 123.089844 136.027344 123.019531 136.773438 123.019531 C 137.515625 123.019531 138.25 123.089844 138.976562 123.234375 C 139.707031 123.378906 140.414062 123.59375 141.101562 123.878906 C 141.785156 124.160156 142.4375 124.507812 143.054688 124.917969 C 143.671875 125.332031 144.242188 125.796875 144.769531 126.320312 C 145.292969 126.84375 145.761719 127.414062 146.175781 128.03125 C 146.589844 128.644531 146.9375 129.292969 147.21875 129.976562 C 147.503906 130.664062 147.71875 131.367188 147.863281 132.09375 C 148.007812 132.820312 148.082031 133.554688 148.082031 134.292969 C 148.082031 135.035156 148.007812 135.765625 147.863281 136.492188 C 147.71875 137.21875 147.503906 137.921875 147.21875 138.605469 C 146.9375 139.292969 146.589844 139.941406 146.175781 140.554688 C 145.761719 141.171875 145.292969 141.742188 144.769531 142.265625 C 144.242188 142.789062 143.671875 143.253906 143.054688 143.667969 C 142.4375 144.078125 141.785156 144.425781 141.101562 144.707031 C 140.414062 144.992188 139.707031 145.207031 138.976562 145.351562 C 138.25 145.496094 137.515625 145.566406 136.773438 145.566406 Z M 136.773438 145.566406 "/></g><g clip-rule="nonzero" clip-path="url(#4ec6391a1d)"><path style=" stroke:none;fill-rule:nonzero;fill:#bd6f29;fill-opacity:1;" d="M 136.773438 198.621094 C 136.027344 198.621094 135.292969 198.550781 134.566406 198.40625 C 133.835938 198.261719 133.128906 198.046875 132.445312 197.761719 C 131.757812 197.480469 131.105469 197.132812 130.488281 196.722656 C 129.871094 196.308594 129.300781 195.84375 128.773438 195.320312 C 128.25 194.796875 127.78125 194.226562 127.367188 193.609375 C 126.957031 192.996094 126.605469 192.34375 126.324219 191.660156 C 126.039062 190.976562 125.824219 190.273438 125.679688 189.546875 C 125.535156 188.820312 125.460938 188.085938 125.460938 187.347656 C 125.460938 186.605469 125.535156 185.875 125.679688 185.148438 C 125.824219 184.421875 126.039062 183.71875 126.324219 183.03125 C 126.605469 182.347656 126.957031 181.699219 127.367188 181.082031 C 127.78125 180.46875 128.25 179.898438 128.773438 179.375 C 129.300781 178.851562 129.871094 178.382812 130.488281 177.972656 C 131.105469 177.5625 131.757812 177.214844 132.445312 176.929688 C 133.128906 176.648438 133.835938 176.433594 134.566406 176.289062 C 135.292969 176.144531 136.027344 176.074219 136.773438 176.074219 C 137.515625 176.074219 138.25 176.144531 138.976562 176.289062 C 139.707031 176.433594 140.414062 176.648438 141.101562 176.929688 C 141.785156 177.214844 142.4375 177.5625 143.054688 177.972656 C 143.671875 178.382812 144.242188 178.851562 144.769531 179.375 C 145.292969 179.898438 145.761719 180.46875 146.175781 181.082031 C 146.589844 181.699219 146.9375 182.347656 147.21875 183.03125 C 147.503906 183.71875 147.71875 184.421875 147.863281 185.148438 C 148.007812 185.875 148.082031 186.605469 148.082031 187.347656 C 148.082031 188.085938 148.007812 188.820312 147.863281 189.546875 C 147.71875 190.273438 147.503906 190.976562 147.21875 191.660156 C 146.9375 192.34375 146.589844 192.996094 146.175781 193.609375 C 145.761719 194.226562 145.292969 194.796875 144.769531 195.320312 C 144.242188 195.84375 143.671875 196.308594 143.054688 196.722656 C 142.4375 197.132812 141.785156 197.480469 141.101562 197.761719 C 140.414062 198.046875 139.707031 198.261719 138.976562 198.40625 C 138.25 198.550781 137.515625 198.621094 136.773438 198.621094 Z M 136.773438 198.621094 "/></g><g clip-rule="nonzero" clip-path="url(#69ee662a3f)"><path style=" stroke:none;fill-rule:nonzero;fill:#bd6f29;fill-opacity:1;" d="M 136.773438 251.675781 C 136.027344 251.675781 135.292969 251.605469 134.566406 251.460938 C 133.835938 251.316406 133.128906 251.101562 132.445312 250.820312 C 131.757812 250.535156 131.105469 250.1875 130.488281 249.777344 C 129.871094 249.367188 129.300781 248.898438 128.773438 248.375 C 128.25 247.851562 127.78125 247.28125 127.367188 246.667969 C 126.957031 246.050781 126.605469 245.402344 126.324219 244.71875 C 126.039062 244.035156 125.824219 243.328125 125.679688 242.601562 C 125.535156 241.875 125.460938 241.144531 125.460938 240.402344 C 125.460938 239.664062 125.535156 238.929688 125.679688 238.203125 C 125.824219 237.476562 126.039062 236.773438 126.324219 236.089844 C 126.605469 235.40625 126.957031 234.753906 127.367188 234.140625 C 127.78125 233.523438 128.25 232.953125 128.773438 232.429688 C 129.300781 231.90625 129.871094 231.441406 130.488281 231.03125 C 131.105469 230.617188 131.757812 230.269531 132.445312 229.988281 C 133.128906 229.703125 133.835938 229.492188 134.566406 229.347656 C 135.292969 229.203125 136.027344 229.128906 136.773438 229.128906 C 137.515625 229.128906 138.25 229.203125 138.976562 229.347656 C 139.707031 229.492188 140.414062 229.703125 141.101562 229.988281 C 141.785156 230.269531 142.4375 230.617188 143.054688 231.03125 C 143.671875 231.441406 144.242188 231.90625 144.769531 232.429688 C 145.292969 232.953125 145.761719 233.523438 146.175781 234.140625 C 146.589844 234.753906 146.9375 235.40625 147.21875 236.089844 C 147.503906 236.773438 147.71875 237.476562 147.863281 238.203125 C 148.007812 238.929688 148.082031 239.664062 148.082031 240.402344 C 148.082031 241.144531 148.007812 241.875 147.863281 242.601562 C 147.71875 243.328125 147.503906 244.035156 147.21875 244.71875 C 146.9375 245.402344 146.589844 246.050781 146.175781 246.667969 C 145.761719 247.28125 145.292969 247.851562 144.769531 248.375 C 144.242188 248.898438 143.671875 249.367188 143.054688 249.777344 C 142.4375 250.1875 141.785156 250.535156 141.101562 250.820312 C 140.414062 251.101562 139.707031 251.316406 138.976562 251.460938 C 138.25 251.605469 137.515625 251.675781 136.773438 251.675781 Z M 136.773438 251.675781 "/></g><g clip-rule="nonzero" clip-path="url(#5018bf702b)"><path style=" stroke:none;fill-rule:nonzero;fill:#bd6f29;fill-opacity:1;" d="M 136.773438 304.730469 C 136.027344 304.730469 135.292969 304.660156 134.566406 304.515625 C 133.835938 304.371094 133.128906 304.15625 132.445312 303.875 C 131.757812 303.589844 131.105469 303.242188 130.488281 302.832031 C 129.871094 302.421875 129.300781 301.953125 128.773438 301.429688 C 128.25 300.90625 127.78125 300.335938 127.367188 299.722656 C 126.957031 299.105469 126.605469 298.457031 126.324219 297.773438 C 126.039062 297.089844 125.824219 296.382812 125.679688 295.65625 C 125.535156 294.929688 125.460938 294.199219 125.460938 293.457031 C 125.460938 292.71875 125.535156 291.984375 125.679688 291.257812 C 125.824219 290.53125 126.039062 289.828125 126.324219 289.144531 C 126.605469 288.460938 126.957031 287.808594 127.367188 287.195312 C 127.78125 286.578125 128.25 286.007812 128.773438 285.484375 C 129.300781 284.960938 129.871094 284.496094 130.488281 284.082031 C 131.105469 283.671875 131.757812 283.324219 132.445312 283.042969 C 133.128906 282.757812 133.835938 282.542969 134.566406 282.398438 C 135.292969 282.257812 136.027344 282.183594 136.773438 282.183594 C 137.515625 282.183594 138.25 282.257812 138.976562 282.398438 C 139.707031 282.542969 140.414062 282.757812 141.101562 283.042969 C 141.785156 283.324219 142.4375 283.671875 143.054688 284.082031 C 143.671875 284.496094 144.242188 284.960938 144.769531 285.484375 C 145.292969 286.007812 145.761719 286.578125 146.175781 287.195312 C 146.589844 287.808594 146.9375 288.460938 147.21875 289.144531 C 147.503906 289.828125 147.71875 290.53125 147.863281 291.257812 C 148.007812 291.984375 148.082031 292.71875 148.082031 293.457031 C 148.082031 294.199219 148.007812 294.929688 147.863281 295.65625 C 147.71875 296.382812 147.503906 297.089844 147.21875 297.773438 C 146.9375 298.457031 146.589844 299.105469 146.175781 299.722656 C 145.761719 300.335938 145.292969 300.90625 144.769531 301.429688 C 144.242188 301.953125 143.671875 302.421875 143.054688 302.832031 C 142.4375 303.242188 141.785156 303.589844 141.101562 303.875 C 140.414062 304.15625 139.707031 304.371094 138.976562 304.515625 C 138.25 304.660156 137.515625 304.730469 136.773438 304.730469 Z M 136.773438 304.730469 "/></g><g clip-rule="nonzero" clip-path="url(#186e886e93)"><path style=" stroke:none;fill-rule:nonzero;fill:#bd6f29;fill-opacity:1;" d="M 136.773438 357.785156 C 136.027344 357.785156 135.292969 357.714844 134.566406 357.570312 C 133.835938 357.425781 133.128906 357.210938 132.445312 356.929688 C 131.757812 356.644531 131.105469 356.296875 130.488281 355.886719 C 129.871094 355.476562 129.300781 355.007812 128.773438 354.484375 C 128.25 353.960938 127.78125 353.390625 127.367188 352.777344 C 126.957031 352.160156 126.605469 351.511719 126.324219 350.828125 C 126.039062 350.144531 125.824219 349.4375 125.679688 348.710938 C 125.535156 347.984375 125.460938 347.253906 125.460938 346.511719 C 125.460938 345.773438 125.535156 345.039062 125.679688 344.3125 C 125.824219 343.585938 126.039062 342.882812 126.324219 342.199219 C 126.605469 341.515625 126.957031 340.863281 127.367188 340.25 C 127.78125 339.632812 128.25 339.0625 128.773438 338.539062 C 129.300781 338.015625 129.871094 337.550781 130.488281 337.136719 C 131.105469 336.726562 131.757812 336.378906 132.445312 336.097656 C 133.128906 335.8125 133.835938 335.597656 134.566406 335.453125 C 135.292969 335.308594 136.027344 335.238281 136.773438 335.238281 C 137.515625 335.238281 138.25 335.308594 138.976562 335.453125 C 139.707031 335.597656 140.414062 335.8125 141.101562 336.097656 C 141.785156 336.378906 142.4375 336.726562 143.054688 337.136719 C 143.671875 337.550781 144.242188 338.015625 144.769531 338.539062 C 145.292969 339.0625 145.761719 339.632812 146.175781 340.25 C 146.589844 340.863281 146.9375 341.515625 147.21875 342.199219 C 147.503906 342.882812 147.71875 343.585938 147.863281 344.3125 C 148.007812 345.039062 148.082031 345.773438 148.082031 346.511719 C 148.082031 347.253906 148.007812 347.984375 147.863281 348.710938 C 147.71875 349.4375 147.503906 350.144531 147.21875 350.828125 C 146.9375 351.511719 146.589844 352.160156 146.175781 352.777344 C 145.761719 353.390625 145.292969 353.960938 144.769531 354.484375 C 144.242188 355.007812 143.671875 355.476562 143.054688 355.886719 C 142.4375 356.296875 141.785156 356.644531 141.101562 356.929688 C 140.414062 357.210938 139.707031 357.425781 138.976562 357.570312 C 138.25 357.714844 137.515625 357.785156 136.773438 357.785156 Z M 136.773438 357.785156 "/></g></g></svg>