<svg xmlns="http://www.w3.org/2000/svg" xmlns:xlink="http://www.w3.org/1999/xlink" width="500" zoomAndPan="magnify" viewBox="0 0 375 374.999991" height="500" preserveAspectRatio="xMidYMid meet" version="1.2"><defs><clipPath id="928c28ac17"><path d="M 153 27.367188 L 222 27.367188 L 222 181 L 153 181 Z M 153 27.367188 "/></clipPath><clipPath id="f710b8e9ed"><path d="M 153 194 L 222 194 L 222 347.617188 L 153 347.617188 Z M 153 194 "/></clipPath><clipPath id="847174802f"><path d="M 194 153 L 347.617188 153 L 347.617188 222 L 194 222 Z M 194 153 "/></clipPath><clipPath id="1343bffb29"><path d="M 27.367188 153 L 181 153 L 181 222 L 27.367188 222 Z M 27.367188 153 "/></clipPath></defs><g id="d7f0e2d005"><g clip-rule="nonzero" clip-path="url(#928c28ac17)"><path style=" stroke:none;fill-rule:evenodd;fill:#b96b26;fill-opacity:1;" d="M 193.066406 30.652344 L 210.175781 61.515625 C 224.785156 87.871094 224.785156 119.894531 210.175781 146.25 L 193.066406 177.117188 C 191.941406 179.144531 189.804688 180.40625 187.484375 180.40625 C 185.164062 180.40625 183.03125 179.144531 181.90625 177.117188 L 164.796875 146.25 C 150.1875 119.894531 150.1875 87.871094 164.796875 61.515625 L 181.90625 30.652344 C 183.03125 28.621094 185.164062 27.363281 187.484375 27.363281 C 189.804688 27.363281 191.941406 28.621094 193.066406 30.652344 Z M 187.484375 46.90625 L 175.957031 67.703125 C 163.484375 90.210938 163.484375 117.558594 175.957031 140.0625 L 187.484375 160.863281 L 199.011719 140.0625 C 211.488281 117.558594 211.488281 90.210938 199.011719 67.703125 Z M 187.484375 46.90625 "/></g><g clip-rule="nonzero" clip-path="url(#f710b8e9ed)"><path style=" stroke:none;fill-rule:evenodd;fill:#b96b26;fill-opacity:1;" d="M 193.066406 197.867188 L 210.175781 228.730469 C 224.785156 255.085938 224.785156 287.109375 210.175781 313.464844 L 193.066406 344.332031 C 191.941406 346.359375 189.804688 347.621094 187.484375 347.621094 C 185.164062 347.621094 183.03125 346.359375 181.90625 344.332031 L 164.796875 313.464844 C 150.1875 287.109375 150.1875 255.085938 164.796875 228.730469 L 181.90625 197.867188 C 183.03125 195.835938 185.164062 194.578125 187.484375 194.578125 C 189.804688 194.578125 191.941406 195.835938 193.066406 197.867188 Z M 187.484375 214.121094 L 175.957031 234.917969 C 163.484375 257.425781 163.484375 284.773438 175.957031 307.277344 L 187.484375 328.078125 L 199.011719 307.277344 C 211.488281 284.773438 211.488281 257.425781 199.011719 234.917969 Z M 187.484375 214.121094 "/></g><g clip-rule="nonzero" clip-path="url(#847174802f)"><path style=" stroke:none;fill-rule:evenodd;fill:#b96b26;fill-opacity:1;" d="M 344.328125 193.074219 L 313.460938 210.183594 C 287.105469 224.792969 255.082031 224.792969 228.726562 210.183594 L 197.859375 193.074219 C 195.832031 191.949219 194.574219 189.8125 194.574219 187.492188 C 194.574219 185.171875 195.832031 183.035156 197.859375 181.910156 L 228.726562 164.800781 C 255.082031 150.191406 287.105469 150.191406 313.460938 164.800781 L 344.328125 181.910156 C 346.355469 183.035156 347.613281 185.171875 347.613281 187.492188 C 347.613281 189.8125 346.355469 191.949219 344.328125 193.074219 Z M 328.070312 187.492188 L 307.273438 175.964844 C 284.765625 163.488281 257.421875 163.488281 234.914062 175.964844 L 214.117188 187.492188 L 234.914062 199.019531 C 257.421875 211.496094 284.765625 211.496094 307.273438 199.019531 Z M 328.070312 187.492188 "/></g><g clip-rule="nonzero" clip-path="url(#1343bffb29)"><path style=" stroke:none;fill-rule:evenodd;fill:#b96b26;fill-opacity:1;" d="M 177.109375 193.074219 L 146.246094 210.183594 C 119.890625 224.792969 87.867188 224.792969 61.511719 210.183594 L 30.644531 193.074219 C 28.617188 191.949219 27.359375 189.8125 27.359375 187.492188 C 27.359375 185.171875 28.617188 183.035156 30.644531 181.910156 L 61.511719 164.800781 C 87.867188 150.191406 119.890625 150.191406 146.246094 164.800781 L 177.109375 181.910156 C 179.140625 183.035156 180.398438 185.171875 180.398438 187.492188 C 180.398438 189.8125 179.140625 191.949219 177.109375 193.074219 Z M 160.855469 187.492188 L 140.058594 175.964844 C 117.550781 163.488281 90.207031 163.488281 67.699219 175.964844 L 46.902344 187.492188 L 67.699219 199.019531 C 90.207031 211.496094 117.550781 211.496094 140.058594 199.019531 Z M 160.855469 187.492188 "/></g><path style=" stroke:none;fill-rule:evenodd;fill:#b96b26;fill-opacity:1;" d="M 250.402344 101.039062 C 259.625 101.039062 267.113281 108.527344 267.113281 117.75 C 267.113281 126.976562 259.625 134.464844 250.402344 134.464844 C 241.175781 134.464844 233.683594 126.976562 233.683594 117.75 C 233.683594 108.527344 241.175781 101.039062 250.402344 101.039062 Z M 250.402344 113.800781 C 248.21875 113.800781 246.449219 115.570312 246.449219 117.75 C 246.449219 119.933594 248.21875 121.703125 250.402344 121.703125 C 252.582031 121.703125 254.351562 119.933594 254.351562 117.75 C 254.351562 115.570312 252.582031 113.800781 250.402344 113.800781 Z M 250.402344 113.800781 "/><path style=" stroke:none;fill-rule:evenodd;fill:#b96b26;fill-opacity:1;" d="M 125.222656 101.039062 C 134.449219 101.039062 141.9375 108.527344 141.9375 117.75 C 141.9375 126.976562 134.449219 134.464844 125.222656 134.464844 C 116 134.464844 108.507812 126.976562 108.507812 117.75 C 108.507812 108.527344 116 101.039062 125.222656 101.039062 Z M 125.222656 113.800781 C 123.042969 113.800781 121.269531 115.570312 121.269531 117.75 C 121.269531 119.933594 123.042969 121.703125 125.222656 121.703125 C 127.40625 121.703125 129.175781 119.933594 129.175781 117.75 C 129.175781 115.570312 127.40625 113.800781 125.222656 113.800781 Z M 125.222656 113.800781 "/><path style=" stroke:none;fill-rule:evenodd;fill:#b96b26;fill-opacity:1;" d="M 250.402344 236.84375 C 259.625 236.84375 267.113281 244.332031 267.113281 253.554688 C 267.113281 262.78125 259.625 270.269531 250.402344 270.269531 C 241.175781 270.269531 233.683594 262.78125 233.683594 253.554688 C 233.683594 244.332031 241.175781 236.84375 250.402344 236.84375 Z M 250.402344 249.605469 C 248.21875 249.605469 246.449219 251.375 246.449219 253.554688 C 246.449219 255.738281 248.21875 257.507812 250.402344 257.507812 C 252.582031 257.507812 254.351562 255.738281 254.351562 253.554688 C 254.351562 251.375 252.582031 249.605469 250.402344 249.605469 Z M 250.402344 249.605469 "/><path style=" stroke:none;fill-rule:evenodd;fill:#b96b26;fill-opacity:1;" d="M 125.222656 236.84375 C 134.449219 236.84375 141.9375 244.332031 141.9375 253.554688 C 141.9375 262.78125 134.449219 270.269531 125.222656 270.269531 C 116 270.269531 108.507812 262.78125 108.507812 253.554688 C 108.507812 244.332031 116 236.84375 125.222656 236.84375 Z M 125.222656 249.605469 C 123.042969 249.605469 121.269531 251.375 121.269531 253.554688 C 121.269531 255.738281 123.042969 257.507812 125.222656 257.507812 C 127.40625 257.507812 129.175781 255.738281 129.175781 253.554688 C 129.175781 251.375 127.40625 249.605469 125.222656 249.605469 Z M 125.222656 249.605469 "/></g></svg>