<svg xmlns="http://www.w3.org/2000/svg" xmlns:xlink="http://www.w3.org/1999/xlink" width="500" zoomAndPan="magnify" viewBox="0 0 375 374.999991" height="500" preserveAspectRatio="xMidYMid meet" version="1.2"><defs><clipPath id="b228d1d13a"><path d="M 180 13.351562 L 222.730469 13.351562 L 222.730469 56 L 180 56 Z M 180 13.351562 "/></clipPath><clipPath id="6b4fd99541"><path d="M 180 182 L 222.730469 182 L 222.730469 225 L 180 225 Z M 180 182 "/></clipPath><clipPath id="f15efc39d4"><path d="M 180 55 L 222.730469 55 L 222.730469 99 L 180 99 Z M 180 55 "/></clipPath><clipPath id="d77cfb3e36"><path d="M 180 224 L 222.730469 224 L 222.730469 268 L 180 268 Z M 180 224 "/></clipPath><clipPath id="513ee69027"><path d="M 180 97 L 222.730469 97 L 222.730469 141 L 180 141 Z M 180 97 "/></clipPath><clipPath id="6c34262255"><path d="M 180 266 L 222.730469 266 L 222.730469 310 L 180 310 Z M 180 266 "/></clipPath><clipPath id="9ff33daa83"><path d="M 180 139 L 222.730469 139 L 222.730469 183 L 180 183 Z M 180 139 "/></clipPath><clipPath id="8da1ef83ab"><path d="M 164.230469 53 L 175 53 L 175 59 L 164.230469 59 Z M 164.230469 53 "/></clipPath><clipPath id="4249f92b5a"><path d="M 164.230469 222 L 175 222 L 175 228 L 164.230469 228 Z M 164.230469 222 "/></clipPath><clipPath id="9396b6a845"><path d="M 164.230469 95 L 175 95 L 175 101 L 164.230469 101 Z M 164.230469 95 "/></clipPath><clipPath id="084cb0e5a7"><path d="M 164.230469 264 L 175 264 L 175 270 L 164.230469 270 Z M 164.230469 264 "/></clipPath><clipPath id="57db4d581b"><path d="M 164.230469 137 L 175 137 L 175 143 L 164.230469 143 Z M 164.230469 137 "/></clipPath><clipPath id="affbb1241a"><path d="M 164.230469 179 L 175 179 L 175 185 L 164.230469 185 Z M 164.230469 179 "/></clipPath><clipPath id="99e2885ed5"><path d="M 180 308 L 222.730469 308 L 222.730469 352 L 180 352 Z M 180 308 "/></clipPath><clipPath id="b3a9db1c0f"><path d="M 164.230469 306 L 175 306 L 175 312 L 164.230469 312 Z M 164.230469 306 "/></clipPath><clipPath id="66efacb401"><path d="M 172 350 L 178 350 L 178 361.351562 L 172 361.351562 Z M 172 350 "/></clipPath><clipPath id="28545c6d31"><path d="M 164.230469 348 L 175 348 L 175 354 L 164.230469 354 Z M 164.230469 348 "/></clipPath></defs><g id="775f5140a7"><g clip-rule="nonzero" clip-path="url(#b228d1d13a)"><path style=" stroke:none;fill-rule:evenodd;fill:#bd6f29;fill-opacity:1;" d="M 213.761719 22.367188 C 218.910156 23.863281 222.714844 28.878906 222.714844 34.679688 C 222.714844 40.476562 218.910156 45.496094 213.761719 46.988281 C 212.277344 52.167969 207.292969 56 201.53125 56 C 195.769531 56 190.785156 52.167969 189.300781 46.988281 C 184.152344 45.496094 180.347656 40.476562 180.347656 34.679688 C 180.347656 28.878906 184.152344 23.863281 189.300781 22.367188 C 190.785156 17.1875 195.769531 13.355469 201.53125 13.355469 C 207.292969 13.355469 212.277344 17.1875 213.761719 22.367188 Z M 213.761719 22.367188 "/></g><g clip-rule="nonzero" clip-path="url(#6b4fd99541)"><path style=" stroke:none;fill-rule:evenodd;fill:#bd6f29;fill-opacity:1;" d="M 213.761719 191.324219 C 218.910156 192.816406 222.714844 197.835938 222.714844 203.632812 C 222.714844 209.433594 218.910156 214.453125 213.761719 215.945312 C 212.277344 221.125 207.292969 224.957031 201.53125 224.957031 C 195.769531 224.957031 190.785156 221.125 189.300781 215.945312 C 184.152344 214.453125 180.347656 209.433594 180.347656 203.632812 C 180.347656 197.835938 184.152344 192.816406 189.300781 191.324219 C 190.785156 186.144531 195.769531 182.3125 201.53125 182.3125 C 207.292969 182.3125 212.277344 186.144531 213.761719 191.324219 Z M 213.761719 191.324219 "/></g><g clip-rule="nonzero" clip-path="url(#f15efc39d4)"><path style=" stroke:none;fill-rule:evenodd;fill:#bd6f29;fill-opacity:1;" d="M 213.761719 64.5625 C 218.910156 66.054688 222.714844 71.074219 222.714844 76.871094 C 222.714844 82.671875 218.910156 87.6875 213.761719 89.183594 C 212.277344 94.363281 207.292969 98.195312 201.53125 98.195312 C 195.769531 98.195312 190.785156 94.363281 189.300781 89.183594 C 184.152344 87.6875 180.347656 82.671875 180.347656 76.871094 C 180.347656 71.074219 184.152344 66.054688 189.300781 64.5625 C 190.785156 59.382812 195.769531 55.550781 201.53125 55.550781 C 207.292969 55.550781 212.277344 59.382812 213.761719 64.5625 Z M 213.761719 64.5625 "/></g><g clip-rule="nonzero" clip-path="url(#d77cfb3e36)"><path style=" stroke:none;fill-rule:evenodd;fill:#bd6f29;fill-opacity:1;" d="M 213.761719 233.515625 C 218.910156 235.011719 222.714844 240.027344 222.714844 245.828125 C 222.714844 251.625 218.910156 256.644531 213.761719 258.136719 C 212.277344 263.316406 207.292969 267.148438 201.53125 267.148438 C 195.769531 267.148438 190.785156 263.316406 189.300781 258.136719 C 184.152344 256.644531 180.347656 251.625 180.347656 245.828125 C 180.347656 240.027344 184.152344 235.011719 189.300781 233.515625 C 190.785156 228.335938 195.769531 224.503906 201.53125 224.503906 C 207.292969 224.503906 212.277344 228.335938 213.761719 233.515625 Z M 213.761719 233.515625 "/></g><g clip-rule="nonzero" clip-path="url(#513ee69027)"><path style=" stroke:none;fill-rule:evenodd;fill:#bd6f29;fill-opacity:1;" d="M 213.761719 106.753906 C 218.910156 108.246094 222.714844 113.265625 222.714844 119.066406 C 222.714844 124.863281 218.910156 129.882812 213.761719 131.375 C 212.277344 136.554688 207.292969 140.386719 201.53125 140.386719 C 195.769531 140.386719 190.785156 136.554688 189.300781 131.375 C 184.152344 129.882812 180.347656 124.863281 180.347656 119.066406 C 180.347656 113.265625 184.152344 108.246094 189.300781 106.753906 C 190.785156 101.574219 195.769531 97.742188 201.53125 97.742188 C 207.292969 97.742188 212.277344 101.574219 213.761719 106.753906 Z M 213.761719 106.753906 "/></g><g clip-rule="nonzero" clip-path="url(#6c34262255)"><path style=" stroke:none;fill-rule:evenodd;fill:#bd6f29;fill-opacity:1;" d="M 213.761719 275.707031 C 218.910156 277.203125 222.714844 282.222656 222.714844 288.019531 C 222.714844 293.816406 218.910156 298.835938 213.761719 300.328125 C 212.277344 305.511719 207.292969 309.34375 201.53125 309.34375 C 195.769531 309.34375 190.785156 305.511719 189.300781 300.328125 C 184.152344 298.835938 180.347656 293.816406 180.347656 288.019531 C 180.347656 282.222656 184.152344 277.203125 189.300781 275.707031 C 190.785156 270.527344 195.769531 266.695312 201.53125 266.695312 C 207.292969 266.695312 212.277344 270.527344 213.761719 275.707031 Z M 213.761719 275.707031 "/></g><g clip-rule="nonzero" clip-path="url(#9ff33daa83)"><path style=" stroke:none;fill-rule:evenodd;fill:#bd6f29;fill-opacity:1;" d="M 213.761719 148.945312 C 218.910156 150.441406 222.714844 155.460938 222.714844 161.257812 C 222.714844 167.054688 218.910156 172.074219 213.761719 173.566406 C 212.277344 178.75 207.292969 182.582031 201.53125 182.582031 C 195.769531 182.582031 190.785156 178.75 189.300781 173.566406 C 184.152344 172.074219 180.347656 167.054688 180.347656 161.257812 C 180.347656 155.460938 184.152344 150.441406 189.300781 148.945312 C 190.785156 143.765625 195.769531 139.933594 201.53125 139.933594 C 207.292969 139.933594 212.277344 143.765625 213.761719 148.945312 Z M 213.761719 148.945312 "/></g><path style=" stroke:none;fill-rule:evenodd;fill:#ffffff;fill-opacity:1;" d="M 201.351562 203.65625 C 201.351562 203.65625 206.980469 201.703125 208.667969 200.09375 C 209.652344 199.15625 209.695312 197.585938 208.761719 196.59375 C 207.828125 195.601562 206.269531 195.558594 205.285156 196.5 C 203.597656 198.105469 201.351562 203.65625 201.351562 203.65625 Z M 201.351562 203.65625 "/><path style=" stroke:none;fill-rule:evenodd;fill:#ffffff;fill-opacity:1;" d="M 201.351562 203.609375 C 201.351562 203.609375 206.980469 205.5625 208.667969 207.171875 C 209.652344 208.113281 209.695312 209.679688 208.761719 210.671875 C 207.828125 211.667969 206.269531 211.710938 205.285156 210.769531 C 203.597656 209.160156 201.351562 203.609375 201.351562 203.609375 Z M 201.351562 203.609375 "/><path style=" stroke:none;fill-rule:evenodd;fill:#ffffff;fill-opacity:1;" d="M 201.710938 203.65625 C 201.710938 203.65625 196.082031 201.703125 194.394531 200.09375 C 193.410156 199.15625 193.367188 197.585938 194.300781 196.59375 C 195.234375 195.601562 196.792969 195.558594 197.777344 196.5 C 199.464844 198.105469 201.710938 203.65625 201.710938 203.65625 Z M 201.710938 203.65625 "/><path style=" stroke:none;fill-rule:evenodd;fill:#ffffff;fill-opacity:1;" d="M 201.710938 203.609375 C 201.710938 203.609375 196.082031 205.5625 194.394531 207.171875 C 193.410156 208.113281 193.367188 209.679688 194.300781 210.671875 C 195.234375 211.667969 196.792969 211.710938 197.777344 210.769531 C 199.464844 209.160156 201.710938 203.609375 201.710938 203.609375 Z M 201.710938 203.609375 "/><path style=" stroke:none;fill-rule:nonzero;fill:#ffffff;fill-opacity:1;" d="M 201.625 204.769531 C 201.457031 204.769531 201.300781 204.738281 201.148438 204.675781 C 200.992188 204.613281 200.859375 204.519531 200.742188 204.402344 C 200.625 204.285156 200.535156 204.148438 200.472656 203.996094 C 200.40625 203.84375 200.375 203.683594 200.375 203.515625 C 200.375 203.347656 200.40625 203.1875 200.472656 203.035156 C 200.535156 202.882812 200.625 202.746094 200.742188 202.628906 C 200.859375 202.511719 200.992188 202.417969 201.148438 202.355469 C 201.300781 202.292969 201.457031 202.261719 201.625 202.261719 C 201.789062 202.261719 201.949219 202.292969 202.101562 202.355469 C 202.253906 202.417969 202.390625 202.511719 202.507812 202.628906 C 202.621094 202.746094 202.714844 202.882812 202.777344 203.035156 C 202.839844 203.1875 202.871094 203.347656 202.871094 203.515625 C 202.871094 203.683594 202.839844 203.84375 202.777344 203.996094 C 202.714844 204.148438 202.621094 204.285156 202.507812 204.402344 C 202.390625 204.519531 202.253906 204.613281 202.101562 204.675781 C 201.949219 204.738281 201.789062 204.769531 201.625 204.769531 Z M 201.625 204.769531 "/><path style=" stroke:none;fill-rule:evenodd;fill:#bd6f29;fill-opacity:1;" d="M 174.183594 55.757812 C 174.183594 55.757812 179.585938 58.277344 181.910156 58.292969 C 183.265625 58.304688 184.378906 57.203125 184.390625 55.835938 C 184.398438 54.46875 183.304688 53.351562 181.945312 53.339844 C 179.625 53.324219 174.183594 55.757812 174.183594 55.757812 Z M 174.183594 55.757812 "/><path style=" stroke:none;fill-rule:evenodd;fill:#bd6f29;fill-opacity:1;" d="M 174.214844 55.726562 C 174.214844 55.726562 176.925781 61.058594 177.035156 63.394531 C 177.101562 64.761719 176.050781 65.921875 174.695312 65.984375 C 173.339844 66.050781 172.183594 64.996094 172.121094 63.628906 C 172.011719 61.292969 174.214844 55.726562 174.214844 55.726562 Z M 174.214844 55.726562 "/><path style=" stroke:none;fill-rule:evenodd;fill:#bd6f29;fill-opacity:1;" d="M 174.445312 56.011719 C 174.445312 56.011719 171.730469 50.675781 171.621094 48.339844 C 171.558594 46.972656 172.605469 45.8125 173.960938 45.75 C 175.320312 45.683594 176.472656 46.742188 176.535156 48.105469 C 176.644531 50.441406 174.445312 56.011719 174.445312 56.011719 Z M 174.445312 56.011719 "/><g clip-rule="nonzero" clip-path="url(#8da1ef83ab)"><path style=" stroke:none;fill-rule:evenodd;fill:#bd6f29;fill-opacity:1;" d="M 174.476562 55.976562 C 174.476562 55.976562 169.070312 53.460938 166.746094 53.441406 C 165.390625 53.429688 164.277344 54.53125 164.269531 55.898438 C 164.257812 57.265625 165.351562 58.382812 166.710938 58.394531 C 169.035156 58.410156 174.476562 55.976562 174.476562 55.976562 Z M 174.476562 55.976562 "/></g><path style=" stroke:none;fill-rule:nonzero;fill:#bd6f29;fill-opacity:1;" d="M 173.613281 56.75 C 173.492188 56.636719 173.398438 56.503906 173.332031 56.347656 C 173.269531 56.195312 173.234375 56.039062 173.230469 55.871094 C 173.226562 55.703125 173.253906 55.542969 173.316406 55.390625 C 173.375 55.234375 173.460938 55.097656 173.578125 54.976562 C 173.691406 54.855469 173.824219 54.761719 173.976562 54.695312 C 174.128906 54.628906 174.285156 54.59375 174.453125 54.589844 C 174.617188 54.585938 174.777344 54.617188 174.929688 54.675781 C 175.085938 54.738281 175.222656 54.824219 175.339844 54.941406 C 175.460938 55.054688 175.554688 55.191406 175.621094 55.34375 C 175.6875 55.496094 175.71875 55.65625 175.722656 55.820312 C 175.726562 55.988281 175.699219 56.148438 175.636719 56.304688 C 175.578125 56.457031 175.492188 56.597656 175.375 56.714844 C 175.261719 56.835938 175.128906 56.929688 174.976562 56.996094 C 174.824219 57.0625 174.667969 57.097656 174.5 57.101562 C 174.335938 57.105469 174.175781 57.074219 174.023438 57.015625 C 173.867188 56.953125 173.730469 56.867188 173.613281 56.75 Z M 173.613281 56.75 "/><path style=" stroke:none;fill-rule:evenodd;fill:#bd6f29;fill-opacity:1;" d="M 174.183594 224.710938 C 174.183594 224.710938 179.585938 227.230469 181.910156 227.246094 C 183.265625 227.257812 184.378906 226.15625 184.390625 224.789062 C 184.398438 223.421875 183.304688 222.304688 181.945312 222.296875 C 179.625 222.277344 174.183594 224.710938 174.183594 224.710938 Z M 174.183594 224.710938 "/><path style=" stroke:none;fill-rule:evenodd;fill:#bd6f29;fill-opacity:1;" d="M 174.214844 224.679688 C 174.214844 224.679688 176.925781 230.015625 177.035156 232.351562 C 177.101562 233.714844 176.050781 234.875 174.695312 234.941406 C 173.339844 235.003906 172.183594 233.949219 172.121094 232.582031 C 172.011719 230.246094 174.214844 224.679688 174.214844 224.679688 Z M 174.214844 224.679688 "/><path style=" stroke:none;fill-rule:evenodd;fill:#bd6f29;fill-opacity:1;" d="M 174.445312 224.964844 C 174.445312 224.964844 171.730469 219.628906 171.621094 217.292969 C 171.558594 215.929688 172.605469 214.765625 173.960938 214.703125 C 175.320312 214.636719 176.472656 215.695312 176.535156 217.058594 C 176.644531 219.398438 174.445312 224.964844 174.445312 224.964844 Z M 174.445312 224.964844 "/><g clip-rule="nonzero" clip-path="url(#4249f92b5a)"><path style=" stroke:none;fill-rule:evenodd;fill:#bd6f29;fill-opacity:1;" d="M 174.476562 224.933594 C 174.476562 224.933594 169.070312 222.414062 166.746094 222.394531 C 165.390625 222.386719 164.277344 223.488281 164.269531 224.851562 C 164.257812 226.21875 165.351562 227.339844 166.710938 227.347656 C 169.035156 227.367188 174.476562 224.933594 174.476562 224.933594 Z M 174.476562 224.933594 "/></g><path style=" stroke:none;fill-rule:nonzero;fill:#bd6f29;fill-opacity:1;" d="M 173.613281 225.707031 C 173.492188 225.589844 173.398438 225.457031 173.332031 225.304688 C 173.269531 225.152344 173.234375 224.992188 173.230469 224.824219 C 173.226562 224.660156 173.253906 224.5 173.316406 224.34375 C 173.375 224.1875 173.460938 224.050781 173.578125 223.929688 C 173.691406 223.8125 173.824219 223.71875 173.976562 223.652344 C 174.128906 223.582031 174.285156 223.546875 174.453125 223.546875 C 174.617188 223.542969 174.777344 223.570312 174.929688 223.632812 C 175.085938 223.691406 175.222656 223.78125 175.339844 223.894531 C 175.460938 224.011719 175.554688 224.144531 175.621094 224.296875 C 175.6875 224.449219 175.71875 224.609375 175.722656 224.777344 C 175.726562 224.941406 175.699219 225.101562 175.636719 225.257812 C 175.578125 225.414062 175.492188 225.550781 175.375 225.671875 C 175.261719 225.789062 175.128906 225.882812 174.976562 225.949219 C 174.824219 226.019531 174.667969 226.050781 174.5 226.054688 C 174.335938 226.058594 174.175781 226.03125 174.023438 225.96875 C 173.867188 225.910156 173.730469 225.820312 173.613281 225.707031 Z M 173.613281 225.707031 "/><path style=" stroke:none;fill-rule:evenodd;fill:#bd6f29;fill-opacity:1;" d="M 174.183594 97.859375 C 174.183594 97.859375 179.585938 100.375 181.910156 100.394531 C 183.265625 100.40625 184.378906 99.304688 184.390625 97.9375 C 184.398438 96.570312 183.304688 95.453125 181.945312 95.441406 C 179.625 95.421875 174.183594 97.859375 174.183594 97.859375 Z M 174.183594 97.859375 "/><path style=" stroke:none;fill-rule:evenodd;fill:#bd6f29;fill-opacity:1;" d="M 174.214844 97.824219 C 174.214844 97.824219 176.925781 103.160156 177.035156 105.496094 C 177.101562 106.863281 176.050781 108.023438 174.695312 108.085938 C 173.339844 108.152344 172.183594 107.09375 172.121094 105.730469 C 172.011719 103.394531 174.214844 97.824219 174.214844 97.824219 Z M 174.214844 97.824219 "/><path style=" stroke:none;fill-rule:evenodd;fill:#bd6f29;fill-opacity:1;" d="M 174.445312 98.109375 C 174.445312 98.109375 171.730469 92.777344 171.621094 90.441406 C 171.558594 89.074219 172.605469 87.914062 173.960938 87.847656 C 175.320312 87.785156 176.472656 88.839844 176.535156 90.207031 C 176.644531 92.542969 174.445312 98.109375 174.445312 98.109375 Z M 174.445312 98.109375 "/><g clip-rule="nonzero" clip-path="url(#9396b6a845)"><path style=" stroke:none;fill-rule:evenodd;fill:#bd6f29;fill-opacity:1;" d="M 174.476562 98.078125 C 174.476562 98.078125 169.070312 95.558594 166.746094 95.542969 C 165.390625 95.53125 164.277344 96.632812 164.269531 98 C 164.257812 99.367188 165.351562 100.484375 166.710938 100.496094 C 169.035156 100.511719 174.476562 98.078125 174.476562 98.078125 Z M 174.476562 98.078125 "/></g><path style=" stroke:none;fill-rule:nonzero;fill:#bd6f29;fill-opacity:1;" d="M 173.613281 98.851562 C 173.492188 98.738281 173.398438 98.601562 173.332031 98.449219 C 173.269531 98.296875 173.234375 98.136719 173.230469 97.972656 C 173.226562 97.804688 173.253906 97.644531 173.316406 97.488281 C 173.375 97.335938 173.460938 97.195312 173.578125 97.078125 C 173.691406 96.957031 173.824219 96.863281 173.976562 96.796875 C 174.128906 96.730469 174.285156 96.695312 174.453125 96.691406 C 174.617188 96.6875 174.777344 96.71875 174.929688 96.777344 C 175.085938 96.839844 175.222656 96.925781 175.339844 97.042969 C 175.460938 97.15625 175.554688 97.292969 175.621094 97.445312 C 175.6875 97.597656 175.71875 97.757812 175.722656 97.921875 C 175.726562 98.089844 175.699219 98.25 175.636719 98.40625 C 175.578125 98.558594 175.492188 98.699219 175.375 98.816406 C 175.261719 98.9375 175.128906 99.03125 174.976562 99.097656 C 174.824219 99.164062 174.667969 99.199219 174.5 99.203125 C 174.335938 99.207031 174.175781 99.175781 174.023438 99.117188 C 173.867188 99.054688 173.730469 98.96875 173.613281 98.851562 Z M 173.613281 98.851562 "/><path style=" stroke:none;fill-rule:evenodd;fill:#bd6f29;fill-opacity:1;" d="M 174.183594 266.8125 C 174.183594 266.8125 179.585938 269.332031 181.910156 269.347656 C 183.265625 269.359375 184.378906 268.257812 184.390625 266.890625 C 184.398438 265.523438 183.304688 264.40625 181.945312 264.394531 C 179.625 264.378906 174.183594 266.8125 174.183594 266.8125 Z M 174.183594 266.8125 "/><path style=" stroke:none;fill-rule:evenodd;fill:#bd6f29;fill-opacity:1;" d="M 174.214844 266.78125 C 174.214844 266.78125 176.925781 272.113281 177.035156 274.453125 C 177.101562 275.816406 176.050781 276.976562 174.695312 277.042969 C 173.339844 277.105469 172.183594 276.050781 172.121094 274.683594 C 172.011719 272.347656 174.214844 266.78125 174.214844 266.78125 Z M 174.214844 266.78125 "/><path style=" stroke:none;fill-rule:evenodd;fill:#bd6f29;fill-opacity:1;" d="M 174.445312 267.066406 C 174.445312 267.066406 171.730469 261.730469 171.621094 259.394531 C 171.558594 258.03125 172.605469 256.867188 173.960938 256.804688 C 175.320312 256.738281 176.472656 257.796875 176.535156 259.160156 C 176.644531 261.5 174.445312 267.066406 174.445312 267.066406 Z M 174.445312 267.066406 "/><g clip-rule="nonzero" clip-path="url(#084cb0e5a7)"><path style=" stroke:none;fill-rule:evenodd;fill:#bd6f29;fill-opacity:1;" d="M 174.476562 267.03125 C 174.476562 267.03125 169.070312 264.515625 166.746094 264.496094 C 165.390625 264.488281 164.277344 265.585938 164.269531 266.953125 C 164.257812 268.320312 165.351562 269.441406 166.710938 269.449219 C 169.035156 269.46875 174.476562 267.03125 174.476562 267.03125 Z M 174.476562 267.03125 "/></g><path style=" stroke:none;fill-rule:nonzero;fill:#bd6f29;fill-opacity:1;" d="M 173.613281 267.808594 C 173.492188 267.691406 173.398438 267.558594 173.332031 267.40625 C 173.269531 267.253906 173.234375 267.09375 173.230469 266.925781 C 173.226562 266.761719 173.253906 266.601562 173.316406 266.445312 C 173.375 266.289062 173.460938 266.152344 173.578125 266.03125 C 173.691406 265.910156 173.824219 265.820312 173.976562 265.75 C 174.128906 265.683594 174.285156 265.648438 174.453125 265.648438 C 174.617188 265.644531 174.777344 265.671875 174.929688 265.734375 C 175.085938 265.792969 175.222656 265.882812 175.339844 265.996094 C 175.460938 266.113281 175.554688 266.246094 175.621094 266.398438 C 175.6875 266.550781 175.71875 266.710938 175.722656 266.878906 C 175.726562 267.042969 175.699219 267.203125 175.636719 267.359375 C 175.578125 267.515625 175.492188 267.652344 175.375 267.773438 C 175.261719 267.890625 175.128906 267.984375 174.976562 268.050781 C 174.824219 268.117188 174.667969 268.152344 174.5 268.15625 C 174.335938 268.160156 174.175781 268.132812 174.023438 268.070312 C 173.867188 268.011719 173.730469 267.921875 173.613281 267.808594 Z M 173.613281 267.808594 "/><path style=" stroke:none;fill-rule:evenodd;fill:#bd6f29;fill-opacity:1;" d="M 174.183594 139.960938 C 174.183594 139.960938 179.585938 142.476562 181.910156 142.496094 C 183.265625 142.507812 184.378906 141.40625 184.390625 140.039062 C 184.398438 138.671875 183.304688 137.554688 181.945312 137.542969 C 179.625 137.523438 174.183594 139.960938 174.183594 139.960938 Z M 174.183594 139.960938 "/><path style=" stroke:none;fill-rule:evenodd;fill:#bd6f29;fill-opacity:1;" d="M 174.214844 139.925781 C 174.214844 139.925781 176.925781 145.261719 177.035156 147.597656 C 177.101562 148.964844 176.050781 150.125 174.695312 150.1875 C 173.339844 150.253906 172.183594 149.195312 172.121094 147.832031 C 172.011719 145.496094 174.214844 139.925781 174.214844 139.925781 Z M 174.214844 139.925781 "/><path style=" stroke:none;fill-rule:evenodd;fill:#bd6f29;fill-opacity:1;" d="M 174.445312 140.210938 C 174.445312 140.210938 171.730469 134.878906 171.621094 132.539062 C 171.558594 131.175781 172.605469 130.015625 173.960938 129.949219 C 175.320312 129.886719 176.472656 130.941406 176.535156 132.308594 C 176.644531 134.644531 174.445312 140.210938 174.445312 140.210938 Z M 174.445312 140.210938 "/><g clip-rule="nonzero" clip-path="url(#57db4d581b)"><path style=" stroke:none;fill-rule:evenodd;fill:#bd6f29;fill-opacity:1;" d="M 174.476562 140.179688 C 174.476562 140.179688 169.070312 137.660156 166.746094 137.644531 C 165.390625 137.632812 164.277344 138.734375 164.269531 140.101562 C 164.257812 141.46875 165.351562 142.585938 166.710938 142.597656 C 169.035156 142.613281 174.476562 140.179688 174.476562 140.179688 Z M 174.476562 140.179688 "/></g><path style=" stroke:none;fill-rule:nonzero;fill:#bd6f29;fill-opacity:1;" d="M 173.613281 140.953125 C 173.492188 140.839844 173.398438 140.703125 173.332031 140.550781 C 173.269531 140.398438 173.234375 140.238281 173.230469 140.074219 C 173.226562 139.90625 173.253906 139.746094 173.316406 139.589844 C 173.375 139.4375 173.460938 139.296875 173.578125 139.179688 C 173.691406 139.058594 173.824219 138.964844 173.976562 138.898438 C 174.128906 138.832031 174.285156 138.796875 174.453125 138.792969 C 174.617188 138.789062 174.777344 138.820312 174.929688 138.878906 C 175.085938 138.941406 175.222656 139.027344 175.339844 139.144531 C 175.460938 139.257812 175.554688 139.390625 175.621094 139.546875 C 175.6875 139.699219 175.71875 139.855469 175.722656 140.023438 C 175.726562 140.191406 175.699219 140.351562 175.636719 140.503906 C 175.578125 140.660156 175.492188 140.796875 175.375 140.917969 C 175.261719 141.039062 175.128906 141.132812 174.976562 141.199219 C 174.824219 141.265625 174.667969 141.300781 174.5 141.304688 C 174.335938 141.308594 174.175781 141.277344 174.023438 141.21875 C 173.867188 141.15625 173.730469 141.070312 173.613281 140.953125 Z M 173.613281 140.953125 "/><path style=" stroke:none;fill-rule:evenodd;fill:#bd6f29;fill-opacity:1;" d="M 174.183594 182.0625 C 174.183594 182.0625 179.585938 184.578125 181.910156 184.597656 C 183.265625 184.605469 184.378906 183.507812 184.390625 182.140625 C 184.398438 180.773438 183.304688 179.65625 181.945312 179.644531 C 179.625 179.625 174.183594 182.0625 174.183594 182.0625 Z M 174.183594 182.0625 "/><path style=" stroke:none;fill-rule:evenodd;fill:#bd6f29;fill-opacity:1;" d="M 174.214844 182.027344 C 174.214844 182.027344 176.925781 187.363281 177.035156 189.699219 C 177.101562 191.0625 176.050781 192.226562 174.695312 192.289062 C 173.339844 192.355469 172.183594 191.296875 172.121094 189.933594 C 172.011719 187.597656 174.214844 182.027344 174.214844 182.027344 Z M 174.214844 182.027344 "/><path style=" stroke:none;fill-rule:evenodd;fill:#bd6f29;fill-opacity:1;" d="M 174.445312 182.3125 C 174.445312 182.3125 171.730469 176.980469 171.621094 174.640625 C 171.558594 173.277344 172.605469 172.117188 173.960938 172.050781 C 175.320312 171.988281 176.472656 173.042969 176.535156 174.410156 C 176.644531 176.746094 174.445312 182.3125 174.445312 182.3125 Z M 174.445312 182.3125 "/><g clip-rule="nonzero" clip-path="url(#affbb1241a)"><path style=" stroke:none;fill-rule:evenodd;fill:#bd6f29;fill-opacity:1;" d="M 174.476562 182.28125 C 174.476562 182.28125 169.070312 179.761719 166.746094 179.746094 C 165.390625 179.734375 164.277344 180.835938 164.269531 182.203125 C 164.257812 183.570312 165.351562 184.6875 166.710938 184.699219 C 169.035156 184.714844 174.476562 182.28125 174.476562 182.28125 Z M 174.476562 182.28125 "/></g><path style=" stroke:none;fill-rule:nonzero;fill:#bd6f29;fill-opacity:1;" d="M 173.613281 183.054688 C 173.492188 182.9375 173.398438 182.804688 173.332031 182.652344 C 173.269531 182.5 173.234375 182.339844 173.230469 182.175781 C 173.226562 182.007812 173.253906 181.847656 173.316406 181.691406 C 173.375 181.535156 173.460938 181.398438 173.578125 181.28125 C 173.691406 181.160156 173.824219 181.066406 173.976562 181 C 174.128906 180.933594 174.285156 180.898438 174.453125 180.894531 C 174.617188 180.890625 174.777344 180.917969 174.929688 180.980469 C 175.085938 181.042969 175.222656 181.128906 175.339844 181.246094 C 175.460938 181.359375 175.554688 181.492188 175.621094 181.644531 C 175.6875 181.800781 175.71875 181.957031 175.722656 182.125 C 175.726562 182.292969 175.699219 182.453125 175.636719 182.605469 C 175.578125 182.761719 175.492188 182.898438 175.375 183.019531 C 175.261719 183.140625 175.128906 183.234375 174.976562 183.300781 C 174.824219 183.367188 174.667969 183.402344 174.5 183.40625 C 174.335938 183.40625 174.175781 183.378906 174.023438 183.320312 C 173.867188 183.257812 173.730469 183.171875 173.613281 183.054688 Z M 173.613281 183.054688 "/><path style=" stroke:none;fill-rule:evenodd;fill:#ffffff;fill-opacity:1;" d="M 201.351562 76.894531 C 201.351562 76.894531 206.980469 74.941406 208.667969 73.332031 C 209.652344 72.394531 209.695312 70.824219 208.761719 69.832031 C 207.828125 68.839844 206.269531 68.796875 205.285156 69.734375 C 203.597656 71.34375 201.351562 76.894531 201.351562 76.894531 Z M 201.351562 76.894531 "/><path style=" stroke:none;fill-rule:evenodd;fill:#ffffff;fill-opacity:1;" d="M 201.351562 76.847656 C 201.351562 76.847656 206.980469 78.800781 208.667969 80.410156 C 209.652344 81.351562 209.695312 82.917969 208.761719 83.910156 C 207.828125 84.902344 206.269531 84.945312 205.285156 84.007812 C 203.597656 82.398438 201.351562 76.847656 201.351562 76.847656 Z M 201.351562 76.847656 "/><path style=" stroke:none;fill-rule:evenodd;fill:#ffffff;fill-opacity:1;" d="M 201.710938 76.894531 C 201.710938 76.894531 196.082031 74.941406 194.394531 73.332031 C 193.410156 72.394531 193.367188 70.824219 194.300781 69.832031 C 195.234375 68.839844 196.792969 68.796875 197.777344 69.734375 C 199.464844 71.34375 201.710938 76.894531 201.710938 76.894531 Z M 201.710938 76.894531 "/><path style=" stroke:none;fill-rule:evenodd;fill:#ffffff;fill-opacity:1;" d="M 201.710938 76.847656 C 201.710938 76.847656 196.082031 78.800781 194.394531 80.410156 C 193.410156 81.351562 193.367188 82.917969 194.300781 83.910156 C 195.234375 84.902344 196.792969 84.945312 197.777344 84.007812 C 199.464844 82.398438 201.710938 76.847656 201.710938 76.847656 Z M 201.710938 76.847656 "/><path style=" stroke:none;fill-rule:nonzero;fill:#ffffff;fill-opacity:1;" d="M 201.625 78.007812 C 201.457031 78.007812 201.300781 77.976562 201.148438 77.914062 C 200.992188 77.847656 200.859375 77.757812 200.742188 77.640625 C 200.625 77.523438 200.535156 77.386719 200.472656 77.234375 C 200.40625 77.078125 200.375 76.917969 200.375 76.753906 C 200.375 76.585938 200.40625 76.425781 200.472656 76.273438 C 200.535156 76.117188 200.625 75.984375 200.742188 75.867188 C 200.859375 75.746094 200.992188 75.65625 201.148438 75.59375 C 201.300781 75.53125 201.457031 75.496094 201.625 75.496094 C 201.789062 75.496094 201.949219 75.53125 202.101562 75.59375 C 202.253906 75.65625 202.390625 75.746094 202.507812 75.867188 C 202.621094 75.984375 202.714844 76.117188 202.777344 76.273438 C 202.839844 76.425781 202.871094 76.585938 202.871094 76.753906 C 202.871094 76.917969 202.839844 77.078125 202.777344 77.234375 C 202.714844 77.386719 202.621094 77.523438 202.507812 77.640625 C 202.390625 77.757812 202.253906 77.847656 202.101562 77.914062 C 201.949219 77.976562 201.789062 78.007812 201.625 78.007812 Z M 201.625 78.007812 "/><path style=" stroke:none;fill-rule:evenodd;fill:#ffffff;fill-opacity:1;" d="M 201.351562 245.851562 C 201.351562 245.851562 206.980469 243.894531 208.667969 242.289062 C 209.652344 241.347656 209.695312 239.78125 208.761719 238.785156 C 207.828125 237.792969 206.269531 237.75 205.285156 238.691406 C 203.597656 240.300781 201.351562 245.851562 201.351562 245.851562 Z M 201.351562 245.851562 "/><path style=" stroke:none;fill-rule:evenodd;fill:#ffffff;fill-opacity:1;" d="M 201.351562 245.804688 C 201.351562 245.804688 206.980469 247.757812 208.667969 249.367188 C 209.652344 250.304688 209.695312 251.875 208.761719 252.867188 C 207.828125 253.859375 206.269531 253.902344 205.285156 252.960938 C 203.597656 251.355469 201.351562 245.804688 201.351562 245.804688 Z M 201.351562 245.804688 "/><path style=" stroke:none;fill-rule:evenodd;fill:#ffffff;fill-opacity:1;" d="M 201.710938 245.851562 C 201.710938 245.851562 196.082031 243.894531 194.394531 242.289062 C 193.410156 241.347656 193.367188 239.78125 194.300781 238.785156 C 195.234375 237.792969 196.792969 237.75 197.777344 238.691406 C 199.464844 240.300781 201.710938 245.851562 201.710938 245.851562 Z M 201.710938 245.851562 "/><path style=" stroke:none;fill-rule:evenodd;fill:#ffffff;fill-opacity:1;" d="M 201.710938 245.804688 C 201.710938 245.804688 196.082031 247.757812 194.394531 249.367188 C 193.410156 250.304688 193.367188 251.875 194.300781 252.867188 C 195.234375 253.859375 196.792969 253.902344 197.777344 252.960938 C 199.464844 251.355469 201.710938 245.804688 201.710938 245.804688 Z M 201.710938 245.804688 "/><path style=" stroke:none;fill-rule:nonzero;fill:#ffffff;fill-opacity:1;" d="M 201.625 246.964844 C 201.457031 246.964844 201.300781 246.933594 201.148438 246.867188 C 200.992188 246.804688 200.859375 246.714844 200.742188 246.597656 C 200.625 246.476562 200.535156 246.34375 200.472656 246.1875 C 200.40625 246.035156 200.375 245.875 200.375 245.707031 C 200.375 245.542969 200.40625 245.382812 200.472656 245.226562 C 200.535156 245.074219 200.625 244.9375 200.742188 244.820312 C 200.859375 244.703125 200.992188 244.613281 201.148438 244.546875 C 201.300781 244.484375 201.457031 244.453125 201.625 244.453125 C 201.789062 244.453125 201.949219 244.484375 202.101562 244.546875 C 202.253906 244.613281 202.390625 244.703125 202.507812 244.820312 C 202.621094 244.9375 202.714844 245.074219 202.777344 245.226562 C 202.839844 245.382812 202.871094 245.542969 202.871094 245.707031 C 202.871094 245.875 202.839844 246.035156 202.777344 246.1875 C 202.714844 246.34375 202.621094 246.476562 202.507812 246.597656 C 202.390625 246.714844 202.253906 246.804688 202.101562 246.867188 C 201.949219 246.933594 201.789062 246.964844 201.625 246.964844 Z M 201.625 246.964844 "/><path style=" stroke:none;fill-rule:evenodd;fill:#ffffff;fill-opacity:1;" d="M 201.351562 119.085938 C 201.351562 119.085938 206.980469 117.132812 208.667969 115.527344 C 209.652344 114.585938 209.695312 113.015625 208.761719 112.023438 C 207.828125 111.03125 206.269531 110.988281 205.285156 111.929688 C 203.597656 113.535156 201.351562 119.085938 201.351562 119.085938 Z M 201.351562 119.085938 "/><path style=" stroke:none;fill-rule:evenodd;fill:#ffffff;fill-opacity:1;" d="M 201.351562 119.042969 C 201.351562 119.042969 206.980469 120.996094 208.667969 122.601562 C 209.652344 123.542969 209.695312 125.113281 208.761719 126.105469 C 207.828125 127.097656 206.269531 127.140625 205.285156 126.199219 C 203.597656 124.59375 201.351562 119.042969 201.351562 119.042969 Z M 201.351562 119.042969 "/><path style=" stroke:none;fill-rule:evenodd;fill:#ffffff;fill-opacity:1;" d="M 201.710938 119.085938 C 201.710938 119.085938 196.082031 117.132812 194.394531 115.527344 C 193.410156 114.585938 193.367188 113.015625 194.300781 112.023438 C 195.234375 111.03125 196.792969 110.988281 197.777344 111.929688 C 199.464844 113.535156 201.710938 119.085938 201.710938 119.085938 Z M 201.710938 119.085938 "/><path style=" stroke:none;fill-rule:evenodd;fill:#ffffff;fill-opacity:1;" d="M 201.710938 119.042969 C 201.710938 119.042969 196.082031 120.996094 194.394531 122.601562 C 193.410156 123.542969 193.367188 125.113281 194.300781 126.105469 C 195.234375 127.097656 196.792969 127.140625 197.777344 126.199219 C 199.464844 124.59375 201.710938 119.042969 201.710938 119.042969 Z M 201.710938 119.042969 "/><path style=" stroke:none;fill-rule:nonzero;fill:#ffffff;fill-opacity:1;" d="M 201.625 120.203125 C 201.457031 120.203125 201.300781 120.167969 201.148438 120.105469 C 200.992188 120.042969 200.859375 119.953125 200.742188 119.832031 C 200.625 119.714844 200.535156 119.582031 200.472656 119.425781 C 200.40625 119.273438 200.375 119.113281 200.375 118.945312 C 200.375 118.78125 200.40625 118.621094 200.472656 118.464844 C 200.535156 118.3125 200.625 118.175781 200.742188 118.058594 C 200.859375 117.941406 200.992188 117.851562 201.148438 117.785156 C 201.300781 117.722656 201.457031 117.691406 201.625 117.691406 C 201.789062 117.691406 201.949219 117.722656 202.101562 117.785156 C 202.253906 117.851562 202.390625 117.941406 202.507812 118.058594 C 202.621094 118.175781 202.714844 118.3125 202.777344 118.464844 C 202.839844 118.621094 202.871094 118.78125 202.871094 118.945312 C 202.871094 119.113281 202.839844 119.273438 202.777344 119.425781 C 202.714844 119.582031 202.621094 119.714844 202.507812 119.832031 C 202.390625 119.953125 202.253906 120.042969 202.101562 120.105469 C 201.949219 120.167969 201.789062 120.203125 201.625 120.203125 Z M 201.625 120.203125 "/><path style=" stroke:none;fill-rule:evenodd;fill:#ffffff;fill-opacity:1;" d="M 201.351562 161.28125 C 201.351562 161.28125 206.980469 159.328125 208.667969 157.71875 C 209.652344 156.777344 209.695312 155.210938 208.761719 154.21875 C 207.828125 153.226562 206.269531 153.183594 205.285156 154.121094 C 203.597656 155.730469 201.351562 161.28125 201.351562 161.28125 Z M 201.351562 161.28125 "/><path style=" stroke:none;fill-rule:evenodd;fill:#ffffff;fill-opacity:1;" d="M 201.351562 161.234375 C 201.351562 161.234375 206.980469 163.1875 208.667969 164.796875 C 209.652344 165.734375 209.695312 167.304688 208.761719 168.296875 C 207.828125 169.289062 206.269531 169.332031 205.285156 168.394531 C 203.597656 166.785156 201.351562 161.234375 201.351562 161.234375 Z M 201.351562 161.234375 "/><path style=" stroke:none;fill-rule:evenodd;fill:#ffffff;fill-opacity:1;" d="M 201.710938 161.28125 C 201.710938 161.28125 196.082031 159.328125 194.394531 157.71875 C 193.410156 156.777344 193.367188 155.210938 194.300781 154.21875 C 195.234375 153.226562 196.792969 153.183594 197.777344 154.121094 C 199.464844 155.730469 201.710938 161.28125 201.710938 161.28125 Z M 201.710938 161.28125 "/><path style=" stroke:none;fill-rule:evenodd;fill:#ffffff;fill-opacity:1;" d="M 201.710938 161.234375 C 201.710938 161.234375 196.082031 163.1875 194.394531 164.796875 C 193.410156 165.734375 193.367188 167.304688 194.300781 168.296875 C 195.234375 169.289062 196.792969 169.332031 197.777344 168.394531 C 199.464844 166.785156 201.710938 161.234375 201.710938 161.234375 Z M 201.710938 161.234375 "/><path style=" stroke:none;fill-rule:nonzero;fill:#ffffff;fill-opacity:1;" d="M 201.625 162.394531 C 201.457031 162.394531 201.300781 162.363281 201.148438 162.300781 C 200.992188 162.234375 200.859375 162.144531 200.742188 162.027344 C 200.625 161.910156 200.535156 161.773438 200.472656 161.621094 C 200.40625 161.464844 200.375 161.304688 200.375 161.140625 C 200.375 160.972656 200.40625 160.8125 200.472656 160.660156 C 200.535156 160.503906 200.625 160.367188 200.742188 160.25 C 200.859375 160.132812 200.992188 160.042969 201.148438 159.980469 C 201.300781 159.914062 201.457031 159.882812 201.625 159.882812 C 201.789062 159.882812 201.949219 159.914062 202.101562 159.980469 C 202.253906 160.042969 202.390625 160.132812 202.507812 160.25 C 202.621094 160.367188 202.714844 160.503906 202.777344 160.660156 C 202.839844 160.8125 202.871094 160.972656 202.871094 161.140625 C 202.871094 161.304688 202.839844 161.464844 202.777344 161.621094 C 202.714844 161.773438 202.621094 161.910156 202.507812 162.027344 C 202.390625 162.144531 202.253906 162.234375 202.101562 162.300781 C 201.949219 162.363281 201.789062 162.394531 201.625 162.394531 Z M 201.625 162.394531 "/><path style=" stroke:none;fill-rule:evenodd;fill:#ffffff;fill-opacity:1;" d="M 201.351562 34.703125 C 201.351562 34.703125 206.980469 32.75 208.667969 31.140625 C 209.652344 30.199219 209.695312 28.632812 208.761719 27.640625 C 207.828125 26.648438 206.269531 26.605469 205.285156 27.542969 C 203.597656 29.152344 201.351562 34.703125 201.351562 34.703125 Z M 201.351562 34.703125 "/><path style=" stroke:none;fill-rule:evenodd;fill:#ffffff;fill-opacity:1;" d="M 201.351562 34.65625 C 201.351562 34.65625 206.980469 36.609375 208.667969 38.21875 C 209.652344 39.15625 209.695312 40.726562 208.761719 41.71875 C 207.828125 42.710938 206.269531 42.753906 205.285156 41.816406 C 203.597656 40.207031 201.351562 34.65625 201.351562 34.65625 Z M 201.351562 34.65625 "/><path style=" stroke:none;fill-rule:evenodd;fill:#ffffff;fill-opacity:1;" d="M 201.710938 34.703125 C 201.710938 34.703125 196.082031 32.75 194.394531 31.140625 C 193.410156 30.199219 193.367188 28.632812 194.300781 27.640625 C 195.234375 26.648438 196.792969 26.605469 197.777344 27.542969 C 199.464844 29.152344 201.710938 34.703125 201.710938 34.703125 Z M 201.710938 34.703125 "/><path style=" stroke:none;fill-rule:evenodd;fill:#ffffff;fill-opacity:1;" d="M 201.710938 34.65625 C 201.710938 34.65625 196.082031 36.609375 194.394531 38.21875 C 193.410156 39.15625 193.367188 40.726562 194.300781 41.71875 C 195.234375 42.710938 196.792969 42.753906 197.777344 41.816406 C 199.464844 40.207031 201.710938 34.65625 201.710938 34.65625 Z M 201.710938 34.65625 "/><path style=" stroke:none;fill-rule:nonzero;fill:#ffffff;fill-opacity:1;" d="M 201.625 35.816406 C 201.457031 35.816406 201.300781 35.785156 201.148438 35.71875 C 200.992188 35.65625 200.859375 35.566406 200.742188 35.449219 C 200.625 35.332031 200.535156 35.195312 200.472656 35.039062 C 200.40625 34.886719 200.375 34.726562 200.375 34.5625 C 200.375 34.394531 200.40625 34.234375 200.472656 34.082031 C 200.535156 33.925781 200.625 33.789062 200.742188 33.671875 C 200.859375 33.554688 200.992188 33.464844 201.148438 33.402344 C 201.300781 33.335938 201.457031 33.304688 201.625 33.304688 C 201.789062 33.304688 201.949219 33.335938 202.101562 33.402344 C 202.253906 33.464844 202.390625 33.554688 202.507812 33.671875 C 202.621094 33.789062 202.714844 33.925781 202.777344 34.082031 C 202.839844 34.234375 202.871094 34.394531 202.871094 34.5625 C 202.871094 34.726562 202.839844 34.886719 202.777344 35.039062 C 202.714844 35.195312 202.621094 35.332031 202.507812 35.449219 C 202.390625 35.566406 202.253906 35.65625 202.101562 35.71875 C 201.949219 35.785156 201.789062 35.816406 201.625 35.816406 Z M 201.625 35.816406 "/><g clip-rule="nonzero" clip-path="url(#99e2885ed5)"><path style=" stroke:none;fill-rule:evenodd;fill:#bd6f29;fill-opacity:1;" d="M 213.761719 317.902344 C 218.910156 319.394531 222.714844 324.414062 222.714844 330.210938 C 222.714844 336.011719 218.910156 341.03125 213.761719 342.523438 C 212.277344 347.703125 207.292969 351.535156 201.53125 351.535156 C 195.769531 351.535156 190.785156 347.703125 189.300781 342.523438 C 184.152344 341.03125 180.347656 336.011719 180.347656 330.210938 C 180.347656 324.414062 184.152344 319.394531 189.300781 317.902344 C 190.785156 312.722656 195.769531 308.890625 201.53125 308.890625 C 207.292969 308.890625 212.277344 312.722656 213.761719 317.902344 Z M 213.761719 317.902344 "/></g><path style=" stroke:none;fill-rule:evenodd;fill:#bd6f29;fill-opacity:1;" d="M 174.183594 308.914062 C 174.183594 308.914062 179.585938 311.433594 181.910156 311.449219 C 183.265625 311.460938 184.378906 310.359375 184.390625 308.992188 C 184.398438 307.625 183.304688 306.507812 181.945312 306.496094 C 179.625 306.480469 174.183594 308.914062 174.183594 308.914062 Z M 174.183594 308.914062 "/><path style=" stroke:none;fill-rule:evenodd;fill:#bd6f29;fill-opacity:1;" d="M 174.214844 308.882812 C 174.214844 308.882812 176.925781 314.214844 177.035156 316.550781 C 177.101562 317.917969 176.050781 319.078125 174.695312 319.144531 C 173.339844 319.207031 172.183594 318.152344 172.121094 316.785156 C 172.011719 314.449219 174.214844 308.882812 174.214844 308.882812 Z M 174.214844 308.882812 "/><path style=" stroke:none;fill-rule:evenodd;fill:#bd6f29;fill-opacity:1;" d="M 174.445312 309.167969 C 174.445312 309.167969 171.730469 303.832031 171.621094 301.496094 C 171.558594 300.128906 172.605469 298.96875 173.960938 298.90625 C 175.320312 298.839844 176.472656 299.898438 176.535156 301.261719 C 176.644531 303.597656 174.445312 309.167969 174.445312 309.167969 Z M 174.445312 309.167969 "/><g clip-rule="nonzero" clip-path="url(#b3a9db1c0f)"><path style=" stroke:none;fill-rule:evenodd;fill:#bd6f29;fill-opacity:1;" d="M 174.476562 309.132812 C 174.476562 309.132812 169.070312 306.617188 166.746094 306.597656 C 165.390625 306.585938 164.277344 307.6875 164.269531 309.054688 C 164.257812 310.421875 165.351562 311.539062 166.710938 311.550781 C 169.035156 311.570312 174.476562 309.132812 174.476562 309.132812 Z M 174.476562 309.132812 "/></g><path style=" stroke:none;fill-rule:nonzero;fill:#bd6f29;fill-opacity:1;" d="M 173.613281 309.90625 C 173.492188 309.792969 173.398438 309.660156 173.332031 309.507812 C 173.269531 309.355469 173.234375 309.195312 173.230469 309.027344 C 173.226562 308.863281 173.253906 308.699219 173.316406 308.546875 C 173.375 308.390625 173.460938 308.253906 173.578125 308.132812 C 173.691406 308.011719 173.824219 307.917969 173.976562 307.851562 C 174.128906 307.785156 174.285156 307.75 174.453125 307.746094 C 174.617188 307.746094 174.777344 307.773438 174.929688 307.832031 C 175.085938 307.894531 175.222656 307.984375 175.339844 308.097656 C 175.460938 308.214844 175.554688 308.347656 175.621094 308.5 C 175.6875 308.652344 175.71875 308.8125 175.722656 308.976562 C 175.726562 309.144531 175.699219 309.304688 175.636719 309.460938 C 175.578125 309.617188 175.492188 309.753906 175.375 309.875 C 175.261719 309.992188 175.128906 310.085938 174.976562 310.152344 C 174.824219 310.21875 174.667969 310.253906 174.5 310.257812 C 174.335938 310.261719 174.175781 310.234375 174.023438 310.171875 C 173.867188 310.113281 173.730469 310.023438 173.613281 309.90625 Z M 173.613281 309.90625 "/><path style=" stroke:none;fill-rule:evenodd;fill:#ffffff;fill-opacity:1;" d="M 201.351562 288.042969 C 201.351562 288.042969 206.980469 286.089844 208.667969 284.480469 C 209.652344 283.542969 209.695312 281.972656 208.761719 280.980469 C 207.828125 279.988281 206.269531 279.945312 205.285156 280.882812 C 203.597656 282.492188 201.351562 288.042969 201.351562 288.042969 Z M 201.351562 288.042969 "/><path style=" stroke:none;fill-rule:evenodd;fill:#ffffff;fill-opacity:1;" d="M 201.351562 287.996094 C 201.351562 287.996094 206.980469 289.949219 208.667969 291.558594 C 209.652344 292.496094 209.695312 294.066406 208.761719 295.058594 C 207.828125 296.050781 206.269531 296.09375 205.285156 295.15625 C 203.597656 293.546875 201.351562 287.996094 201.351562 287.996094 Z M 201.351562 287.996094 "/><path style=" stroke:none;fill-rule:evenodd;fill:#ffffff;fill-opacity:1;" d="M 201.710938 288.042969 C 201.710938 288.042969 196.082031 286.089844 194.394531 284.480469 C 193.410156 283.542969 193.367188 281.972656 194.300781 280.980469 C 195.234375 279.988281 196.792969 279.945312 197.777344 280.882812 C 199.464844 282.492188 201.710938 288.042969 201.710938 288.042969 Z M 201.710938 288.042969 "/><path style=" stroke:none;fill-rule:evenodd;fill:#ffffff;fill-opacity:1;" d="M 201.710938 287.996094 C 201.710938 287.996094 196.082031 289.949219 194.394531 291.558594 C 193.410156 292.496094 193.367188 294.066406 194.300781 295.058594 C 195.234375 296.050781 196.792969 296.09375 197.777344 295.15625 C 199.464844 293.546875 201.710938 287.996094 201.710938 287.996094 Z M 201.710938 287.996094 "/><path style=" stroke:none;fill-rule:nonzero;fill:#ffffff;fill-opacity:1;" d="M 201.625 289.15625 C 201.457031 289.15625 201.300781 289.125 201.148438 289.0625 C 200.992188 288.996094 200.859375 288.90625 200.742188 288.789062 C 200.625 288.671875 200.535156 288.535156 200.472656 288.382812 C 200.40625 288.226562 200.375 288.066406 200.375 287.902344 C 200.375 287.734375 200.40625 287.574219 200.472656 287.421875 C 200.535156 287.265625 200.625 287.128906 200.742188 287.011719 C 200.859375 286.894531 200.992188 286.804688 201.148438 286.742188 C 201.300781 286.675781 201.457031 286.644531 201.625 286.644531 C 201.789062 286.644531 201.949219 286.675781 202.101562 286.742188 C 202.253906 286.804688 202.390625 286.894531 202.507812 287.011719 C 202.621094 287.128906 202.714844 287.265625 202.777344 287.421875 C 202.839844 287.574219 202.871094 287.734375 202.871094 287.902344 C 202.871094 288.066406 202.839844 288.226562 202.777344 288.382812 C 202.714844 288.535156 202.621094 288.671875 202.507812 288.789062 C 202.390625 288.90625 202.253906 288.996094 202.101562 289.0625 C 201.949219 289.125 201.789062 289.15625 201.625 289.15625 Z M 201.625 289.15625 "/><path style=" stroke:none;fill-rule:evenodd;fill:#ffffff;fill-opacity:1;" d="M 201.351562 330.234375 C 201.351562 330.234375 206.980469 328.28125 208.667969 326.671875 C 209.652344 325.734375 209.695312 324.164062 208.761719 323.171875 C 207.828125 322.179688 206.269531 322.136719 205.285156 323.078125 C 203.597656 324.683594 201.351562 330.234375 201.351562 330.234375 Z M 201.351562 330.234375 "/><path style=" stroke:none;fill-rule:evenodd;fill:#ffffff;fill-opacity:1;" d="M 201.351562 330.191406 C 201.351562 330.191406 206.980469 332.144531 208.667969 333.75 C 209.652344 334.691406 209.695312 336.257812 208.761719 337.253906 C 207.828125 338.246094 206.269531 338.289062 205.285156 337.347656 C 203.597656 335.738281 201.351562 330.191406 201.351562 330.191406 Z M 201.351562 330.191406 "/><path style=" stroke:none;fill-rule:evenodd;fill:#ffffff;fill-opacity:1;" d="M 201.710938 330.234375 C 201.710938 330.234375 196.082031 328.28125 194.394531 326.671875 C 193.410156 325.734375 193.367188 324.164062 194.300781 323.171875 C 195.234375 322.179688 196.792969 322.136719 197.777344 323.078125 C 199.464844 324.683594 201.710938 330.234375 201.710938 330.234375 Z M 201.710938 330.234375 "/><path style=" stroke:none;fill-rule:evenodd;fill:#ffffff;fill-opacity:1;" d="M 201.710938 330.191406 C 201.710938 330.191406 196.082031 332.144531 194.394531 333.75 C 193.410156 334.691406 193.367188 336.257812 194.300781 337.253906 C 195.234375 338.246094 196.792969 338.289062 197.777344 337.347656 C 199.464844 335.738281 201.710938 330.191406 201.710938 330.191406 Z M 201.710938 330.191406 "/><path style=" stroke:none;fill-rule:nonzero;fill:#ffffff;fill-opacity:1;" d="M 201.625 331.347656 C 201.457031 331.347656 201.300781 331.316406 201.148438 331.253906 C 200.992188 331.191406 200.859375 331.097656 200.742188 330.980469 C 200.625 330.863281 200.535156 330.726562 200.472656 330.574219 C 200.40625 330.421875 200.375 330.261719 200.375 330.09375 C 200.375 329.925781 200.40625 329.765625 200.472656 329.613281 C 200.535156 329.460938 200.625 329.324219 200.742188 329.207031 C 200.859375 329.089844 200.992188 328.996094 201.148438 328.933594 C 201.300781 328.871094 201.457031 328.839844 201.625 328.839844 C 201.789062 328.839844 201.949219 328.871094 202.101562 328.933594 C 202.253906 328.996094 202.390625 329.089844 202.507812 329.207031 C 202.621094 329.324219 202.714844 329.460938 202.777344 329.613281 C 202.839844 329.765625 202.871094 329.925781 202.871094 330.09375 C 202.871094 330.261719 202.839844 330.421875 202.777344 330.574219 C 202.714844 330.726562 202.621094 330.863281 202.507812 330.980469 C 202.390625 331.097656 202.253906 331.191406 202.101562 331.253906 C 201.949219 331.316406 201.789062 331.347656 201.625 331.347656 Z M 201.625 331.347656 "/><path style=" stroke:none;fill-rule:evenodd;fill:#bd6f29;fill-opacity:1;" d="M 174.183594 351.015625 C 174.183594 351.015625 179.585938 353.535156 181.910156 353.550781 C 183.265625 353.5625 184.378906 352.460938 184.390625 351.09375 C 184.398438 349.726562 183.304688 348.609375 181.945312 348.597656 C 179.625 348.582031 174.183594 351.015625 174.183594 351.015625 Z M 174.183594 351.015625 "/><g clip-rule="nonzero" clip-path="url(#66efacb401)"><path style=" stroke:none;fill-rule:evenodd;fill:#bd6f29;fill-opacity:1;" d="M 174.214844 350.980469 C 174.214844 350.980469 176.925781 356.316406 177.035156 358.652344 C 177.101562 360.019531 176.050781 361.179688 174.695312 361.242188 C 173.339844 361.308594 172.183594 360.253906 172.121094 358.886719 C 172.011719 356.550781 174.214844 350.980469 174.214844 350.980469 Z M 174.214844 350.980469 "/></g><path style=" stroke:none;fill-rule:evenodd;fill:#bd6f29;fill-opacity:1;" d="M 174.445312 351.269531 C 174.445312 351.269531 171.730469 345.933594 171.621094 343.597656 C 171.558594 342.230469 172.605469 341.070312 173.960938 341.007812 C 175.320312 340.941406 176.472656 342 176.535156 343.363281 C 176.644531 345.699219 174.445312 351.269531 174.445312 351.269531 Z M 174.445312 351.269531 "/><g clip-rule="nonzero" clip-path="url(#28545c6d31)"><path style=" stroke:none;fill-rule:evenodd;fill:#bd6f29;fill-opacity:1;" d="M 174.476562 351.234375 C 174.476562 351.234375 169.070312 348.714844 166.746094 348.699219 C 165.390625 348.6875 164.277344 349.789062 164.269531 351.15625 C 164.257812 352.523438 165.351562 353.640625 166.710938 353.652344 C 169.035156 353.667969 174.476562 351.234375 174.476562 351.234375 Z M 174.476562 351.234375 "/></g><path style=" stroke:none;fill-rule:nonzero;fill:#bd6f29;fill-opacity:1;" d="M 173.613281 352.007812 C 173.492188 351.894531 173.398438 351.757812 173.332031 351.605469 C 173.269531 351.453125 173.234375 351.296875 173.230469 351.128906 C 173.226562 350.960938 173.253906 350.800781 173.316406 350.648438 C 173.375 350.492188 173.460938 350.355469 173.578125 350.234375 C 173.691406 350.113281 173.824219 350.019531 173.976562 349.953125 C 174.128906 349.886719 174.285156 349.851562 174.453125 349.847656 C 174.617188 349.84375 174.777344 349.875 174.929688 349.933594 C 175.085938 349.996094 175.222656 350.082031 175.339844 350.199219 C 175.460938 350.3125 175.554688 350.449219 175.621094 350.601562 C 175.6875 350.753906 175.71875 350.914062 175.722656 351.078125 C 175.726562 351.246094 175.699219 351.40625 175.636719 351.5625 C 175.578125 351.714844 175.492188 351.855469 175.375 351.972656 C 175.261719 352.09375 175.128906 352.1875 174.976562 352.253906 C 174.824219 352.320312 174.667969 352.355469 174.5 352.359375 C 174.335938 352.363281 174.175781 352.332031 174.023438 352.273438 C 173.867188 352.210938 173.730469 352.125 173.613281 352.007812 Z M 173.613281 352.007812 "/></g></svg>