<svg xmlns="http://www.w3.org/2000/svg" xmlns:xlink="http://www.w3.org/1999/xlink" width="500" zoomAndPan="magnify" viewBox="0 0 375 374.999991" height="500" preserveAspectRatio="xMidYMid meet" version="1.2"><g id="e63cf3c708"><path style=" stroke:none;fill-rule:nonzero;fill:#d6b368;fill-opacity:1;" d="M 50.609375 241.128906 C 50.609375 241.128906 51.238281 261.496094 78.042969 258.695312 C 93.953125 257.042969 139.011719 237.816406 179.050781 186.195312 C 219.089844 134.574219 242.816406 118.71875 288.902344 126.933594 C 335.046875 135.148438 340.519531 221.394531 277.890625 221.902344 C 277.890625 221.902344 294.375 208.558594 286.105469 191.898438 C 277.890625 175.242188 241.613281 178.496094 210.875 201.023438 C 180.132812 223.554688 133.480469 266.90625 83.515625 270.210938 C 37.488281 273.289062 50.609375 241.125 50.609375 241.125 Z M 182.363281 231.777344 C 146.660156 263.546875 96.625 288.421875 52.445312 272.1875 C 116.382812 300.328125 127.492188 276.84375 162.628906 270.453125 C 197.761719 264.0625 230.160156 291.613281 238.371094 274.617188 C 246.644531 257.621094 233.464844 252.65625 234.550781 243.871094 C 235.691406 235.082031 258.222656 230.410156 254.914062 216.433594 C 250.464844 197.664062 220.863281 197.664062 182.363281 231.78125 Z M 81.921875 246.09375 C 81.921875 246.09375 107.355469 231.71875 112.664062 203.882812 C 117.96875 176.046875 88.480469 162.132812 69.828125 174.167969 C 51.175781 186.257812 48.441406 220.3125 75.875 223.054688 C 75.875 223.054688 66.523438 209.136719 72.054688 197.671875 C 77.527344 186.265625 98.863281 186.890625 100.285156 203.890625 C 101.710938 220.835938 81.921875 246.101562 81.921875 246.101562 Z M 106.105469 238.394531 C 106.105469 238.394531 147.855469 222.367188 152.761719 182.09375 C 157.671875 141.824219 126.980469 127.503906 111.011719 136.292969 C 95.097656 145.078125 97.839844 162.644531 112.664062 172 C 130.515625 183.234375 135.761719 206.394531 106.105469 238.394531 Z M 275.730469 90.488281 C 275.273438 94.882812 235.117188 87.125 209.851562 124.886719 C 184.585938 162.644531 167.015625 192.363281 152.761719 203.882812 C 152.761719 203.882812 164.28125 180.214844 162.113281 147.8125 C 159.890625 115.410156 160.460938 102.238281 172.554688 94.023438 C 184.644531 85.808594 193.941406 97.328125 199.476562 101.152344 C 204.949219 104.972656 219.78125 80.269531 242.824219 77.539062 C 265.867188 74.738281 276.300781 85.351562 275.734375 90.480469 Z M 275.730469 90.488281 "/></g></svg>