<svg width="31" height="31" viewBox="0 0 31 31" fill="none" xmlns="http://www.w3.org/2000/svg">
<path d="M3.73402 7.25342L2.96568 11.3888C2.63449 13.181 2.90393 15.0276 3.73402 16.6442H6.82373V7.25342H3.73402ZM7.88936 7.25342V14.2526H8.06494C8.44033 14.2526 8.74307 13.9438 8.74307 13.5685V7.25342H7.88936ZM9.81475 7.25342V13.5685C9.81475 14.5312 9.03369 15.3122 8.06494 15.3122H7.88936V20.2589H8.7915V16.6442H9.97822C9.97822 16.6442 10.4384 15.7179 10.8017 14.9671C11.0862 14.4101 11.6554 14.0528 12.2851 14.0528H17.1409C18.0491 14.0528 18.7878 14.7854 18.7878 15.6937V21.2337H1.57129L2.21127 25.3812H27.555L28.1907 21.5606L26.9132 7.25342H9.81475ZM28.5903 8.67021C28.2937 8.69443 28.0757 8.95478 28.106 9.24541L28.3663 12.1153C28.3905 12.406 28.6509 12.6239 28.9415 12.5997C29.2382 12.5755 29.4501 12.3091 29.4259 12.0185L29.1716 9.15459C29.1474 8.88213 28.9173 8.67021 28.6448 8.67021H28.5903ZM23.3349 8.67627C24.6487 8.67627 25.7083 9.73584 25.7083 11.0497C25.7083 12.3636 24.6487 13.4231 23.3349 13.4231C22.021 13.4231 20.9614 12.3636 20.9614 11.0497C20.9614 9.73584 22.021 8.67627 23.3349 8.67627ZM23.3349 9.73584C22.6144 9.73584 22.021 10.3292 22.021 11.0497C22.021 11.7763 22.6144 12.3636 23.3349 12.3636C24.0554 12.3636 24.6487 11.7763 24.6487 11.0497C24.6487 10.3292 24.0554 9.73584 23.3349 9.73584ZM23.3349 15.179C24.9454 15.179 26.2532 16.4929 26.2532 18.0974C26.2532 19.7079 24.9454 21.0157 23.3349 21.0157C21.7243 21.0157 20.4165 19.7079 20.4165 18.0974C20.4165 16.4929 21.7243 15.179 23.3349 15.179ZM23.3349 16.2446C22.3116 16.2446 21.4821 17.0741 21.4821 18.0974C21.4821 19.1206 22.3116 19.944 23.3349 19.944C24.3581 19.944 25.1815 19.1206 25.1815 18.0974C25.1815 17.0741 24.3581 16.2446 23.3349 16.2446ZM5.6134 17.4253V18.4909H6.82979V17.4253H5.6134ZM2.21127 26.5739V28.1784H27.5429V26.5739H2.21127Z" fill="white"/>
</svg>
