<svg width="29" height="29" viewBox="0 0 29 29" fill="none" xmlns="http://www.w3.org/2000/svg">
<path d="M10.45 28H18.55C25.3 28 28 25.3 28 18.55V10.45C28 3.7 25.3 1 18.55 1H10.45C3.7 1 1 3.7 1 10.45V18.55C1 25.3 3.7 28 10.45 28Z" fill="#B1B1B1" stroke="white" stroke-width="1.5" stroke-linecap="round" stroke-linejoin="round"/>
<g clip-path="url(#clip0_127_264)">
<rect width="19" height="19" transform="translate(5 5)" fill="#B1B1B1"/>
<path d="M5.50368 5.07057C5.31445 5.15593 5.09183 5.40086 5.0436 5.5827C4.98423 5.78682 4.99536 6.32493 5.05844 6.62924C5.30703 7.82051 6.25689 9.11569 7.43679 9.87647L7.66313 10.0249L7.43679 10.1696C6.27544 10.9193 5.30332 12.2404 5.05844 13.3983C4.98052 13.7509 4.98052 15.2502 5.05844 15.6027C5.30332 16.7606 6.27544 18.0817 7.43679 18.8314L7.66313 18.9761L7.4405 19.1209C6.01572 20.0449 5.00278 21.6407 5.00278 22.9544C5.00278 23.3701 5.05102 23.526 5.23283 23.7264C5.45916 23.9713 5.615 24.0158 6.17897 23.9936C6.60196 23.9787 6.69843 23.9602 7.06204 23.8377C7.78928 23.5928 8.47941 23.1511 9.10275 22.5277C9.37732 22.253 9.85225 21.6667 9.99324 21.4255C10.0229 21.3735 10.0675 21.418 10.2715 21.7075C10.5869 22.164 11.3438 22.9173 11.7816 23.2142C12.2492 23.5297 12.8168 23.7969 13.2547 23.9082C13.5923 23.9936 13.6851 24.001 14.5014 24.001C15.3176 24.001 15.4104 23.9936 15.748 23.9082C16.8463 23.6299 18.0893 22.691 18.8239 21.5776C18.9019 21.4589 18.9761 21.3772 18.9909 21.3921C19.002 21.4069 19.0911 21.5405 19.1876 21.6815C19.8443 22.6613 20.8981 23.4851 21.9407 23.8377C22.3043 23.9602 22.4008 23.9787 22.8237 23.9936C23.3877 24.0158 23.5436 23.9713 23.7699 23.7264C23.9517 23.526 23.9999 23.3701 23.9999 22.9544C23.9999 22.1157 23.6363 21.2399 22.9313 20.3604C22.564 19.9039 21.8739 19.2916 21.4509 19.0466L21.3359 18.9798L21.5622 18.8314C22.3711 18.3081 23.1688 17.4249 23.5918 16.5787C23.9443 15.8773 23.9999 15.5916 23.9999 14.5005C23.9999 13.4094 23.9443 13.1237 23.5918 12.4223C23.1688 11.5762 22.3711 10.6929 21.5622 10.1696L21.3359 10.0212L21.4509 9.9544C21.8739 9.70947 22.564 9.09713 22.9313 8.64066C23.6363 7.76113 23.9999 6.88531 23.9999 6.04659C23.9999 5.63095 23.9517 5.47508 23.7699 5.27468C23.5436 5.02975 23.3877 4.98521 22.8237 5.00748C22.4008 5.02233 22.3043 5.04088 21.9444 5.16335C21.4843 5.31922 21.1504 5.4825 20.7571 5.75713C20.1337 6.18762 19.5734 6.748 19.1653 7.3492C19.0651 7.49764 18.9798 7.62011 18.9724 7.62753C18.9687 7.63124 18.9019 7.53846 18.8239 7.42342C18.0893 6.31008 16.8463 5.37117 15.748 5.09284C15.4104 5.00748 15.3176 5.00006 14.5162 5.00006C13.4105 5.00006 13.1248 5.05573 12.4235 5.40828C11.5813 5.83135 10.7168 6.60697 10.1751 7.42713C10.0526 7.6164 10.0266 7.63495 9.99324 7.57928C9.97469 7.54217 9.83741 7.3492 9.6927 7.15251C8.91352 6.09484 7.74475 5.27839 6.67616 5.05202C6.31255 4.97779 5.6892 4.98521 5.50368 5.07057ZM6.84313 6.3138C7.74475 6.67377 8.71316 7.57928 9.15841 8.47738C9.2994 8.75942 9.49234 9.39031 9.45153 9.43484C9.4404 9.44227 9.32538 9.42742 9.18809 9.39773C8.13805 9.17878 6.9396 8.15451 6.40902 7.02262C6.28286 6.75542 6.15671 6.33977 6.153 6.19133C6.153 6.11339 6.49065 6.17277 6.84313 6.3138ZM13.8966 6.31008C13.763 7.28982 12.7055 8.585 11.5887 9.14167C11.2807 9.29382 10.6611 9.4868 10.6166 9.44227C10.6092 9.43113 10.6351 9.28269 10.676 9.11198C10.932 8.09142 11.9004 6.95582 12.969 6.42513C13.2769 6.27297 13.6368 6.15793 13.8112 6.15422C13.9151 6.15051 13.9188 6.15422 13.8966 6.31008ZM15.4772 6.20988C16.4419 6.45853 17.5736 7.44197 18.0856 8.46995C18.2377 8.77798 18.4306 9.39773 18.3861 9.44227C18.3453 9.47938 17.7331 9.29753 17.4511 9.16022C16.3194 8.61098 15.2434 7.30466 15.1061 6.3138C15.0876 6.16164 15.0913 6.15051 15.1692 6.15051C15.2137 6.15051 15.3547 6.17648 15.4772 6.20988ZM22.8312 6.30637C22.6642 7.33064 21.6104 8.6184 20.4936 9.15651C20.1968 9.30124 19.5994 9.47938 19.5586 9.43855C19.5104 9.39402 19.6959 8.77798 19.8443 8.47738C20.2524 7.65722 21.1429 6.77768 21.9518 6.39915C22.2301 6.26926 22.5937 6.15793 22.7495 6.15422C22.8534 6.15051 22.8571 6.15422 22.8312 6.30637ZM14.5904 8.07286C14.813 8.50335 15.7072 9.43113 16.2601 9.80595C16.4345 9.92471 16.5755 10.0249 16.568 10.0323C16.5643 10.036 16.4419 10.1214 16.2972 10.2179C15.6887 10.6335 15.1136 11.205 14.7128 11.7988C14.6052 11.9584 14.5125 12.0846 14.5014 12.0846C14.4902 12.0846 14.3975 11.9584 14.2899 11.7988C13.8891 11.205 13.314 10.6335 12.7055 10.2179C12.5608 10.1214 12.4384 10.036 12.4347 10.0323C12.4273 10.0249 12.5682 9.92471 12.7426 9.80595C13.2955 9.43113 14.1897 8.50335 14.4123 8.07286C14.442 8.0172 14.4828 7.96895 14.5014 7.96895C14.5199 7.96895 14.5607 8.0172 14.5904 8.07286ZM9.43298 10.7226C9.38845 10.9935 9.25488 11.3795 9.11759 11.643C8.55362 12.734 7.26983 13.7657 6.31255 13.8956C6.16413 13.9142 6.153 13.9104 6.153 13.8325C6.153 13.788 6.17897 13.647 6.21237 13.5245C6.52033 12.3369 7.87833 10.9898 9.0842 10.6781C9.45895 10.5816 9.45524 10.5816 9.43298 10.7226ZM10.9913 10.6781C12.2306 10.9935 13.6257 12.426 13.8743 13.6358C13.9003 13.762 13.9114 13.8771 13.8966 13.8919C13.852 13.9364 13.3437 13.7954 13.0358 13.6507C11.8559 13.0977 10.8095 11.8248 10.6277 10.7226C10.6017 10.5779 10.6092 10.5779 10.9913 10.6781ZM18.3713 10.7412C18.2192 11.7766 17.1914 13.042 16.0449 13.6098C15.6998 13.7806 15.1581 13.9439 15.1061 13.8919C15.0616 13.8511 15.1618 13.4391 15.2805 13.146C15.7332 12.066 16.9576 10.9527 17.9965 10.6781C18.3898 10.5779 18.3973 10.5779 18.3713 10.7412ZM20.0669 10.7226C21.2988 11.0974 22.6827 12.6041 22.8386 13.7472C22.8571 13.8956 22.8534 13.9067 22.7755 13.9067C22.4935 13.9067 21.9073 13.6692 21.4583 13.3686C20.4973 12.7303 19.7367 11.6726 19.5697 10.7412L19.5438 10.6001L19.6848 10.6261C19.7627 10.641 19.9334 10.6855 20.0669 10.7226ZM10.9579 13.5542C11.3253 13.9216 11.8967 14.3818 12.1007 14.4783C12.1341 14.4968 12.1341 14.5042 12.1007 14.5228C12.0748 14.5339 11.9078 14.6453 11.7297 14.7714C11.2845 15.0832 10.5312 15.8477 10.2567 16.267L10.0341 16.601L9.81886 16.2744C9.44411 15.7141 8.66493 14.9644 8.02303 14.5451C7.95254 14.5005 7.95254 14.5005 8.02303 14.4523C8.66493 14.0366 9.46637 13.261 9.82628 12.7118L10.0303 12.4L10.2715 12.7563C10.4162 12.9715 10.6834 13.2833 10.9579 13.5542ZM19.7961 13.4614C20.1226 13.8028 20.6198 14.2185 20.9797 14.4523C21.0502 14.5005 21.0502 14.5005 20.9797 14.5451C20.3378 14.9644 19.5586 15.7141 19.1839 16.2744L18.9687 16.601L18.746 16.267C18.4715 15.8477 17.7183 15.0832 17.273 14.7714C17.0949 14.6453 16.9279 14.5339 16.902 14.5228C16.8686 14.5042 16.8686 14.4968 16.902 14.4783C16.9279 14.4671 17.0949 14.3558 17.273 14.2296C17.7183 13.9179 18.4715 13.1534 18.746 12.734L18.9687 12.4L19.1839 12.7266C19.3063 12.9047 19.5809 13.2387 19.7961 13.4614ZM6.53888 15.1537C7.49245 15.3986 8.63525 16.3895 9.14357 17.4137C9.29569 17.7218 9.48863 18.3415 9.44411 18.3861C9.39958 18.4306 8.77995 18.2376 8.47199 18.0855C7.44421 17.5733 6.46096 16.4414 6.21237 15.4765C6.10477 15.0609 6.11961 15.0461 6.53888 15.1537ZM13.9077 15.1722C13.9077 15.3281 13.789 15.7141 13.648 16.0035C13.4439 16.4303 13.0988 16.8979 12.7055 17.2727C12.3048 17.6624 11.9857 17.8962 11.5739 18.104C11.2993 18.2413 10.6648 18.4343 10.624 18.3935C10.6166 18.3823 10.6314 18.2673 10.6611 18.13C10.9171 16.9053 12.2788 15.4951 13.5367 15.1574C13.8335 15.0757 13.9077 15.0795 13.9077 15.1722ZM15.4252 15.15C16.6719 15.4469 18.0819 16.8831 18.3416 18.13C18.3713 18.2673 18.3861 18.3823 18.3787 18.3935C18.3342 18.4343 17.7034 18.2413 17.4214 18.1003C16.5235 17.655 15.6182 16.6864 15.2583 15.7846C15.1173 15.432 15.0579 15.0943 15.1358 15.0943C15.1655 15.0943 15.2954 15.1203 15.4252 15.15ZM22.8386 15.2539C22.705 16.2336 21.6476 17.5288 20.5307 18.0855C20.2228 18.2376 19.6031 18.4306 19.5586 18.3861C19.5512 18.3749 19.5772 18.2265 19.618 18.0558C19.9185 16.8459 21.2134 15.5137 22.423 15.1648C22.5455 15.1277 22.6939 15.098 22.7532 15.098C22.8571 15.0943 22.8608 15.098 22.8386 15.2539ZM14.7128 17.2022C15.1136 17.796 15.6887 18.3675 16.2972 18.7831C16.4419 18.8796 16.5643 18.965 16.568 18.9687C16.5755 18.9761 16.4345 19.0763 16.2601 19.1951C15.7035 19.5736 14.9614 20.3455 14.5496 20.9801C14.5014 21.0506 14.5014 21.0506 14.4568 20.9801C14.0413 20.3455 13.2992 19.5736 12.7426 19.1951C12.5682 19.0763 12.4273 18.9761 12.4347 18.9687C12.4384 18.965 12.5608 18.8796 12.7055 18.7831C13.314 18.3675 13.8891 17.796 14.2899 17.2022C14.3975 17.0426 14.4902 16.9165 14.5014 16.9165C14.5125 16.9165 14.6052 17.0426 14.7128 17.2022ZM9.45524 19.5959C9.45524 19.7443 9.28827 20.2565 9.1547 20.5274C8.62782 21.5925 7.3663 22.6464 6.40902 22.8246C6.29028 22.8468 6.17897 22.8542 6.16784 22.8394C6.11961 22.7912 6.27544 22.2456 6.42757 21.9339C6.95815 20.8577 8.07127 19.8891 9.08791 19.6256C9.42185 19.5365 9.45524 19.5328 9.45524 19.5959ZM11.1249 19.6664C12.264 20.0115 13.5589 21.3438 13.8483 22.4646C13.93 22.78 13.9262 22.8505 13.8298 22.8505C13.6702 22.8505 13.2881 22.7281 12.9912 22.5833C11.8262 22.0192 10.8281 20.7909 10.6277 19.6849L10.6017 19.5439L10.7427 19.5699C10.8207 19.5847 10.9913 19.6293 11.1249 19.6664ZM18.375 19.6849C18.2229 20.5199 17.6366 21.4106 16.7944 22.086C16.2972 22.4831 15.6998 22.7763 15.2583 22.8394C15.1061 22.858 15.095 22.8542 15.095 22.7763C15.095 22.7318 15.121 22.5908 15.1544 22.4683C15.4623 21.2807 16.8203 19.9336 18.0262 19.6219C18.4121 19.5254 18.4047 19.5217 18.375 19.6849ZM20.0929 19.6849C21.0502 19.9818 22.1151 20.9579 22.5937 21.9784C22.7384 22.2864 22.8794 22.7949 22.8349 22.8394C22.7941 22.8802 22.3674 22.7763 22.0891 22.6613C21.2394 22.3087 20.2747 21.3921 19.848 20.5274C19.7144 20.2565 19.5475 19.7443 19.5475 19.5996C19.5475 19.5365 19.6885 19.5588 20.0929 19.6849Z" fill="white"/>
</g>
<defs>
<clipPath id="clip0_127_264">
<rect width="19" height="19" fill="white" transform="translate(5 5)"/>
</clipPath>
</defs>
</svg>
