<svg width="374" height="448" viewBox="0 0 374 448" fill="none" xmlns="http://www.w3.org/2000/svg">
<path d="M297.099 9.79994C288.699 33.8999 278.399 47.4999 260.999 57.2999C258.499 58.6999 251.299 61.6999 244.999 63.9999C232.999 68.2999 230.599 69.6999 231.799 71.5999C232.199 72.1999 237.599 74.5999 243.899 76.8999C257.899 81.9999 265.299 85.8999 271.999 91.5999C283.699 101.6 289.299 110.4 296.499 129.8C302.199 145.5 302.999 145.5 308.999 129C315.099 112.3 318.799 106 328.399 96.3999C337.999 86.7999 344.299 83.0999 360.999 76.9999C377.399 70.9999 377.499 70.2999 361.999 64.5999C347.899 59.3999 342.299 56.5999 334.299 50.4999C322.799 41.8999 314.799 29.4999 307.999 9.69994C305.199 1.59994 304.299 -6.31433e-05 302.599 -6.31433e-05C300.799 -6.31433e-05 299.899 1.59994 297.099 9.79994Z" fill="white"/>
<path d="M137.3 85.1999C136.7 85.8999 132.8 96.1999 128.6 108C124.3 119.8 118.5 134 115.7 139.5C105.4 159.5 88.1997 178.8 69.1997 191.4C56.4997 199.9 48.6997 203.5 22.9997 212.8C1.39967 220.6 -1.60033 222.3 0.599667 225.7C1.29967 226.8 10.3997 230.6 22.9997 235.2C48.6997 244.5 56.4997 248.1 69.1997 256.6C88.1997 269.2 105.4 288.5 115.7 308.5C118.5 314 124.3 328.2 128.5 340C132.8 351.8 136.9 362.1 137.6 362.9C138.3 363.7 139.8 364 141.3 363.6C143.4 363.1 144.6 360.6 150.9 342.8C154.9 331.6 160.2 318.3 162.6 313.1C175.9 284.8 198.5 261.7 226.8 247.5C231.6 245.1 243.6 240.2 253.5 236.7C281.5 226.6 280.2 227.2 279.8 223.7C279.5 220.8 279.2 220.6 257 212.5C244.6 208 230.6 202.4 226 200C198 185.8 175.8 163 162.6 134.9C160.2 129.7 155 116.5 151 105.5C147.1 94.4999 143.3 85.1999 142.7 84.7999C140.9 83.5999 138.4 83.8999 137.3 85.1999Z" fill="white"/>
<path d="M300.099 308.2C299.699 309.5 297.799 314.5 295.999 319.5C289.699 336.9 283.299 346.8 271.999 356.4C265.299 362.1 257.899 366 243.899 371.1C237.599 373.4 232.199 375.8 231.799 376.4C230.599 378.3 232.999 379.7 244.999 384C251.299 386.3 258.499 389.3 260.999 390.7C278.399 400.5 288.699 414.1 297.099 438.2C299.899 446.4 300.799 448 302.599 448C304.299 448 305.199 446.4 307.999 438.3C314.799 418.5 322.799 406.1 334.299 397.5C342.299 391.4 347.899 388.6 361.999 383.4C377.499 377.7 377.399 377 360.999 371C343.999 364.8 337.999 361.2 327.999 351.1C318.199 341.2 315.299 336.3 308.999 319C304.299 306.1 301.999 303.3 300.099 308.2Z" fill="white"/>
</svg>
